SplineFontDB: 3.2
FontName: SeriousShannsBoldItalic
FullName: Serious Shanns Bold Italic
FamilyName: Serious Shanns
Weight: Bold
Copyright: https://github.com/kaBeech/serious-shanns/blob/main/LICENSE
Version: 6.0.0
ItalicAngle: -12.5
UnderlinePosition: 0
UnderlineWidth: 0
Ascent: 800
Descent: 200
InvalidEm: 0
sfntRevision: 0x00003333
LayerCount: 2
Layer: 0 0 "Back" 1
Layer: 1 0 "Fore" 0
XUID: [1021 45 630387186 10904090]
StyleMap: 0x0040
FSType: 0
OS2Version: 3
OS2_WeightWidthSlopeOnly: 0
OS2_UseTypoMetrics: 0
CreationTime: 1532631502
ModificationTime: 315532800
PfmFamily: 49
TTFWeight: 700
TTFWidth: 5
LineGap: 0
VLineGap: 0
Panose: 0 0 0 0 0 0 0 0 0 0
OS2TypoAscent: 613
OS2TypoAOffset: 0
OS2TypoDescent: -188
OS2TypoDOffset: 0
OS2TypoLinegap: 98
OS2WinAscent: 778
OS2WinAOffset: 0
OS2WinDescent: 308
OS2WinDOffset: 0
HheadAscent: 796
HheadAOffset: 0
HheadDescent: -317
HheadDOffset: 0
OS2SubXSize: 317
OS2SubYSize: 293
OS2SubXOff: 0
OS2SubYOff: 37
OS2SupXSize: 317
OS2SupYSize: 293
OS2SupXOff: 0
OS2SupYOff: 171
OS2StrikeYSize: 0
OS2StrikeYPos: 132
OS2CapHeight: 576
OS2XHeight: 485
OS2Vendor: 'NONE'
OS2CodePages: 00000001.00000000
OS2UnicodeRanges: 00000001.00000000.00000000.00000000
MarkAttachClasses: 1
DEI: 91125
LangName: 1033 "" "" "Normal" "" "" "Version 0.2.0"
Encoding: UnicodeBmp
Compacted: 1
UnicodeInterp: none
NameList: AGL For New Fonts
DisplaySize: -48
AntiAlias: 1
FitToEm: 0
WinInfo: 0 16 14
BeginPrivate: 9
BlueValues 32 [-40 -6 499 523 706 718 765 769]
OtherBlues 11 [-297 -287]
BlueScale 9 0.0291667
BlueShift 1 0
StdHW 5 [111]
StdVW 5 [118]
StemSnapH 33 [100 106 110 111 114 116 119 179]
StemSnapV 5 [118]
ForceBold 4 true
EndPrivate
BeginChars: 65537 123

StartChar: .notdef
Encoding: 65536 -1 0
Width: 570
VWidth: 886
GlyphClass: 1
Flags: W
HStem: -201.925 66.2998<134.742 369.343> 616.625 66.2998<308.143 542.742>
LayerCount: 2
Fore
SplineSet
57.392578125 -201.924804688 m 1
 262.2421875 682.924804688 l 1
 619.2421875 682.924804688 l 1
 415.2421875 -201.924804688 l 1
 57.392578125 -201.924804688 l 1
308.142578125 616.625 m 1
 134.7421875 -135.625 l 1
 369.342773438 -135.625 l 1
 542.7421875 616.625 l 1
 308.142578125 616.625 l 1
EndSplineSet
Validated: 524289
EndChar

StartChar: exclam
Encoding: 33 33 8
Width: 570
VWidth: 907
GlyphClass: 2
Flags: HMW
HStem: 25.9268 152.15<274.882 339.765 284.232 339.765>
VStem: 234.082 263.498
LayerCount: 2
Fore
SplineSet
497.579101562 684.674804688 m 0
 496.446289062 679.575195312 488.23046875 647.84375 472.930664062 589.4765625 c 0
 457.630859375 531.110351562 446.013671875 484.360351562 438.081054688 449.2265625 c 0
 434.114257812 432.793945312 430.2890625 415.651367188 426.60546875 397.801757812 c 0
 422.922851562 379.952148438 419.522460938 364.651367188 416.40625 351.901367188 c 0
 413.2890625 339.151367188 410.880859375 330.369140625 409.180664062 325.551757812 c 0
 407.48046875 320.735351562 405.922851562 314.642578125 404.505859375 307.276367188 c 0
 403.088867188 299.909179688 401.53125 293.109375 399.831054688 286.875976562 c 0
 394.73046875 271.008789062 386.23046875 258.826171875 374.331054688 250.326171875 c 0
 362.998046875 242.392578125 351.09765625 238.142578125 338.630859375 237.576171875 c 2
 336.081054688 237.576171875 l 2
 323.047851562 237.576171875 313.415039062 242.392578125 307.181640625 252.026367188 c 0
 303.403320312 257.693359375 301.514648438 264.745117188 301.514648438 273.182617188 c 0
 301.514648438 277.401367188 301.986328125 281.965820312 302.930664062 286.875976562 c 0
 304.630859375 293.67578125 307.60546875 302.600585938 311.85546875 313.651367188 c 0
 316.10546875 324.701171875 319.081054688 332.776367188 320.78125 337.875976562 c 0
 322.48046875 342.975585938 324.888671875 351.618164062 328.005859375 363.80078125 c 0
 331.123046875 375.984375 333.956054688 387.7421875 336.505859375 399.075195312 c 0
 339.055664062 410.408203125 342.59765625 427.69140625 347.130859375 450.924804688 c 0
 352.23046875 478.124023438 357.614257812 504.19140625 363.28125 529.124023438 c 0
 368.948242188 554.057617188 373.623046875 573.607421875 377.305664062 587.774414062 c 0
 380.989257812 601.94140625 385.521484375 619.5078125 390.905273438 640.475585938 c 0
 396.288085938 661.442382812 399.830078125 675.325195312 401.530273438 682.125 c 0
 406.063476562 700.2578125 414.137695312 714.283203125 425.754882812 724.200195312 c 0
 437.372070312 734.1171875 449.697265625 739.075195312 462.73046875 739.075195312 c 2
 466.129882812 739.075195312 l 2
 478.596679688 739.075195312 487.947265625 734.541992188 494.1796875 725.475585938 c 0
 497.989257812 719.934570312 499.893554688 712.701171875 499.893554688 703.775390625 c 0
 499.893554688 698.09375 499.122070312 691.727539062 497.579101562 684.674804688 c 0
284.23046875 25.9267578125 m 2
 265.53125 25.9267578125 251.647460938 32.7265625 242.581054688 46.3271484375 c 0
 235.274414062 57.09375 231.622070312 69.294921875 231.622070312 82.931640625 c 0
 231.622070312 89.3916015625 232.44140625 96.1728515625 234.081054688 103.276367188 c 0
 238.614257812 123.676757812 250.23046875 140.959960938 268.930664062 155.126953125 c 0
 289.331054688 170.426757812 309.588867188 178.077148438 329.706054688 178.077148438 c 0
 349.823242188 178.077148438 364.698242188 171.276367188 374.331054688 157.676757812 c 0
 381.130859375 148.232421875 384.53125 137.213867188 384.53125 124.62109375 c 0
 384.53125 118.325195312 383.680664062 111.634765625 381.98046875 104.551757812 c 0
 376.880859375 83.3017578125 366.255859375 65.59375 350.10546875 51.4267578125 c 0
 333.956054688 37.259765625 314.831054688 28.759765625 292.73046875 25.9267578125 c 2
 284.23046875 25.9267578125 l 2
EndSplineSet
Validated: 524289
EndChar

StartChar: quotedbl
Encoding: 34 34 9
Width: 570
VWidth: 941
GlyphClass: 2
Flags: W
HStem: 450.909 316.307
LayerCount: 2
Fore
SplineSet
433.16015625 719.509765625 m 0
 432.02734375 712.142578125 429.474609375 700.243164062 425.5078125 683.810546875 c 0
 421.541015625 667.376953125 413.891601562 636.77734375 402.55859375 592.010742188 c 0
 390.658203125 544.977539062 381.30859375 512.110351562 374.5078125 493.41015625 c 0
 369.408203125 479.243164062 361.19140625 468.4765625 349.858398438 461.109375 c 0
 339.658203125 454.309570312 329.741210938 450.909179688 320.108398438 450.909179688 c 0
 307.075195312 450.909179688 295.7421875 455.159179688 286.109375 463.659179688 c 0
 280.555664062 469.212890625 277.779296875 476.154296875 277.779296875 484.484375 c 0
 277.779296875 488.0546875 278.2890625 491.879882812 279.30859375 495.958984375 c 2
 281.008789062 501.059570312 l 2
 287.2421875 523.159179688 294.041992188 550.359375 301.409179688 582.659179688 c 0
 303.67578125 591.7265625 305.659179688 601.359375 307.359375 611.559570312 c 0
 319.826171875 668.79296875 328.04296875 707.325195312 332.009765625 727.158203125 c 0
 333.709960938 734.525390625 336.827148438 741.04296875 341.359375 746.708984375 c 0
 347.026367188 753.509765625 353.543945312 758.609375 360.91015625 762.009765625 c 0
 369.834960938 765.48046875 378.54296875 767.215820312 387.033203125 767.215820312 c 0
 388.247070312 767.215820312 389.456054688 767.180664062 390.66015625 767.109375 c 0
 398.59375 767.109375 404.96875 766.401367188 409.78515625 764.984375 c 0
 414.602539062 763.567382812 419.27734375 761.159179688 423.810546875 757.759765625 c 0
 428.34375 754.359375 431.4609375 749.259765625 433.16015625 742.458984375 c 0
 434.860351562 735.659179688 434.860351562 728.009765625 433.16015625 719.509765625 c 0
559.80859375 718.66015625 m 0
 558.674804688 712.993164062 557.541015625 707.611328125 556.408203125 702.510742188 c 0
 549.608398438 673.611328125 540.541015625 636.778320312 529.208007812 592.010742188 c 0
 517.30859375 544.978515625 508.241210938 512.111328125 502.0078125 493.411132812 c 0
 496.908203125 479.244140625 488.408203125 468.477539062 476.5078125 461.110351562 c 0
 466.30859375 454.310546875 456.108398438 450.91015625 445.908203125 450.91015625 c 0
 432.875 450.91015625 422.108398438 455.16015625 413.608398438 463.66015625 c 0
 407.762695312 469.505859375 404.83984375 476.889648438 404.83984375 485.8125 c 0
 404.83984375 488.999023438 405.212890625 492.381835938 405.958007812 495.959960938 c 2
 407.658203125 501.060546875 l 2
 413.325195312 520.327148438 419.275390625 543.560546875 425.5078125 570.760742188 c 0
 438.541015625 627.993164062 449.30859375 678.709960938 457.80859375 722.91015625 c 1
 457.80859375 725.459960938 l 2
 459.5078125 733.393554688 463.049804688 740.618164062 468.43359375 747.135742188 c 0
 473.81640625 753.65234375 480.19140625 758.610351562 487.55859375 762.010742188 c 0
 496.482421875 765.481445312 505.190429688 767.216796875 513.680664062 767.216796875 c 0
 514.89453125 767.216796875 516.103515625 767.181640625 517.30859375 767.110351562 c 0
 525.241210938 767.110351562 531.616210938 766.40234375 536.43359375 764.985351562 c 0
 541.25 763.568359375 545.924804688 761.443359375 550.458007812 758.610351562 c 0
 555.55859375 755.209960938 558.81640625 749.96875 560.233398438 742.885742188 c 0
 561.650390625 735.801757812 561.5078125 727.727539062 559.80859375 718.66015625 c 0
EndSplineSet
Validated: 524289
EndChar

StartChar: numbersign
Encoding: 35 35 10
Width: 570
VWidth: 904
GlyphClass: 2
Flags: HMW
HStem: 42.3179 17.85G<154.437 160.67> 205.944 92.2259<308.57 308.57> 422.27 92.6517<399.516 432.666 361.266 468.366>
LayerCount: 2
Fore
SplineSet
261.821289062 420.568359375 m 1
 247.087890625 420.000976562 238.868164062 420.002929688 237.16796875 420.569335938 c 0
 223.000976562 420.569335938 212.80078125 424.252929688 206.567382812 431.619140625 c 0
 201.767578125 437.619140625 199.368164062 444.749023438 199.368164062 453.0078125 c 0
 199.368164062 456.44921875 199.784179688 460.0859375 200.618164062 463.919921875 c 2
 200.618164062 466.469726562 l 2
 203.451171875 478.369140625 210.109375 488.852539062 220.591796875 497.919921875 c 0
 231.075195312 506.986328125 244.25 511.803710938 260.1171875 512.370117188 c 0
 269.18359375 512.9375 282.216796875 513.220703125 299.216796875 513.220703125 c 1
 349.3671875 637.3203125 l 2
 358.43359375 654.887695312 369.201171875 667.0703125 381.66796875 673.870117188 c 0
 390.16796875 678.403320312 398.66796875 680.670898438 407.16796875 680.670898438 c 0
 410.567382812 680.670898438 414.250976562 680.103515625 418.217773438 678.970703125 c 0
 431.250976562 676.137695312 440.034179688 669.0546875 444.567382812 657.721679688 c 0
 446.607421875 652.9609375 447.626953125 647.69140625 447.626953125 641.911132812 c 0
 447.626953125 638.057617188 447.173828125 633.977539062 446.266601562 629.670898438 c 0
 445.133789062 624.571289062 443.150390625 619.471679688 440.317382812 614.37109375 c 2
 399.517578125 514.920898438 l 1
 468.368164062 514.920898438 l 1
 515.118164062 630.521484375 l 2
 524.184570312 648.654296875 534.952148438 661.12109375 547.418945312 667.920898438 c 0
 555.918945312 672.454101562 564.418945312 674.4375 572.918945312 673.870117188 c 0
 576.885742188 673.870117188 580.852539062 673.586914062 584.819335938 673.020507812 c 0
 597.852539062 670.1875 606.919921875 663.104492188 612.01953125 651.771484375 c 0
 614.059570312 647.350585938 615.079101562 642.420898438 615.079101562 636.981445312 c 0
 615.079101562 633.354492188 614.625976562 629.500976562 613.719726562 625.420898438 c 0
 612.5859375 619.75390625 610.319335938 613.8046875 606.919921875 607.571289062 c 0
 596.719726562 586.604492188 583.686523438 556.00390625 567.819335938 515.771484375 c 1
 581.986328125 515.204101562 592.752929688 510.670898438 600.120117188 502.170898438 c 0
 607.204101562 494.143554688 610.745117188 485.329101562 610.745117188 475.7265625 c 0
 610.745117188 473.806640625 610.603515625 471.854492188 610.3203125 469.87109375 c 0
 607.487304688 456.837890625 600.829101562 445.788085938 590.345703125 436.721679688 c 0
 579.86328125 427.654296875 566.970703125 422.836914062 551.670898438 422.270507812 c 2
 550.821289062 422.270507812 l 1
 530.420898438 422.270507812 l 1
 481.970703125 297.3203125 l 1
 503.220703125 297.3203125 l 2
 518.521484375 297.3203125 528.438476562 293.353515625 532.970703125 285.420898438 c 0
 535.993164062 280.131835938 537.50390625 273.961914062 537.50390625 266.911132812 c 0
 537.50390625 263.384765625 537.125976562 259.637695312 536.370117188 255.670898438 c 2
 536.370117188 254.8203125 l 2
 533.537109375 241.220703125 528.154296875 230.737304688 520.220703125 223.370117188 c 0
 510.021484375 212.603515625 497.271484375 207.220703125 481.970703125 207.220703125 c 2
 446.271484375 207.220703125 l 1
 422.470703125 147.153320312 405.75390625 105.786132812 396.12109375 83.119140625 c 0
 387.053710938 68.38671875 375.154296875 57.0537109375 360.420898438 49.1201171875 c 0
 351.751953125 44.5302734375 343.770507812 42.2353515625 336.478515625 42.2353515625 c 0
 335.66796875 42.2353515625 334.865234375 42.263671875 334.072265625 42.3203125 c 0
 329.5390625 42.3203125 325.2890625 42.8876953125 321.322265625 44.0205078125 c 0
 309.421875 46.853515625 301.771484375 55.63671875 298.372070312 70.369140625 c 0
 296.671875 78.302734375 296.955078125 86.2353515625 299.221679688 94.1689453125 c 0
 300.921875 100.96875 303.471679688 108.051757812 306.872070312 115.418945312 c 0
 316.504882812 135.818359375 329.538085938 166.135742188 345.970703125 206.369140625 c 1
 336.337890625 206.369140625 323.87109375 206.2265625 308.571289062 205.943359375 c 0
 293.271484375 205.661132812 280.803710938 205.518554688 271.170898438 205.518554688 c 1
 238.87109375 129.018554688 222.154296875 89.3515625 221.021484375 86.5185546875 c 0
 213.087890625 72.3515625 201.188476562 60.7353515625 185.321289062 51.66796875 c 0
 174.553710938 45.4345703125 164.920898438 42.318359375 156.420898438 42.318359375 c 0
 152.454101562 42.318359375 148.204101562 42.884765625 143.670898438 44.017578125 c 0
 131.771484375 46.8505859375 124.688476562 56.201171875 122.420898438 72.068359375 c 0
 121.288085938 80.0009765625 121.571289062 87.79296875 123.271484375 95.443359375 c 0
 124.970703125 103.092773438 127.803710938 110.884765625 131.771484375 118.818359375 c 0
 138.571289062 132.41796875 151.604492188 161.03515625 170.87109375 204.66796875 c 1
 158.970703125 204.66796875 l 2
 143.670898438 204.66796875 132.62109375 208.068359375 125.821289062 214.868164062 c 0
 120.5 220.188476562 117.83984375 226.987304688 117.83984375 235.263671875 c 0
 117.83984375 238.446289062 118.233398438 241.84765625 119.020507812 245.467773438 c 2
 119.020507812 248.868164062 l 2
 121.853515625 260.767578125 128.228515625 270.967773438 138.145507812 279.467773438 c 0
 148.0625 287.967773438 160.954101562 292.78515625 176.821289062 293.91796875 c 0
 181.354492188 293.91796875 187.021484375 294.059570312 193.821289062 294.342773438 c 0
 200.62109375 294.625976562 205.720703125 294.767578125 209.12109375 294.767578125 c 2
 261.821289062 420.568359375 l 1
432.66796875 422.26953125 m 1
 361.267578125 422.26953125 l 1
 309.41796875 298.169921875 l 1
 382.517578125 298.169921875 l 1
 399.517578125 338.40234375 416.234375 379.76953125 432.66796875 422.26953125 c 1
EndSplineSet
Validated: 524289
EndChar

StartChar: dollar
Encoding: 36 36 11
Width: 570
VWidth: 901
GlyphClass: 2
Flags: HMW
HStem: 580.702 85.85
VStem: 458.995 99.8682
LayerCount: 2
Fore
SplineSet
297.913085938 -59.349609375 m 0
 285.73046875 -67.849609375 272.5625 -72.0986328125 258.395507812 -72.0986328125 c 2
 257.545898438 -72.0986328125 l 2
 243.37890625 -72.0986328125 233.74609375 -66.9990234375 228.645507812 -56.798828125 c 0
 226.331054688 -52.5009765625 225.174804688 -47.3359375 225.174804688 -41.302734375 c 0
 225.174804688 -36.9931640625 225.764648438 -32.2421875 226.944335938 -27.0478515625 c 0
 227.51171875 -24.21484375 228.787109375 -19.2568359375 230.76953125 -12.173828125 c 0
 232.752929688 -5.0908203125 236.010742188 6.951171875 240.543945312 23.951171875 c 1
 221.84375 24.5185546875 203.994140625 27.3515625 186.994140625 32.451171875 c 0
 171.126953125 36.984375 157.52734375 43.7841796875 146.194335938 52.8515625 c 0
 124.661132812 69.8515625 111.060546875 90.2509765625 105.393554688 114.05078125 c 0
 104.098632812 121.174804688 103.451171875 127.928710938 103.451171875 134.311523438 c 0
 103.451171875 139.099609375 103.815429688 143.6796875 104.543945312 148.05078125 c 0
 105.111328125 151.451171875 106.244140625 154.568359375 107.944335938 157.401367188 c 0
 113.611328125 169.868164062 122.9609375 179.217773438 135.994140625 185.451171875 c 0
 143.361328125 188.8515625 149.168945312 190.9765625 153.418945312 191.826171875 c 0
 157.668945312 192.67578125 161.069335938 193.1015625 163.619140625 193.1015625 c 2
 170.84375 193.1015625 l 2
 177.077148438 192.534179688 182.319335938 189.701171875 186.569335938 184.6015625 c 0
 190.819335938 179.500976562 194.643554688 172.984375 198.043945312 165.05078125 c 0
 204.84375 149.184570312 213.911132812 136.716796875 225.244140625 127.650390625 c 0
 234.876953125 120.283203125 247.626953125 116.033203125 263.494140625 114.900390625 c 1
 283.893554688 199.333007812 302.02734375 275.266601562 317.893554688 342.69921875 c 1
 316.194335938 342.69921875 313.077148438 343.266601562 308.543945312 344.399414062 c 0
 305.7109375 344.966796875 301.744140625 345.249023438 296.643554688 345.249023438 c 0
 275.111328125 347.516601562 256.694335938 353.18359375 241.393554688 362.25 c 0
 227.2265625 371.317382812 216.319335938 382.083984375 208.668945312 394.55078125 c 0
 201.018554688 407.017578125 196.060546875 420.4765625 193.793945312 434.92578125 c 0
 192.887695312 440.706054688 192.43359375 446.462890625 192.43359375 452.198242188 c 0
 192.43359375 460.799804688 193.454101562 469.350585938 195.494140625 477.8515625 c 0
 200.59375 498.818359375 208.385742188 518.934570312 218.869140625 538.202148438 c 0
 229.3515625 557.46875 242.810546875 575.4609375 259.243164062 592.177734375 c 0
 275.67578125 608.89453125 295.79296875 623.203125 319.592773438 635.102539062 c 0
 342.259765625 645.870117188 366.342773438 653.802734375 391.842773438 658.90234375 c 1
 394.67578125 670.236328125 398.076171875 683.552734375 402.04296875 698.852539062 c 0
 408.842773438 726.052734375 421.592773438 743.3359375 440.29296875 750.703125 c 0
 446.526367188 752.969726562 453.893554688 754.102539062 462.393554688 754.102539062 c 0
 479.959960938 754.102539062 491.29296875 748.15234375 496.393554688 736.252929688 c 0
 498.529296875 731.37109375 499.596679688 725.749023438 499.596679688 719.388671875 c 0
 499.596679688 713.936523438 498.8125 707.940429688 497.243164062 701.40234375 c 0
 493.276367188 684.40234375 490.443359375 672.78515625 488.743164062 666.551757812 c 1
 500.643554688 665.418945312 516.2265625 662.301757812 535.493164062 657.202148438 c 0
 554.193359375 652.668945312 568.643554688 648.418945312 578.842773438 644.452148438 c 0
 590.17578125 639.918945312 597.258789062 632.268554688 600.092773438 621.501953125 c 0
 602.359375 613.569335938 602.642578125 605.3515625 600.942382812 596.8515625 c 0
 600.375 594.018554688 599.525390625 590.90234375 598.392578125 587.501953125 c 0
 595.559570312 579.001953125 590.883789062 572.202148438 584.3671875 567.1015625 c 0
 577.850585938 562.001953125 570.908203125 558.884765625 563.541015625 557.751953125 c 0
 560.141601562 557.184570312 557.024414062 556.90234375 554.19140625 556.90234375 c 0
 551.358398438 556.90234375 548.241210938 557.043945312 544.841796875 557.327148438 c 0
 541.44140625 557.610351562 537.474609375 558.6015625 532.94140625 560.301757812 c 0
 527.274414062 561.434570312 520.7578125 563.702148438 513.390625 567.1015625 c 0
 499.791015625 574.46875 484.7734375 579.001953125 468.340820312 580.702148438 c 1
 454.740234375 525.735351562 441.708007812 473.6015625 429.240234375 424.301757812 c 1
 451.907226562 420.334960938 472.590820312 414.384765625 491.291015625 406.452148438 c 0
 508.291015625 397.952148438 521.607421875 387.751953125 531.240234375 375.8515625 c 0
 540.874023438 363.952148438 547.95703125 350.494140625 552.490234375 335.4765625 c 0
 556.756835938 321.342773438 558.889648438 307.208007812 558.889648438 293.07421875 c 0
 558.889648438 281.208984375 557.541992188 264.435546875 552.490234375 244.951171875 c 0
 546.256835938 218.318359375 536.056640625 193.1015625 521.889648438 169.30078125 c 0
 507.72265625 145.500976562 491.005859375 124.818359375 471.739257812 107.250976562 c 0
 452.471679688 89.6845703125 430.939453125 74.6669921875 407.138671875 62.2001953125 c 0
 384.471679688 50.8671875 360.955078125 41.80078125 336.587890625 35 c 1
 329.788085938 6.1005859375 325.821289062 -13.44921875 324.688476562 -23.6494140625 c 0
 319.021484375 -38.94921875 310.096679688 -50.849609375 297.913085938 -59.349609375 c 0
324.6953125 548.401367188 m 0
 308.829101562 535.368164062 298.62890625 520.067382812 294.095703125 502.5 c 0
 293.24609375 498.817382812 292.8203125 495.22265625 292.8203125 491.715820312 c 0
 292.8203125 481.197265625 296.645507812 471.475585938 304.295898438 462.55078125 c 0
 312.795898438 452.350585938 324.6953125 444.700195312 339.99609375 439.600585938 c 1
 348.49609375 474.733398438 359.262695312 519.783203125 372.295898438 574.75 c 1
 354.162109375 568.517578125 338.295898438 559.734375 324.6953125 548.401367188 c 0
417.345703125 167.600585938 m 0
 437.74609375 185.166992188 450.49609375 205.282226562 455.596679688 227.94921875 c 0
 457.86328125 238.149414062 458.99609375 246.932617188 458.99609375 254.299804688 c 0
 458.99609375 262.799804688 457.013671875 271.58203125 453.046875 280.649414062 c 0
 446.813476562 296.516601562 430.663085938 309.833007812 404.596679688 320.600585938 c 1
 389.296875 255.43359375 379.23828125 213.075195312 374.421875 193.525390625 c 0
 369.604492188 173.975585938 364.362304688 152.8671875 358.6953125 130.200195312 c 1
 380.795898438 140.400390625 400.345703125 152.8671875 417.345703125 167.600585938 c 0
EndSplineSet
Validated: 524289
EndChar

StartChar: percent
Encoding: 37 37 12
Width: 570
VWidth: 899
GlyphClass: 2
Flags: HMW
HStem: 15.0433 85.8491<380.772 420.722 391.822 420.722> 184.192 83.3<444.522 445.37> 406.048 84.1458<245.049 283.871> 565.843 82.4558<292.371 339.684>
VStem: 311.072 83.2983<136.592 137.442 137.442 137.442> 325.522 86.6958 463.221 81.6017
LayerCount: 2
Fore
SplineSet
177.19140625 466.823242188 m 0xf6
 175.541015625 474.569335938 174.715820312 482.513671875 174.715820312 490.658203125 c 0
 174.715820312 500.686523438 175.966796875 511.016601562 178.46875 521.6484375 c 0
 178.46875 522.21484375 178.751953125 522.782226562 179.318359375 523.348632812 c 0
 187.818359375 559.048828125 204.676757812 588.798828125 229.893554688 612.598632812 c 0
 255.110351562 636.399414062 286.418945312 648.298828125 323.818359375 648.298828125 c 0
 355.551757812 648.298828125 379.918945312 638.098632812 396.918945312 617.69921875 c 0
 405.985351562 606.932617188 411.0859375 593.048828125 412.21875 576.048828125 c 0
 412.470703125 573.02734375 412.595703125 569.921875 412.595703125 566.733398438 c 0
 412.595703125 555.56640625 411.053710938 543.372070312 407.967773438 530.149414062 c 0
 397.767578125 487.08203125 379.067382812 455.065429688 351.868164062 434.098632812 c 0
 327.500976562 415.3984375 295.483398438 406.047851562 255.81640625 406.047851562 c 0
 234.284179688 406.047851562 216.716796875 411.856445312 203.1171875 423.473632812 c 0
 189.516601562 435.08984375 180.875 449.540039062 177.19140625 466.823242188 c 0xf6
99.4189453125 10.7978515625 m 0
 93.185546875 14.1982421875 88.3720703125 18.4443359375 84.9716796875 23.5439453125 c 0
 81.0048828125 30.34375 80.1552734375 38.4189453125 82.421875 47.76953125 c 0
 84.6884765625 57.119140625 89.7890625 67.1767578125 97.7216796875 77.9443359375 c 0
 114.155273438 101.744140625 151.837890625 151.327148438 210.771484375 226.694335938 c 0
 335.4375 378.561523438 397.771484375 454.778320312 397.771484375 455.344726562 c 0
 460.104492188 531.844726562 502.88671875 586.811523438 526.120117188 620.245117188 c 0
 537.453125 632.14453125 550.203125 639.794921875 564.370117188 643.1953125 c 2
 576.270507812 644.89453125 l 2
 584.770507812 644.89453125 592.13671875 642.627929688 598.370117188 638.094726562 c 0
 608.598632812 632.173828125 613.712890625 623.951171875 613.712890625 613.427734375 c 0
 613.712890625 609.732421875 613.303710938 607.36328125 612.8203125 604.9453125 c 0
 610.553710938 595.3125 604.88671875 584.830078125 595.819335938 573.497070312 c 0
 568.619140625 540.063476562 499.76953125 454.780273438 389.26953125 317.647460938 c 0
 278.202148438 180.514648438 204.53515625 87.8642578125 168.268554688 39.697265625 c 0
 151.120117188 17.017578125 134.51171875 5.677734375 118.444335938 5.677734375 c 0
 118.051757812 5.677734375 117.66015625 5.6845703125 117.268554688 5.6982421875 c 0
 111.03515625 5.6982421875 105.0859375 7.3984375 99.4189453125 10.7978515625 c 0
323.396484375 556.918945312 m 0
 318.580078125 562.869140625 309.938476562 565.84375 297.471679688 565.84375 c 0
 287.271484375 565.84375 279.338867188 562.7265625 273.671875 556.493164062 c 0
 266.3046875 549.125976562 260.354492188 538.926757812 255.822265625 525.893554688 c 0
 255.822265625 524.759765625 255.5390625 523.626953125 254.971679688 522.494140625 c 0
 252.705078125 512.293945312 253.129882812 504.64453125 256.247070312 499.543945312 c 0
 259.364257812 494.444335938 268.2890625 491.327148438 283.021484375 490.194335938 c 2
 283.872070312 490.194335938 l 2
 294.072265625 490.194335938 302.2890625 493.02734375 308.521484375 498.694335938 c 0
 315.888671875 505.494140625 321.555664062 514.561523438 325.522460938 525.89453125 c 0
 325.522460938 526.4609375 325.805664062 527.311523438 326.373046875 528.444335938 c 0
 327.421875 533.270507812 327.946289062 537.611328125 327.946289062 541.466796875 c 0
 327.946289062 548.021484375 326.4296875 553.172851562 323.396484375 556.918945312 c 0
309.797851562 77.943359375 m 0
 307.866210938 86.185546875 306.900390625 94.662109375 306.900390625 103.373046875 c 0
 306.900390625 113.825195312 308.291015625 124.615234375 311.072265625 135.7421875 c 1
 311.072265625 137.442382812 l 1xfa
 319.572265625 174.842773438 337.422851562 205.8671875 364.623046875 230.517578125 c 0
 391.822265625 255.166992188 424.97265625 267.4921875 464.072265625 267.4921875 c 0
 494.10546875 267.4921875 516.772460938 257.009765625 532.072265625 236.041992188 c 0
 540.005859375 224.708984375 544.255859375 209.9765625 544.822265625 191.84375 c 0
 544.893554688 190.142578125 544.928710938 188.419921875 544.928710938 186.674804688 c 0
 544.928710938 174.465820312 543.193359375 161.171875 539.72265625 146.79296875 c 0
 538.58984375 141.125976562 537.172851562 135.458984375 535.47265625 129.791992188 c 0
 525.272460938 92.958984375 508.697265625 64.6259765625 485.748046875 44.79296875 c 0
 462.797851562 24.9599609375 432.905273438 15.04296875 396.072265625 15.04296875 c 2
 391.822265625 15.04296875 l 2
 369.72265625 15.04296875 351.58984375 20.9931640625 337.422851562 32.8935546875 c 0
 323.255859375 44.79296875 314.047851562 59.810546875 309.797851562 77.943359375 c 0
420.72265625 100.892578125 m 2
 423.270507812 100.891601562 l 2
 432.903320312 100.891601562 440.553710938 103.724609375 446.219726562 109.391601562 c 0
 453.586914062 116.758789062 459.25390625 126.67578125 463.220703125 139.142578125 c 1
 463.220703125 141.692382812 l 2
 464.794921875 149.247070312 465.58203125 155.752929688 465.58203125 161.208984375 c 0
 465.58203125 165.575195312 465.078125 169.26953125 464.0703125 172.291992188 c 0
 460.669921875 180.225585938 452.169921875 184.192382812 438.5703125 184.192382812 c 0
 428.370117188 184.192382812 419.870117188 180.509765625 413.0703125 173.142578125 c 0
 405.13671875 164.642578125 398.904296875 153.309570312 394.37109375 139.142578125 c 1
 394.37109375 136.592773438 l 2
 391.538085938 125.259765625 391.6796875 116.6171875 394.796875 110.666992188 c 0
 397.9140625 104.717773438 406.555664062 101.458984375 420.72265625 100.892578125 c 2
EndSplineSet
Validated: 524289
EndChar

StartChar: ampersand
Encoding: 38 38 13
Width: 570
VWidth: 901
GlyphClass: 2
Flags: HMW
HStem: 5.25283 100.299<222.57 268.187> 589.201 87.5508<399.369 437.054>
LayerCount: 2
Fore
SplineSet
499.38671875 60.5 m 0
 498.8203125 57.6669921875 497.969726562 54.55078125 496.836914062 51.1513671875 c 0
 490.603515625 31.318359375 481.25390625 18.28515625 468.787109375 12.0517578125 c 0
 458.020507812 8.0849609375 451.219726562 6.1015625 448.38671875 6.1015625 c 2
 447.537109375 6.1015625 l 2
 440.737304688 6.1015625 433.936523438 8.369140625 427.13671875 12.90234375 c 0
 415.237304688 20.2685546875 406.737304688 33.0185546875 401.63671875 51.15234375 c 0
 401.0703125 53.9853515625 400.078125 60.3603515625 398.661132812 70.27734375 c 2
 395.686523438 91.1015625 l 1
 388.885742188 83.7353515625 383.64453125 78.2099609375 379.9609375 74.52734375 c 0
 376.278320312 70.84375 370.469726562 65.4609375 362.537109375 58.3779296875 c 0
 354.603515625 51.294921875 347.946289062 45.76953125 342.5625 41.802734375 c 0
 337.1796875 37.8359375 329.955078125 33.1611328125 320.887695312 27.7783203125 c 0
 311.821289062 22.39453125 303.321289062 18.427734375 295.387695312 15.8779296875 c 0
 287.455078125 13.328125 278.529296875 10.919921875 268.61328125 8.6533203125 c 0
 258.696289062 6.3857421875 248.637695312 5.2529296875 238.4375 5.2529296875 c 0
 206.705078125 5.2529296875 179.9296875 13.89453125 158.11328125 31.177734375 c 0
 136.295898438 48.4609375 121.420898438 71.2685546875 113.48828125 99.6015625 c 0
 109.375 114.29296875 107.318359375 129.592773438 107.318359375 145.502929688 c 0
 107.318359375 160.276367188 109.091796875 175.576171875 112.638671875 191.40234375 c 0
 123.971679688 240.702148438 142.388671875 282.918945312 167.888671875 318.051757812 c 0
 197.35546875 359.418945312 235.888671875 391.71875 283.48828125 414.952148438 c 1
 274.98828125 438.327148438 l 2
 271.588867188 447.676757812 269.0390625 454.90234375 267.338867188 460.001953125 c 0
 265.638671875 465.1015625 263.796875 471.759765625 261.813476562 479.9765625 c 0
 259.831054688 488.194335938 258.838867188 495.418945312 258.838867188 501.65234375 c 0
 258.838867188 518.65234375 260.821289062 535.369140625 264.7890625 551.801757812 c 0
 267.055664062 562.569335938 270.880859375 573.4765625 276.263671875 584.52734375 c 0
 281.646484375 595.577148438 289.013671875 606.768554688 298.36328125 618.1015625 c 0
 307.713867188 629.435546875 318.48046875 639.3515625 330.6640625 647.8515625 c 0
 342.846679688 656.3515625 357.438476562 663.293945312 374.438476562 668.676757812 c 0
 391.438476562 674.060546875 409.571289062 676.751953125 428.838867188 676.751953125 c 0
 445.271484375 676.751953125 460.713867188 673.918945312 475.1640625 668.251953125 c 0
 489.61328125 662.584960938 502.221679688 654.509765625 512.98828125 644.02734375 c 0
 523.755859375 633.543945312 530.98046875 619.518554688 534.6640625 601.952148438 c 0
 536.208007812 594.584960938 536.98046875 586.869140625 536.98046875 578.805664062 c 0
 536.98046875 567.639648438 535.5 555.8046875 532.5390625 543.301757812 c 0
 528.005859375 524.03515625 521.630859375 506.04296875 513.4140625 489.326171875 c 0
 505.196289062 472.609375 496.271484375 458.583984375 486.638671875 447.250976562 c 0
 477.005859375 435.91796875 465.672851562 425.29296875 452.639648438 415.375976562 c 0
 439.606445312 405.458984375 428.698242188 397.951171875 419.915039062 392.8515625 c 0
 411.131835938 387.750976562 402.490234375 383.217773438 393.990234375 379.250976562 c 1
 399.657226562 362.250976562 408.157226562 340.859375 419.490234375 315.076171875 c 0
 430.823242188 289.29296875 438.756835938 270.16796875 443.2890625 257.701171875 c 1
 445.556640625 261.1015625 448.956054688 266.342773438 453.489257812 273.42578125 c 0
 458.022460938 280.508789062 462.555664062 287.451171875 467.088867188 294.250976562 c 0
 471.622070312 301.05078125 475.3046875 306.151367188 478.137695312 309.55078125 c 0
 492.3046875 326.55078125 505.337890625 337.034179688 517.23828125 341.000976562 c 0
 521.770507812 342.701171875 526.303710938 343.55078125 530.836914062 343.55078125 c 0
 538.204101562 343.55078125 545.287109375 341.568359375 552.086914062 337.6015625 c 0
 561.829101562 331.961914062 566.69921875 322.37890625 566.69921875 308.852539062 c 0
 566.69921875 307.428710938 566.645507812 305.961914062 566.538085938 304.451171875 c 0
 566.538085938 301.05078125 565.970703125 297.651367188 564.837890625 294.250976562 c 0
 562.004882812 282.3515625 556.0546875 269.883789062 546.98828125 256.8515625 c 0
 543.020507812 251.184570312 532.821289062 239.9921875 516.387695312 223.275390625 c 0
 499.955078125 206.55859375 486.354492188 191.68359375 475.587890625 178.650390625 c 1
 478.98828125 168.450195312 483.379882812 154.142578125 488.762695312 135.725585938 c 0
 494.145507812 117.30859375 497.404296875 106.400390625 498.537109375 103 c 0
 500.672851562 95.677734375 501.741210938 88.1904296875 501.741210938 80.5390625 c 0
 501.741210938 73.9794921875 500.956054688 67.30078125 499.38671875 60.5 c 0
355.737304688 537.3515625 m 0
 354.3203125 531.118164062 353.612304688 524.6015625 353.612304688 517.801757812 c 0
 353.612304688 511.001953125 354.3203125 503.918945312 355.737304688 496.551757812 c 0
 358.5703125 481.819335938 362.537109375 469.069335938 367.63671875 458.301757812 c 1
 377.270507812 461.134765625 385.770507812 464.393554688 393.13671875 468.076171875 c 0
 400.50390625 471.758789062 408.01171875 476.434570312 415.662109375 482.1015625 c 0
 423.311523438 487.768554688 429.544921875 494.8515625 434.362304688 503.3515625 c 0
 439.178710938 511.8515625 443.00390625 522.333984375 445.836914062 534.80078125 c 0
 447.19140625 540.799804688 447.869140625 546.319335938 447.869140625 551.359375 c 0
 447.869140625 561.080078125 445.349609375 569.018554688 440.311523438 575.17578125 c 0
 432.662109375 584.526367188 421.469726562 589.201171875 406.737304688 589.201171875 c 0
 392.00390625 589.201171875 380.38671875 584.383789062 371.88671875 574.750976562 c 0
 365.086914062 566.250976562 359.704101562 553.784179688 355.737304688 537.3515625 c 0
212.936523438 199.051757812 m 0
 210.444335938 188.172851562 209.197265625 178.063476562 209.197265625 168.725585938 c 0
 209.197265625 154.716796875 212.002929688 142.442382812 217.61328125 131.90234375 c 0
 226.962890625 114.334960938 241.837890625 105.551757812 262.23828125 105.551757812 c 0
 274.137695312 105.551757812 286.887695312 107.819335938 300.48828125 112.3515625 c 0
 305.020507812 113.485351562 310.262695312 116.03515625 316.212890625 120.001953125 c 2
 330.23828125 129.3515625 l 2
 333.637695312 131.619140625 337.887695312 135.301757812 342.98828125 140.40234375 c 0
 348.087890625 145.501953125 351.770507812 149.043945312 354.038085938 151.02734375 c 0
 356.3046875 153.009765625 359.137695312 156.126953125 362.538085938 160.376953125 c 0
 365.9375 164.626953125 368.205078125 167.319335938 369.337890625 168.452148438 c 0
 365.9375 185.452148438 362.538085938 200.751953125 359.137695312 214.3515625 c 0
 355.73828125 227.384765625 348.512695312 247.360351562 337.462890625 274.27734375 c 0
 326.413085938 301.194335938 318.337890625 321.452148438 313.23828125 335.051757812 c 1
 300.205078125 328.819335938 288.3046875 321.452148438 277.538085938 312.952148438 c 0
 265.071289062 302.751953125 254.728515625 291.702148438 246.51171875 279.801757812 c 0
 238.294921875 267.90234375 231.495117188 255.435546875 226.112304688 242.40234375 c 0
 220.728515625 229.369140625 216.336914062 214.918945312 212.936523438 199.051757812 c 0
EndSplineSet
Validated: 524289
EndChar

StartChar: quotesingle
Encoding: 39 39 14
Width: 570
VWidth: 941
GlyphClass: 2
Flags: W
HStem: 460.326 298.349<402.368 429.672>
LayerCount: 2
Fore
SplineSet
494.640625 710.224609375 m 0
 492.940429688 702.858398438 490.390625 691.3828125 486.990234375 675.799804688 c 0
 483.58984375 660.216796875 477.922851562 636.55859375 469.990234375 604.826171875 c 0
 457.5234375 555.526367188 447.890625 521.526367188 441.08984375 502.826171875 c 0
 435.990234375 488.092773438 427.490234375 477.04296875 415.58984375 469.67578125 c 0
 405.390625 463.442382812 395.473632812 460.326171875 385.83984375 460.326171875 c 0
 372.240234375 460.326171875 360.907226562 464.576171875 351.83984375 473.076171875 c 0
 346.287109375 478.62890625 343.510742188 485.571289062 343.510742188 493.901367188 c 0
 343.510742188 497.470703125 344.020507812 501.295898438 345.040039062 505.375976562 c 0
 345.040039062 507.076171875 345.607421875 508.776367188 346.740234375 510.475585938 c 0
 353.540039062 533.142578125 359.7734375 558.642578125 365.440429688 586.975585938 c 0
 374.506835938 627.208984375 383.57421875 669.42578125 392.640625 713.625976562 c 1
 392.640625 716.17578125 l 2
 394.340820312 724.109375 397.741210938 731.192382812 402.840820312 737.424804688 c 0
 408.5078125 744.791992188 415.025390625 749.891601562 422.391601562 752.724609375 c 0
 432.591796875 756.692382812 442.791992188 758.674804688 452.9921875 758.674804688 c 0
 460.924804688 758.674804688 467.158203125 757.825195312 471.69140625 756.125 c 0
 476.224609375 754.424804688 480.756835938 752.158203125 485.290039062 749.325195312 c 0
 490.390625 745.924804688 493.6484375 740.68359375 495.065429688 733.599609375 c 0
 496.482421875 726.516601562 496.33984375 718.724609375 494.640625 710.224609375 c 0
EndSplineSet
Validated: 524289
EndChar

StartChar: parenleft
Encoding: 40 40 15
Width: 570
VWidth: 901
GlyphClass: 2
Flags: HMW
HStem: -71.25 92.65<331.189 377.652> 664 89.25<512.806 547.655>
LayerCount: 2
Fore
SplineSet
400.885742188 -27.900390625 m 0
 398.052734375 -40.3671875 391.256835938 -50.7080078125 380.489257812 -58.9248046875 c 0
 369.72265625 -67.1416015625 359.522460938 -71.25 349.889648438 -71.25 c 0
 312.489257812 -71.25 281.889648438 -56.7998046875 258.08984375 -27.900390625 c 0
 234.2890625 1 218.84765625 40.099609375 211.764648438 89.400390625 c 0
 208.658203125 111.021484375 207.104492188 134.060546875 207.104492188 158.516601562 c 0
 207.104492188 189.823242188 209.650390625 223.450195312 214.740234375 259.400390625 c 0
 217.006835938 276.966796875 221.256835938 298.924804688 227.490234375 325.275390625 c 0
 233.723632812 352.192382812 242.790039062 384.916992188 254.690429688 423.450195312 c 0
 275.657226562 490.8828125 298.890625 546.1328125 324.390625 589.200195312 c 0
 335.723632812 609.033203125 349.606445312 628.299804688 366.0390625 647 c 0
 382.47265625 665.700195312 400.0390625 683.125 418.739257812 699.275390625 c 0
 437.439453125 715.424804688 457.697265625 728.458007812 479.514648438 738.375 c 0
 501.331054688 748.291992188 521.58984375 753.25 540.2890625 753.25 c 0
 555.022460938 753.25 564.939453125 748.432617188 570.0390625 738.799804688 c 0
 572.353515625 734.501953125 573.510742188 729.240234375 573.510742188 723.014648438 c 0
 573.510742188 718.568359375 572.920898438 713.629882812 571.740234375 708.200195312 c 0
 568.33984375 692.900390625 561.256835938 681.567382812 550.490234375 674.200195312 c 0
 540.857421875 667.400390625 530.232421875 664 518.615234375 664 c 0
 506.998046875 664 494.956054688 660.174804688 482.489257812 652.525390625 c 0
 470.022460938 644.875 458.122070312 633.966796875 446.7890625 619.799804688 c 0
 423.556640625 592.599609375 403.15625 558.8828125 385.58984375 518.650390625 c 0
 371.989257812 488.6171875 358.106445312 448.950195312 343.939453125 399.650390625 c 0
 336.572265625 373.583007812 330.48046875 350.208007812 325.6640625 329.525390625 c 0
 320.846679688 308.841796875 317.3046875 290.567382812 315.038085938 274.700195312 c 0
 310.666015625 245.557617188 308.48046875 217.142578125 308.48046875 189.45703125 c 0
 308.48046875 184.842773438 308.541015625 180.249023438 308.663085938 175.674804688 c 0
 309.512695312 143.658203125 313.0546875 116.458007812 319.288085938 94.0751953125 c 0
 325.520507812 71.6923828125 333.454101562 53.7001953125 343.086914062 40.099609375 c 0
 352.154296875 28.2001953125 361.50390625 21.966796875 371.13671875 21.400390625 c 0
 384.169921875 21.400390625 393.377929688 17.716796875 398.760742188 10.349609375 c 0
 401.860351562 6.1083984375 403.41015625 0.0830078125 403.41015625 -7.7265625 c 0
 403.41015625 -13.482421875 402.568359375 -20.20703125 400.885742188 -27.900390625 c 0
EndSplineSet
Validated: 524289
EndChar

StartChar: parenright
Encoding: 41 41 16
Width: 570
VWidth: 901
GlyphClass: 2
Flags: HMW
HStem: -71.25 92.6483<196.238 200.205> 664 89.25<346.122 380.688>
VStem: 418.655 92.6491
LayerCount: 2
Fore
SplineSet
181.505859375 -71.25 m 0
 171.872070312 -71.25 163.373046875 -67.14453125 156.005859375 -58.927734375 c 0
 150.685546875 -52.9931640625 148.025390625 -45.94921875 148.025390625 -37.7978515625 c 0
 148.025390625 -34.6630859375 148.418945312 -31.3642578125 149.205078125 -27.9013671875 c 0
 153.171875 -9.7685546875 159.830078125 2.9814453125 169.180664062 10.3486328125 c 0
 178.530273438 17.71484375 189.72265625 21.3984375 202.755859375 21.3984375 c 0
 212.388671875 21.3984375 224.571289062 27.6318359375 239.3046875 40.0986328125 c 0
 255.171875 53.6982421875 271.321289062 71.6904296875 287.754882812 94.0732421875 c 0
 304.1875 116.456054688 320.337890625 143.798828125 336.204101562 176.098632812 c 0
 352.071289062 208.3984375 365.388671875 241.265625 376.155273438 274.698242188 c 0
 381.255859375 291.698242188 386.072265625 310.256835938 390.60546875 330.373046875 c 0
 395.138671875 350.490234375 399.955078125 373.58203125 405.055664062 399.649414062 c 0
 414.122070312 449.515625 418.655273438 489.182617188 418.655273438 518.650390625 c 0
 418.68359375 520.633789062 418.698242188 522.604492188 418.698242188 524.560546875 c 0
 418.698242188 561.704101562 413.583984375 593.734375 403.35546875 620.650390625 c 0
 398.255859375 634.25 391.313476562 644.875 382.530273438 652.525390625 c 0
 373.747070312 660.174804688 363.546875 664 351.930664062 664 c 0
 340.313476562 664 331.10546875 667.400390625 324.305664062 674.200195312 c 0
 319.264648438 679.240234375 316.745117188 686.137695312 316.745117188 694.891601562 c 0
 316.745117188 698.932617188 317.28125 703.368164062 318.35546875 708.200195312 c 0
 320.055664062 716.700195312 323.171875 724.349609375 327.705078125 731.150390625 c 0
 332.23828125 737.950195312 337.62109375 743.049804688 343.854492188 746.450195312 c 0
 352.354492188 750.983398438 361.421875 753.25 371.0546875 753.25 c 0
 390.321289062 753.25 408.454101562 748.291992188 425.454101562 738.375 c 0
 442.454101562 728.458007812 456.62109375 715.424804688 467.954101562 699.275390625 c 0
 479.288085938 683.125 488.779296875 665.700195312 496.4296875 647 c 0
 504.079101562 628.299804688 509.038085938 609.033203125 511.3046875 589.200195312 c 0
 513.0703125 574.096679688 513.952148438 557.6015625 513.952148438 539.713867188 c 0
 513.952148438 505.92578125 510.802734375 467.170898438 504.504882812 423.450195312 c 0
 498.837890625 384.349609375 492.887695312 351.625 486.654296875 325.275390625 c 0
 480.421875 298.924804688 474.471679688 276.966796875 468.8046875 259.400390625 c 0
 448.404296875 195.3671875 423.1875 138.700195312 393.154296875 89.400390625 c 0
 363.12109375 40.099609375 329.688476562 1 292.85546875 -27.900390625 c 0
 256.022460938 -56.7998046875 218.905273438 -71.25 181.505859375 -71.25 c 0
EndSplineSet
Validated: 524289
EndChar

StartChar: asterisk
Encoding: 42 42 17
Width: 570
VWidth: 902
GlyphClass: 2
Flags: HMW
HStem: 290.901 108.799<184 214.601> 297.7 101.151<519.183 544.399> 301.95 85.8509
LayerCount: 2
Fore
SplineSet
245.200195312 138.75 m 2x20
 237.548828125 138.750976562 l 2
 234.149414062 138.750976562 229.7578125 139.317382812 224.374023438 140.451171875 c 0
 218.991210938 141.583984375 214.033203125 143.9921875 209.5 147.674804688 c 0
 204.966796875 151.358398438 201.284179688 156.458007812 198.451171875 162.974609375 c 0
 195.618164062 169.4921875 194.767578125 177.284179688 195.901367188 186.350585938 c 0
 195.901367188 188.05078125 196.18359375 190.317382812 196.750976562 193.151367188 c 0
 198.451171875 202.217773438 202.701171875 210.717773438 209.500976562 218.651367188 c 2
 269.850585938 294.30078125 l 1
 235.284179688 292.034179688 209.216796875 290.901367188 191.650390625 290.901367188 c 0
 176.350585938 290.901367188 165.299804688 296.567382812 158.5 307.901367188 c 0
 154.452148438 315.186523438 152.428710938 323.338867188 152.428710938 332.359375 c 0
 152.428710938 335.967773438 152.751953125 339.71484375 153.400390625 343.600585938 c 2
 153.400390625 346.151367188 l 2
 155.666992188 357.484375 161.333984375 368.817382812 170.401367188 380.150390625 c 0
 175.500976562 386.950195312 182.30078125 392.049804688 190.80078125 395.450195312 c 0
 197.034179688 398.283203125 203.833984375 399.700195312 211.201171875 399.700195312 c 2
 214.600585938 399.700195312 l 1
 215.451171875 399.700195312 l 2x80
 236.41796875 398 265.318359375 395.733398438 302.151367188 392.900390625 c 1
 291.383789062 425.766601562 282.034179688 451.549804688 274.100585938 470.25 c 0
 271.311523438 477.921875 269.916992188 485.701171875 269.916992188 493.587890625 c 0
 269.916992188 498.516601562 270.4609375 503.487304688 271.55078125 508.5 c 0
 272.118164062 510.766601562 272.967773438 513.034179688 274.100585938 515.30078125 c 0
 279.767578125 531.16796875 288.55078125 542.217773438 300.451171875 548.451171875 c 0
 308.383789062 552.984375 316.7421875 555.250976562 325.525390625 555.250976562 c 0
 334.30859375 555.250976562 342.3828125 552.701171875 349.75 547.600585938 c 0
 357.68359375 541.93359375 362.783203125 533.43359375 365.049804688 522.100585938 c 0
 367.317382812 510.201171875 373.833984375 483.284179688 384.600585938 441.350585938 c 1
 407.267578125 470.817382812 426.250976562 497.451171875 441.55078125 521.250976562 c 0
 448.91796875 532.017578125 457.41796875 540.092773438 467.05078125 545.475585938 c 0
 476.68359375 550.859375 485.466796875 553.55078125 493.400390625 553.55078125 c 0
 501.900390625 553.55078125 508.983398438 551.284179688 514.650390625 546.750976562 c 0
 520.317382812 543.350585938 524.424804688 537.68359375 526.975585938 529.750976562 c 0
 528.325195312 525.55078125 529 521.033203125 529 516.197265625 c 0
 529 511.899414062 528.466796875 507.350585938 527.400390625 502.55078125 c 0
 525.1328125 491.217773438 519.465820312 480.734375 510.399414062 471.1015625 c 0
 490.56640625 448.434570312 468.749023438 420.66796875 444.94921875 387.80078125 c 1x20
 481.782226562 388.368164062 508.415039062 391.201171875 524.848632812 396.30078125 c 0
 532.215820312 398.000976562 537.032226562 398.850585938 539.298828125 398.850585938 c 0x40
 549.499023438 398.850585938 557.432617188 395.16796875 563.099609375 387.80078125 c 0x20
 569.474609375 379.725585938 572.662109375 371.171875 572.662109375 362.140625 c 0
 572.662109375 359.129882812 572.307617188 356.06640625 571.599609375 352.950195312 c 0
 568.766601562 340.483398438 563.099609375 328.583007812 554.599609375 317.25 c 0
 549.499023438 310.450195312 543.266601562 305.067382812 535.899414062 301.099609375 c 0
 530.798828125 298.833007812 525.69921875 297.700195312 520.599609375 297.700195312 c 0x40
 517.766601562 297.700195312 514.93359375 297.983398438 512.100585938 298.549804688 c 0
 499.6328125 300.817382812 476.68359375 301.950195312 443.25 301.950195312 c 2
 425.400390625 301.950195312 l 1
 451.75 218.650390625 l 2
 453.32421875 211.724609375 454.110351562 205.149414062 454.110351562 198.923828125 c 0
 454.110351562 193.94140625 453.607421875 189.18359375 452.599609375 184.650390625 c 0
 452.032226562 182.3828125 451.182617188 180.116210938 450.048828125 177.849609375 c 0
 445.516601562 164.81640625 437.866210938 155.18359375 427.099609375 148.950195312 c 0
 418.032226562 143.849609375 408.115234375 141.299804688 397.348632812 141.299804688 c 0
 388.848632812 141.299804688 380.915039062 143.283203125 373.548828125 147.25 c 0
 363.915039062 152.349609375 358.815429688 160.849609375 358.248046875 172.75 c 0
 357.115234375 191.450195312 352.298828125 217.516601562 343.798828125 250.950195312 c 1
 314.8984375 209.016601562 296.198242188 180.966796875 287.698242188 166.799804688 c 0
 283.165039062 157.733398438 276.932617188 150.93359375 268.999023438 146.400390625 c 0
 261.06640625 141.8671875 253.1328125 139.317382812 245.200195312 138.75 c 2x20
EndSplineSet
Validated: 524289
EndChar

StartChar: plus
Encoding: 43 43 18
Width: 570
VWidth: 909
GlyphClass: 2
Flags: HMW
HStem: 354.025 90.1<479.913 485.013 479.913 479.913>
LayerCount: 2
Fore
SplineSet
403.416015625 355.724609375 m 1
 384.71875 272.424804688 l 2
 380.750976562 255.9921875 374.375976562 244.375 365.59375 237.575195312 c 0
 356.810546875 230.775390625 346.751953125 226.807617188 335.418945312 225.674804688 c 2
 334.569335938 225.674804688 l 2
 322.102539062 225.674804688 312.751953125 229.075195312 306.51953125 235.875 c 0
 301.470703125 240.923828125 298.946289062 247.692382812 298.946289062 256.18359375 c 0
 298.946289062 261.03515625 299.770507812 266.448242188 301.418945312 272.423828125 c 2
 320.119140625 353.173828125 l 1
 249.569335938 352.32421875 l 2
 233.702148438 352.32421875 222.793945312 356.857421875 216.84375 365.923828125 c 0
 212.813476562 372.06640625 210.797851562 378.98828125 210.797851562 386.69140625 c 0
 210.797851562 390.358398438 211.254882812 394.203125 212.168945312 398.224609375 c 0
 212.168945312 398.791992188 212.452148438 399.924804688 213.01953125 401.625 c 0
 215.852539062 413.525390625 222.084960938 424.0078125 231.71875 433.075195312 c 0
 241.3515625 442.141601562 253.534179688 446.674804688 268.267578125 446.674804688 c 0
 269.400390625 446.674804688 277.758789062 446.533203125 293.341796875 446.25 c 0
 308.924804688 445.966796875 324.932617188 445.541992188 341.366210938 444.974609375 c 1
 348.732421875 478.408203125 354.399414062 506.741210938 358.366210938 529.974609375 c 0
 361.766601562 545.840820312 369.416992188 557.458007812 381.31640625 564.825195312 c 0
 389.81640625 570.4921875 400.016601562 573.325195312 411.916992188 573.325195312 c 2
 415.31640625 573.325195312 l 2
 426.649414062 573.325195312 435.432617188 570.4921875 441.666015625 564.825195312 c 0
 446.454101562 560.405273438 448.848632812 554.189453125 448.848632812 546.178710938 c 0
 448.848632812 541.864257812 448.154296875 537.030273438 446.765625 531.674804688 c 0
 446.765625 529.974609375 446.482421875 528.275390625 445.916015625 526.575195312 c 0
 437.416015625 497.674804688 430.333007812 470.192382812 424.666015625 444.125 c 1
 502.015625 444.125 l 2
 517.315429688 444.125 527.232421875 440.158203125 531.765625 432.224609375 c 0
 534.788085938 426.936523438 536.298828125 420.766601562 536.298828125 413.71484375 c 0
 536.298828125 410.188476562 535.920898438 406.442382812 535.165039062 402.474609375 c 2
 535.165039062 401.625 l 2
 534.032226562 395.391601562 532.33203125 389.8671875 530.065429688 385.049804688 c 0
 527.797851562 380.233398438 524.680664062 375.275390625 520.713867188 370.174804688 c 0
 516.180664062 363.942382812 509.948242188 359.692382812 502.014648438 357.424804688 c 0
 496.915039062 355.724609375 491.248046875 354.591796875 485.014648438 354.025390625 c 2
 479.915039062 354.025390625 l 2
 471.981445312 354.591796875 460.6484375 355.016601562 445.916015625 355.299804688 c 0
 431.182617188 355.583007812 417.015625 355.724609375 403.416015625 355.724609375 c 1
EndSplineSet
Validated: 524289
EndChar

StartChar: comma
Encoding: 44 44 19
Width: 570
VWidth: 845
GlyphClass: 2
Flags: HMW
VStem: 157.806 237.998
LayerCount: 2
Fore
SplineSet
218.151367188 -194.424804688 m 0
 208.517578125 -197.825195312 200.587890625 -199.524414062 194.354492188 -199.524414062 c 0
 188.12109375 -199.524414062 183.021484375 -198.673828125 179.0546875 -196.973632812 c 0
 172.821289062 -194.70703125 167.579101562 -190.315429688 163.329101562 -183.797851562 c 0
 159.079101562 -177.28125 157.237304688 -169.206054688 157.8046875 -159.573242188 c 0
 157.8046875 -157.873046875 158.087890625 -156.172851562 158.654296875 -154.47265625 c 0
 160.354492188 -145.97265625 165.170898438 -137.47265625 173.104492188 -128.97265625 c 0
 187.271484375 -113.106445312 210.50390625 -76.556640625 242.8046875 -19.3232421875 c 0
 275.104492188 37.34375 295.787109375 77.2939453125 304.854492188 100.52734375 c 0
 309.387695312 110.7265625 316.1875 118.801757812 325.25390625 124.751953125 c 0
 334.321289062 130.702148438 343.104492188 133.676757812 351.604492188 133.676757812 c 0
 352.170898438 133.676757812 353.021484375 133.959960938 354.154296875 134.52734375 c 0
 360.387695312 134.52734375 366.620117188 133.676757812 372.853515625 131.9765625 c 0
 382.486328125 128.577148438 389.569335938 122.059570312 394.102539062 112.426757812 c 0
 396.142578125 107.666992188 397.163085938 102.397460938 397.163085938 96.6171875 c 0
 397.163085938 92.763671875 396.709960938 88.68359375 395.802734375 84.376953125 c 0
 395.235351562 80.41015625 394.102539062 77.29296875 392.40234375 75.0263671875 c 0
 380.502929688 47.2587890625 359.252929688 3.9091796875 328.65234375 -55.0244140625 c 0
 297.485351562 -113.95703125 275.244140625 -150.506835938 261.926757812 -164.673828125 c 0
 248.610351562 -178.840820312 234.017578125 -188.7578125 218.151367188 -194.424804688 c 0
EndSplineSet
Validated: 524289
EndChar

StartChar: hyphen
Encoding: 45 45 20
Width: 570
VWidth: 893
GlyphClass: 2
Flags: HMW
HStem: 238.626 95.1991<243.3 284.95> 242.451 92.65
VStem: 216.383 266.051<285.375 294.726>
LayerCount: 2
Fore
SplineSet
269.934570312 333.825195312 m 0xa0
 299.967773438 333.825195312 335.810546875 334.250976562 377.4609375 335.100585938 c 0
 419.111328125 335.951171875 442.768554688 336.375976562 448.435546875 336.375976562 c 0
 463.736328125 336.375976562 473.793945312 332.409179688 478.611328125 324.475585938 c 0
 481.88671875 319.08203125 483.524414062 312.76953125 483.524414062 305.541015625 c 0
 483.524414062 302.139648438 483.161132812 298.534179688 482.435546875 294.725585938 c 1
 481.5859375 293.875976562 l 1
 478.752929688 280.276367188 473.65234375 269.79296875 466.286132812 262.42578125 c 0
 456.0859375 251.659179688 443.3359375 246.276367188 428.036132812 246.276367188 c 0
 421.236328125 246.276367188 394.4609375 245.000976562 347.7109375 242.451171875 c 0x60
 300.9609375 239.901367188 268.236328125 238.625976562 249.536132812 238.625976562 c 0
 237.069335938 238.625976562 228.001953125 242.026367188 222.334960938 248.826171875 c 0
 217.294921875 254.25390625 214.774414062 261.670898438 214.774414062 271.078125 c 0
 214.774414062 275.419921875 215.311523438 280.185546875 216.384765625 285.375 c 0
 216.384765625 286.5078125 216.66796875 287.924804688 217.235351562 289.625 c 0
 220.634765625 305.4921875 228.001953125 317.392578125 239.334960938 325.325195312 c 0
 247.834960938 330.9921875 258.03515625 333.825195312 269.934570312 333.825195312 c 0xa0
EndSplineSet
Validated: 524289
EndChar

StartChar: period
Encoding: 46 46 21
Width: 570
VWidth: 859
GlyphClass: 2
Flags: HMW
HStem: -12.6499 151.302<266.321 331.204 275.671 331.204>
VStem: 224.671 149.175
LayerCount: 2
Fore
SplineSet
275.670898438 -12.6494140625 m 2
 256.970703125 -12.6494140625 242.803710938 -5.849609375 233.170898438 7.75 c 0
 225.864257812 18.5166015625 222.211914062 30.4580078125 222.211914062 43.5732421875 c 0
 222.211914062 49.78515625 223.03125 56.26171875 224.670898438 63.0009765625 c 0
 229.770507812 83.9677734375 241.670898438 101.53515625 260.370117188 115.702148438 c 0
 280.770507812 131.001953125 301.028320312 138.651367188 321.145507812 138.651367188 c 0
 341.262695312 138.651367188 356.137695312 131.8515625 365.770507812 118.251953125 c 0
 372.69921875 108.62890625 376.163085938 97.4375 376.163085938 84.677734375 c 0
 376.163085938 78.6513671875 375.390625 72.2763671875 373.845703125 65.55078125 c 0
 369.028320312 44.583984375 358.403320312 27.017578125 341.970703125 12.8505859375 c 0
 325.537109375 -1.31640625 306.270507812 -9.81640625 284.170898438 -12.6494140625 c 2
 275.670898438 -12.6494140625 l 2
EndSplineSet
Validated: 524289
EndChar

StartChar: slash
Encoding: 47 47 22
Width: 570
VWidth: 901
GlyphClass: 2
Flags: HMW
HStem: 686.035 17G<596.643 605.143>
LayerCount: 2
Fore
SplineSet
135.94140625 -5.0146484375 m 0
 127.44140625 -8.4150390625 119.509765625 -10.2578125 112.143554688 -10.541015625 c 0
 104.776367188 -10.8232421875 98.54296875 -8.6982421875 93.443359375 -4.166015625 c 0
 86.189453125 1.2744140625 82.5634765625 10.703125 82.5634765625 24.12109375 c 0
 82.5634765625 27.4765625 82.7900390625 31.0810546875 83.2431640625 34.9345703125 c 0
 83.2431640625 37.767578125 83.810546875 40.884765625 84.943359375 44.2841796875 c 0
 88.34375 59.017578125 95.1435546875 73.1845703125 105.34375 86.7841796875 c 0
 213.576171875 222.784179688 307.359375 343.484375 386.692382812 448.884765625 c 0
 435.9921875 513.484375 489.259765625 587.151367188 546.4921875 669.884765625 c 0
 553.859375 680.651367188 562.642578125 688.868164062 572.842773438 694.53515625 c 0
 583.041992188 700.202148438 592.392578125 703.03515625 600.892578125 703.03515625 c 0
 609.392578125 703.03515625 617.325195312 701.051757812 624.692382812 697.084960938 c 0
 635.458984375 690.28515625 641.125976562 680.084960938 641.693359375 666.485351562 c 0
 641.693359375 662.518554688 641.125976562 658.268554688 639.993164062 653.735351562 c 0
 637.7265625 644.102539062 632.909179688 633.619140625 625.541992188 622.286132812 c 0
 605.142578125 592.819335938 550.17578125 521.561523438 460.642578125 408.510742188 c 0
 371.109375 295.4609375 316.142578125 225.3359375 295.7421875 198.135742188 c 0
 283.275390625 180.569335938 262.733398438 150.819335938 234.116210938 108.885742188 c 0
 205.5 66.953125 187.791992188 41.453125 180.991210938 32.3857421875 c 0
 167.391601562 14.8193359375 152.375 2.3525390625 135.94140625 -5.0146484375 c 0
EndSplineSet
Validated: 524289
EndChar

StartChar: zero
Encoding: 48 48 23
Width: 570
VWidth: 902
GlyphClass: 2
Flags: HMW
HStem: 31.65 91.7966<256.199 299.266> 572.247 90.1025<402.683 464.45>
LayerCount: 2
Fore
SplineSet
591.668945312 469.400390625 m 0
 591.102539062 467.1328125 591.1015625 466.849609375 591.66796875 468.548828125 c 1
 586.568359375 435.116210938 580.051757812 401.116210938 572.118164062 366.548828125 c 0
 564.185546875 331.982421875 555.259765625 297.982421875 545.342773438 264.548828125 c 0
 535.426757812 231.116210938 525.934570312 204.765625 516.8671875 185.499023438 c 0
 499.30078125 149.232421875 480.600585938 119.765625 460.767578125 97.0986328125 c 0
 451.134765625 85.765625 440.651367188 76.1318359375 429.318359375 68.19921875 c 0
 417.985351562 60.2666015625 406.935546875 54.033203125 396.16796875 49.5 c 0
 384.834960938 44.966796875 372.084960938 41 357.91796875 37.599609375 c 0
 343.750976562 34.7666015625 330.009765625 33.0673828125 316.692382812 32.5 c 0
 303.375 31.9326171875 287.93359375 31.650390625 270.366210938 31.650390625 c 0
 242.033203125 31.650390625 216.81640625 36.466796875 194.716796875 46.099609375 c 0
 174.31640625 55.7333984375 158.166992188 69.474609375 146.266601562 87.3251953125 c 0
 134.366210938 105.174804688 127.141601562 126.567382812 124.591796875 151.5 c 0
 123.896484375 158.299804688 123.548828125 165.247070312 123.548828125 172.342773438 c 0
 123.548828125 191.262695312 126.021484375 211.231445312 130.966796875 232.25 c 0
 130.966796875 233.950195312 131.25 235.650390625 131.81640625 237.349609375 c 0
 138.049804688 264.549804688 144 290.6171875 149.666992188 315.549804688 c 0
 153.633789062 333.1171875 158.875 354.650390625 165.392578125 380.150390625 c 0
 171.909179688 405.650390625 178.000976562 426.7578125 183.66796875 443.474609375 c 0
 189.334960938 460.192382812 196.41796875 478.18359375 204.91796875 497.451171875 c 0
 213.41796875 517.284179688 221.91796875 534.567382812 230.41796875 549.299804688 c 0
 252.518554688 586.1328125 281.985351562 614.182617188 318.818359375 633.450195312 c 0
 358.485351562 652.716796875 402.967773438 662.349609375 452.268554688 662.349609375 c 0
 476.634765625 662.349609375 498.735351562 658.3828125 518.568359375 650.450195312 c 0
 537.834960938 642.516601562 553.702148438 630.6171875 566.168945312 614.75 c 0
 578.635742188 598.8828125 587.135742188 578.625 591.668945312 553.974609375 c 0
 593.935546875 541.650390625 595.068359375 528.439453125 595.068359375 514.34375 c 0
 595.068359375 500.248046875 593.935546875 485.266601562 591.668945312 469.400390625 c 0
459.91796875 562.048828125 m 0
 448.869140625 568.889648438 435.865234375 572.30859375 420.907226562 572.30859375 c 0
 419.755859375 572.30859375 418.592773438 572.288085938 417.41796875 572.247070312 c 0
 387.951171875 572.247070312 363.443359375 564.455078125 343.893554688 548.872070312 c 0
 324.342773438 533.2890625 305.78515625 506.797851562 288.217773438 469.397460938 c 0
 281.41796875 454.6640625 275.185546875 439.081054688 269.518554688 422.6484375 c 0
 264.41796875 406.21484375 259.6015625 386.948242188 255.068359375 364.848632812 c 0
 247.134765625 330.848632812 238.634765625 291.46484375 229.568359375 246.698242188 c 1
 320.235351562 340.765625 405.235351562 437.381835938 484.568359375 536.548828125 c 1
 478.334960938 547.31640625 470.118164062 555.81640625 459.91796875 562.048828125 c 0
493.91796875 441.34765625 m 1
 411.185546875 333.114257812 323.634765625 240.747070312 231.268554688 164.247070312 c 1
 239.201171875 137.61328125 259.318359375 124.013671875 291.618164062 123.446289062 c 0
 306.91796875 123.446289062 320.375976562 124.721679688 331.993164062 127.271484375 c 0
 343.610351562 129.821289062 355.084960938 133.9296875 366.41796875 139.596679688 c 0
 389.084960938 151.497070312 409.485351562 174.446289062 427.618164062 208.446289062 c 0
 431.018554688 215.247070312 437.53515625 233.379882812 447.16796875 262.846679688 c 0
 456.801757812 292.313476562 466.717773438 326.880859375 476.91796875 366.547851562 c 0
 483.717773438 392.614257812 489.384765625 417.547851562 493.91796875 441.34765625 c 1
EndSplineSet
Validated: 524289
EndChar

StartChar: one
Encoding: 49 49 24
Width: 570
VWidth: 904
GlyphClass: 2
Flags: HMW
HStem: 46.425 94.35 49.825 96.9<119.646 162.146>
LayerCount: 2
Fore
SplineSet
93.0166015625 82.125 m 0x40
 93.0166015625 86.375 93.8662109375 90.625 94.716796875 95.724609375 c 0
 94.716796875 96.5751953125 94.716796875 98.275390625 95.56640625 99.125 c 0
 98.1162109375 111.875 104.06640625 122.075195312 111.716796875 131.424804688 c 0
 121.916015625 141.625 134.666015625 146.724609375 150.81640625 146.724609375 c 0x40
 173.766601562 146.724609375 212.866210938 145.875 268.116210938 145.025390625 c 1
 272.366210938 161.174804688 274.916015625 175.625 276.616210938 187.525390625 c 0
 277.466796875 192.625 280.016601562 207.075195312 285.966796875 230.875 c 0
 291.06640625 252.125 295.31640625 269.974609375 299.56640625 284.424804688 c 2
 323.366210938 376.224609375 l 2
 346.31640625 462.075195312 359.916015625 512.224609375 364.166015625 526.674804688 c 1
 324.216796875 501.174804688 295.31640625 485.025390625 275.766601562 478.224609375 c 0
 268.966796875 476.525390625 264.716796875 475.674804688 262.166015625 475.674804688 c 0
 252.81640625 475.674804688 243.466796875 479.924804688 235.81640625 488.424804688 c 0
 228.166015625 496.924804688 223.916015625 506.275390625 223.916015625 514.775390625 c 0
 223.916015625 517.325195312 224.766601562 519.875 225.616210938 523.275390625 c 0
 228.166015625 534.325195312 232.416015625 544.525390625 239.216796875 553.025390625 c 0
 246.016601562 561.525390625 255.366210938 570.025390625 267.266601562 577.674804688 c 0
 285.116210938 589.575195312 308.06640625 605.724609375 337.81640625 625.275390625 c 1
 348.016601562 626.974609375 359.916015625 634.625 372.666015625 648.224609375 c 0
 382.866210938 655.025390625 393.916015625 660.974609375 404.966796875 666.924804688 c 0
 415.166015625 672.025390625 423.666015625 674.575195312 431.31640625 674.575195312 c 2
 433.866210938 674.575195312 l 2
 448.31640625 674.575195312 461.916015625 668.625 474.666015625 657.575195312 c 0
 481.466796875 651.625 485.716796875 645.674804688 488.266601562 640.575195312 c 0
 489.116210938 638.875 489.966796875 637.174804688 489.966796875 634.625 c 0
 489.966796875 625.275390625 483.166015625 600.625 453.416015625 490.974609375 c 0
 433.016601562 414.474609375 421.116210938 369.424804688 417.716796875 356.674804688 c 0
 404.966796875 303.974609375 395.616210938 259.775390625 387.966796875 224.075195312 c 2
 387.966796875 224.075195312 387.116210938 222.375 387.116210938 219.825195312 c 0
 382.866210938 201.125 377.766601562 174.775390625 370.966796875 141.625 c 1
 399.016601562 140.775390625 416.866210938 140.775390625 424.516601562 140.775390625 c 2
 454.266601562 140.775390625 l 2
 467.016601562 140.775390625 474.666015625 139.924804688 478.06640625 139.924804688 c 0
 495.916015625 139.924804688 506.966796875 136.525390625 512.916015625 128.025390625 c 0
 517.166015625 122.075195312 518.866210938 114.424804688 518.866210938 106.775390625 c 0
 518.866210938 103.375 518.866210938 99.974609375 518.016601562 96.5751953125 c 0
 518.016601562 95.724609375 518.016601562 94.875 517.166015625 94.025390625 c 0
 514.616210938 81.275390625 507.81640625 70.224609375 498.466796875 60.875 c 0
 488.266601562 51.525390625 473.81640625 46.4248046875 455.966796875 46.4248046875 c 0x80
 256.216796875 48.125 146.56640625 48.974609375 127.016601562 49.8251953125 c 0
 112.56640625 49.8251953125 102.366210938 54.0751953125 97.2666015625 63.4248046875 c 0
 94.716796875 69.375 93.0166015625 75.3251953125 93.0166015625 82.125 c 0x40
EndSplineSet
Validated: 524289
EndChar

StartChar: two
Encoding: 50 50 25
Width: 570
VWidth: 902
GlyphClass: 2
Flags: HMW
HStem: 35.6443 96.0542 42.4443 96.0551<461.242 461.242 461.242 466.337> 483.597 17.85G<250.153 252.986> 573.696 92.6509<426.105 434.037>
LayerCount: 2
Fore
SplineSet
461.241210938 138.499023438 m 1x70
 462.084960938 138.493164062 l 1
 469.452148438 145.860351562 474.834960938 146.143554688 478.235351562 139.34375 c 0
 479.934570312 139.34375 483.051757812 139.201171875 487.584960938 138.918945312 c 0
 492.118164062 138.635742188 495.517578125 137.78515625 497.78515625 136.368164062 c 0
 500.051757812 134.951171875 502.318359375 133.393554688 504.5859375 131.693359375 c 0
 507.985351562 129.426757812 510.252929688 126.026367188 511.385742188 121.493164062 c 0
 512.518554688 114.693359375 512.235351562 106.760742188 510.536132812 97.693359375 c 0
 506.568359375 81.2607421875 499.485351562 67.376953125 489.286132812 56.0439453125 c 0
 480.786132812 46.9775390625 471.435546875 42.4443359375 461.235351562 42.4443359375 c 0x70
 424.40234375 42.4443359375 364.052734375 40.744140625 280.185546875 37.3447265625 c 0
 251.852539062 36.2109375 222.953125 35.64453125 193.485351562 35.64453125 c 0
 166.286132812 35.64453125 145.036132812 36.77734375 129.735351562 39.0439453125 c 0
 121.235351562 40.177734375 114.71875 43.8603515625 110.185546875 50.09375 c 0
 106.786132812 54.626953125 104.518554688 60.576171875 103.385742188 67.943359375 c 0
 103.0078125 71.2177734375 102.819335938 74.771484375 102.819335938 78.60546875 c 0
 102.819335938 92.0234375 105.1328125 108.869140625 109.760742188 129.143554688 c 0
 115.7109375 155.2109375 126.90234375 181.418945312 143.3359375 207.768554688 c 0
 159.768554688 234.118164062 180.735351562 259.760742188 206.235351562 284.693359375 c 0
 231.735351562 309.626953125 260.352539062 329.743164062 292.0859375 345.043945312 c 0
 361.21875 377.91015625 405.985351562 400.577148438 426.385742188 413.043945312 c 0
 451.885742188 428.911132812 469.453125 445.627929688 479.0859375 463.1953125 c 0
 484.752929688 473.961914062 489.286132812 487.279296875 492.685546875 503.146484375 c 0
 494.513671875 511.188476562 495.427734375 518.495117188 495.427734375 525.063476562 c 0
 495.427734375 538.858398438 491.397460938 549.40234375 483.3359375 556.696289062 c 0
 470.869140625 568.029296875 449.3359375 573.696289062 418.735351562 573.696289062 c 0
 398.3359375 573.696289062 377.227539062 567.462890625 355.411132812 554.99609375 c 0
 333.59375 542.529296875 315.6015625 528.646484375 301.434570312 513.345703125 c 0
 294.068359375 505.413085938 287.125976562 498.754882812 280.609375 493.372070312 c 0
 274.091796875 487.989257812 267.434570312 485.013671875 260.633789062 484.447265625 c 0
 258.934570312 484.447265625 256.383789062 484.1640625 252.984375 483.596679688 c 0
 247.317382812 483.596679688 239.666992188 486.4296875 230.034179688 492.096679688 c 0
 219.833984375 498.896484375 214.451171875 508.530273438 213.883789062 520.997070312 c 0
 213.883789062 523.830078125 214.166992188 526.947265625 214.734375 530.346679688 c 0
 217.000976562 540.546875 222.66796875 552.1640625 231.735351562 565.197265625 c 0
 240.235351562 577.096679688 251.28515625 588.854492188 264.884765625 600.471679688 c 0
 278.485351562 612.088867188 293.78515625 622.997070312 310.78515625 633.197265625 c 0
 328.3515625 643.396484375 348.46875 651.471679688 371.135742188 657.421875 c 0
 393.802734375 663.372070312 415.620117188 666.346679688 436.586914062 666.346679688 c 0
 501.75390625 666.346679688 547.086914062 651.896484375 572.586914062 622.997070312 c 0
 588.719726562 604.296875 596.786132812 579.546875 596.786132812 548.74609375 c 0
 596.786132812 531.946289062 594.38671875 513.346679688 589.586914062 492.947265625 c 0
 578.25390625 445.9140625 557.5703125 407.380859375 527.537109375 377.34765625 c 0
 505.4375 356.380859375 468.604492188 333.430664062 417.037109375 308.498046875 c 0
 404.00390625 302.264648438 381.62109375 292.064453125 349.888671875 277.897460938 c 0
 323.254882812 265.998046875 300.022460938 251.405273438 280.189453125 234.123046875 c 0
 260.356445312 216.83984375 244.7734375 199.131835938 233.439453125 180.998046875 c 0
 223.806640625 165.698242188 216.157226562 149.265625 210.490234375 131.698242188 c 1xb0
 241.08984375 130.565429688 270.2734375 129.857421875 298.040039062 129.57421875 c 0
 303.58984375 129.517578125 308.90234375 129.489257812 313.977539062 129.489257812 c 0
 334.291015625 129.489257812 350.794921875 129.942382812 363.491210938 130.849609375 c 0
 378.791015625 131.982421875 411.374023438 134.532226562 461.241210938 138.499023438 c 1x70
EndSplineSet
Validated: 524289
EndChar

StartChar: three
Encoding: 51 51 26
Width: 570
VWidth: 902
GlyphClass: 2
Flags: HMW
HStem: 31.9507 91.7983<269.153 320.439> 312.449 106.25<309.672 314.488> 495.2 17.85G<254.706 260.373> 573.399 92.6509<393.824 451.623>
VStem: 482.223 97.75<496.051 509.932>
LayerCount: 2
Fore
SplineSet
540.874023438 289.923828125 m 0
 541.265625 285.67578125 541.461914062 281.26953125 541.461914062 276.705078125 c 0
 541.461914062 261.48046875 539.28125 244.49609375 534.920898438 225.75 c 0
 521.321289062 166.25 492.704101562 118.932617188 449.071289062 83.7998046875 c 0
 405.573242188 49.224609375 350.276367188 31.9375 283.178710938 31.9375 c 0
 282.095703125 31.9375 281.009765625 31.94140625 279.920898438 31.951171875 c 0
 258.388671875 31.951171875 237.705078125 35.0673828125 217.872070312 41.30078125 c 0
 198.0390625 47.5341796875 182.03125 55.466796875 169.84765625 65.099609375 c 0
 157.665039062 74.7333984375 147.606445312 85.5 139.673828125 97.3994140625 c 0
 131.173828125 109.299804688 125.506835938 121.057617188 122.673828125 132.674804688 c 0
 121.099609375 139.127929688 120.313476562 145.362304688 120.313476562 151.37890625 c 0
 120.313476562 156.192382812 120.817382812 160.866210938 121.82421875 165.399414062 c 0
 122.391601562 168.799804688 123.524414062 172.200195312 125.224609375 175.599609375 c 0
 130.891601562 189.200195312 140.241210938 199.1171875 153.274414062 205.349609375 c 0
 162.907226562 209.8828125 171.407226562 212.149414062 178.774414062 212.149414062 c 0
 194.641601562 212.149414062 206.82421875 203.083007812 215.32421875 184.950195312 c 0
 223.2578125 169.083007812 235.015625 154.916015625 250.598632812 142.44921875 c 0
 266.181640625 129.982421875 284.173828125 123.749023438 304.57421875 123.749023438 c 0
 336.306640625 123.749023438 364.21484375 132.107421875 388.297851562 148.82421875 c 0
 412.380859375 165.541015625 427.5390625 186.649414062 433.772460938 212.149414062 c 0
 436.0859375 221.735351562 437.243164062 230.502929688 437.243164062 238.450195312 c 0
 437.243164062 244.125976562 436.653320312 249.383789062 435.47265625 254.223632812 c 0
 432.639648438 265.840820312 426.547851562 276.041015625 417.198242188 284.82421875 c 0
 407.84765625 293.607421875 393.397460938 300.407226562 373.84765625 305.223632812 c 0
 354.297851562 310.041015625 329.505859375 312.44921875 299.47265625 312.44921875 c 0
 284.740234375 312.44921875 273.407226562 318.116210938 265.473632812 329.44921875 c 0
 259.920898438 337.381835938 257.143554688 346.009765625 257.143554688 355.33203125 c 0
 257.143554688 359.326171875 257.653320312 363.44921875 258.673828125 367.69921875 c 0
 262.07421875 381.866210938 268.590820312 393.765625 278.223632812 403.399414062 c 0
 288.990234375 413.598632812 302.0234375 418.69921875 317.32421875 418.69921875 c 0
 363.791015625 418.69921875 401.7578125 426.916015625 431.224609375 443.348632812 c 0
 458.424804688 458.649414062 475.424804688 480.749023438 482.224609375 509.649414062 c 0
 482.224609375 510.166992188 482.4609375 510.919921875 482.93359375 511.91015625 c 0
 482.975585938 512.25390625 483.022460938 512.6328125 483.07421875 513.047851562 c 0
 483.07421875 514.181640625 483.357421875 515.03125 483.924804688 515.598632812 c 0
 485.094726562 520.5703125 485.6796875 525.202148438 485.6796875 529.495117188 c 0
 485.6796875 541.836914062 480.844726562 551.372070312 471.174804688 558.098632812 c 0
 457.178710938 568.327148438 434.744140625 573.44140625 403.872070312 573.44140625 c 0
 402.247070312 573.44140625 400.59765625 573.427734375 398.92578125 573.399414062 c 0
 388.725585938 573.399414062 377.67578125 571.69921875 365.775390625 568.298828125 c 0
 362.375 567.166015625 358.125 565.041015625 353.025390625 561.923828125 c 0
 347.92578125 558.806640625 343.958007812 556.256835938 341.125 554.274414062 c 0
 338.291992188 552.291015625 334.325195312 549.033203125 329.225585938 544.5 c 0
 324.125 539.966796875 320.725585938 536.56640625 319.025390625 534.299804688 c 0
 313.358398438 522.966796875 309.391601562 519 307.125 522.399414062 c 1
 293.524414062 508.233398438 280.774414062 499.450195312 268.875 496.049804688 c 0
 265.474609375 495.483398438 262.07421875 495.200195312 258.673828125 495.200195312 c 0
 250.740234375 495.200195312 242.80859375 497.466796875 234.875 502 c 0
 225.6953125 507.609375 221.10546875 516.203125 221.10546875 527.78125 c 0
 221.10546875 527.922851562 221.151367188 536.110351562 222.125 541.950195312 c 0
 224.392578125 552.149414062 229.775390625 563.200195312 238.275390625 575.099609375 c 0
 255.275390625 598.899414062 277.092773438 619.583007812 303.725585938 637.149414062 c 0
 317.892578125 646.216796875 334.892578125 653.299804688 354.725585938 658.399414062 c 0
 374.55859375 663.5 395.241210938 666.049804688 416.774414062 666.049804688 c 0
 486.474609375 666.049804688 534.641601562 652.166992188 561.274414062 624.399414062 c 0
 578.661132812 605.467773438 587.354492188 580.608398438 587.354492188 549.822265625 c 0
 587.354492188 535.455078125 585.4609375 519.797851562 581.674804688 502.848632812 c 0
 581.674804688 501.715820312 581.391601562 500.583007812 580.82421875 499.450195312 c 0
 580.2578125 498.31640625 579.974609375 497.182617188 579.974609375 496.049804688 c 0
 576.57421875 480.182617188 571.049804688 465.451171875 563.399414062 451.850585938 c 0
 555.75 438.250976562 546.966796875 426.633789062 537.049804688 417.000976562 c 0
 527.1328125 407.3671875 516.083007812 398.8671875 503.899414062 391.500976562 c 0
 491.716796875 384.133789062 479.391601562 378.466796875 466.924804688 374.5 c 1
 474.857421875 371.666992188 481.940429688 368.833984375 488.173828125 366.000976562 c 0
 502.340820312 358.633789062 514.240234375 348.716796875 523.874023438 336.25 c 0
 533.506835938 323.783203125 539.173828125 308.340820312 540.874023438 289.923828125 c 0
EndSplineSet
Validated: 524289
EndChar

StartChar: four
Encoding: 52 52 27
Width: 570
VWidth: 902
GlyphClass: 2
Flags: HMW
HStem: 33.174 17.85G<391.204 403.671> 238.873 76.5017<358.62 359.471 359.471 395.171>
LayerCount: 2
Fore
SplineSet
358.618164062 315.375 m 2
 412.166992188 315.375 l 1
 434.833984375 413.408203125 451.55078125 492.741210938 462.318359375 553.374023438 c 1
 364.28515625 451.94140625 294.018554688 371.7578125 251.518554688 312.825195312 c 1
 280.985351562 314.524414062 316.684570312 315.375 358.618164062 315.375 c 2
447.8671875 103.724609375 m 0
 447.8671875 96.9248046875 447.018554688 90.4072265625 445.319335938 84.173828125 c 0
 443.051757812 72.8408203125 438.801757812 62.923828125 432.569335938 54.423828125 c 0
 422.369140625 40.2568359375 410.46875 33.173828125 396.869140625 33.173828125 c 0
 385.536132812 33.173828125 375.619140625 37.56640625 367.119140625 46.3486328125 c 0
 360.03515625 53.66796875 356.494140625 61.2822265625 356.494140625 69.1923828125 c 0
 356.494140625 70.7744140625 356.635742188 72.3681640625 356.918945312 73.9736328125 c 0
 358.051757812 80.7734375 360.319335938 91.5400390625 363.71875 106.2734375 c 2
 379.018554688 170.873046875 l 2
 384.685546875 194.106445312 390.069335938 216.7734375 395.168945312 238.873046875 c 1
 359.46875 238.873046875 l 2
 281.268554688 238.873046875 225.168945312 235.190429688 191.168945312 227.823242188 c 0
 187.202148438 227.255859375 183.09375 226.973632812 178.84375 226.973632812 c 0
 174.59375 226.973632812 170.768554688 227.823242188 167.369140625 229.5234375 c 0
 160.569335938 232.356445312 155.611328125 236.606445312 152.494140625 242.2734375 c 0
 149.376953125 247.940429688 147.53515625 254.598632812 146.967773438 262.248046875 c 0
 146.401367188 269.8984375 146.967773438 277.690429688 148.66796875 285.623046875 c 0
 150.934570312 294.690429688 154.334960938 303.190429688 158.868164062 311.123046875 c 0
 167.934570312 327.556640625 188.193359375 353.481445312 219.643554688 388.8984375 c 0
 251.092773438 424.315429688 291.750976562 468.373046875 341.618164062 521.073242188 c 0
 385.818359375 567.540039062 421.518554688 605.790039062 448.717773438 635.823242188 c 0
 458.91796875 646.58984375 469.401367188 654.806640625 480.16796875 660.473632812 c 0
 490.934570312 666.140625 500.568359375 668.973632812 509.068359375 668.973632812 c 0
 511.901367188 668.973632812 513.883789062 669.256835938 515.017578125 669.82421875 c 0
 524.650390625 669.82421875 532.8671875 667.556640625 539.666992188 663.024414062 c 0
 547.635742188 657.7109375 551.620117188 648.913085938 551.620117188 636.62890625 c 0
 551.620117188 632.833984375 550.79296875 609.34765625 538.392578125 542.75 c 0
 530.7421875 501.666992188 523.80078125 467.2421875 517.567382812 439.474609375 c 0
 508.5 397.541992188 499.716796875 355.891601562 491.216796875 314.524414062 c 1
 499.150390625 314.524414062 507.93359375 314.2421875 517.56640625 313.674804688 c 0
 531.166015625 313.674804688 539.94921875 310.416992188 543.916015625 303.899414062 c 0
 547.883789062 297.3828125 548.733398438 289.024414062 546.466796875 278.825195312 c 0
 543.633789062 266.924804688 539.100585938 257.291992188 532.8671875 249.924804688 c 0
 524.3671875 241.424804688 513.317382812 237.174804688 499.716796875 237.174804688 c 0
 490.650390625 237.174804688 482.150390625 237.458007812 474.216796875 238.024414062 c 1
 456.650390625 159.825195312 447.8671875 115.057617188 447.8671875 103.724609375 c 0
EndSplineSet
Validated: 524289
EndChar

StartChar: five
Encoding: 53 53 28
Width: 570
VWidth: 902
GlyphClass: 2
Flags: HMW
HStem: 36.7479 92.6509<270.397 294.198> 398.848 96.0491<390.248 454.847> 557.798 96.0491<568.18 601.893> 567.148 88.3991
LayerCount: 2
Fore
SplineSet
209.200195312 528.899414062 m 0xd0
 214.299804688 546.466796875 217.978515625 559.497070312 220.24609375 567.997070312 c 1
 218.545898438 573.096679688 217.696289062 578.622070312 217.696289062 584.572265625 c 0
 217.696289062 590.522460938 218.545898438 596.897460938 220.24609375 603.697265625 c 0
 224.212890625 621.830078125 232.712890625 635.997070312 245.74609375 646.197265625 c 0
 254.8125 653.564453125 264.446289062 657.247070312 274.645507812 657.247070312 c 0
 294.478515625 657.247070312 343.211914062 656.680664062 420.844726562 655.546875 c 0xd0
 500.177734375 654.4140625 558.828125 653.846679688 596.794921875 653.846679688 c 0
 606.995117188 653.846679688 614.078125 649.314453125 618.044921875 640.247070312 c 0
 620.9140625 633.872070312 622.348632812 626.690429688 622.348632812 618.702148438 c 0
 622.348632812 612.48828125 621.48046875 605.787109375 619.745117188 598.59765625 c 0
 615.778320312 582.165039062 608.6953125 571.115234375 598.495117188 565.448242188 c 0
 595.662109375 563.748046875 592.829101562 562.189453125 589.99609375 560.7734375 c 0
 587.163085938 559.356445312 583.479492188 558.505859375 578.946289062 558.22265625 c 0
 574.4140625 557.939453125 571.155273438 557.797851562 569.172851562 557.797851562 c 0xe0
 567.189453125 557.797851562 564.356445312 557.939453125 560.673828125 558.22265625 c 0
 556.990234375 558.505859375 554.58203125 558.6484375 553.44921875 558.6484375 c 0
 546.08203125 558.6484375 532.482421875 559.78125 512.649414062 562.047851562 c 0
 492.249023438 563.748046875 474.116210938 565.0234375 458.249023438 565.873046875 c 0
 442.381835938 566.72265625 420.849609375 567.1484375 393.649414062 567.1484375 c 0
 366.44921875 567.1484375 338.965820312 566.297851562 311.19921875 564.59765625 c 1
 299.298828125 522.09765625 292.215820312 496.59765625 289.94921875 488.09765625 c 0
 287.682617188 477.8984375 285.982421875 470.53125 284.849609375 465.998046875 c 0
 283.715820312 461.46484375 282.298828125 455.514648438 280.599609375 448.1484375 c 1
 297.599609375 459.481445312 317.149414062 469.114257812 339.249023438 477.046875 c 0
 370.982421875 488.947265625 404.982421875 494.897460938 441.249023438 494.897460938 c 0
 468.44921875 494.897460938 491.682617188 490.080078125 510.94921875 480.447265625 c 0
 528.516601562 470.247070312 541.974609375 456.647460938 551.32421875 439.647460938 c 0
 560.673828125 422.647460938 566.19921875 402.955078125 567.899414062 380.572265625 c 0
 568.263671875 375.776367188 568.4453125 370.895507812 568.4453125 365.9296875 c 0
 568.4453125 347.72265625 565.997070312 328.37890625 561.099609375 307.897460938 c 0
 551.465820312 265.963867188 537.583007812 227.856445312 519.450195312 193.573242188 c 0
 501.317382812 159.290039062 480.349609375 130.672851562 456.549804688 107.72265625 c 0
 432.75 84.7734375 405.549804688 67.064453125 374.950195312 54.59765625 c 0
 343.783203125 42.6982421875 311.200195312 36.748046875 277.200195312 36.748046875 c 0
 251.1328125 36.748046875 227.616210938 39.5810546875 206.649414062 45.248046875 c 0
 185.682617188 50.9150390625 169.249023438 58.2822265625 157.349609375 67.3486328125 c 0
 145.44921875 76.416015625 136.099609375 86.3330078125 129.298828125 97.099609375 c 0
 122.499023438 107.866210938 117.399414062 119.19921875 113.999023438 131.099609375 c 0
 112.866210938 137.616210938 112.298828125 143.778320312 112.298828125 149.586914062 c 0
 112.298828125 155.395507812 112.866210938 160.849609375 113.999023438 165.94921875 c 0
 114.56640625 169.349609375 115.416015625 172.75 116.548828125 176.149414062 c 0
 122.215820312 188.616210938 131.849609375 198.25 145.44921875 205.049804688 c 0
 152.81640625 207.8828125 158.624023438 209.866210938 162.874023438 210.999023438 c 0
 167.124023438 212.131835938 170.524414062 212.69921875 173.07421875 212.69921875 c 0
 175.624023438 212.69921875 178.032226562 212.416015625 180.298828125 211.848632812 c 0
 187.099609375 211.282226562 192.482421875 208.165039062 196.44921875 202.498046875 c 0
 199.849609375 197.96484375 203.532226562 191.731445312 207.499023438 183.798828125 c 0
 222.798828125 147.532226562 250.423828125 129.3984375 290.374023438 129.3984375 c 0
 330.32421875 129.3984375 365.31640625 144.131835938 395.349609375 173.598632812 c 0
 426.516601562 204.19921875 448.333007812 245.565429688 460.799804688 297.69921875 c 0
 463.79296875 310.590820312 465.2890625 322.359375 465.2890625 333.006835938 c 0
 465.2890625 348.567382812 462.092773438 361.731445312 455.700195312 372.498046875 c 0
 445.5 390.064453125 425.950195312 398.84765625 397.049804688 398.84765625 c 0
 383.450195312 398.84765625 368.716796875 397.1484375 352.849609375 393.748046875 c 0
 344.916992188 392.047851562 333.583984375 388.081054688 318.850585938 381.84765625 c 0
 315.451171875 380.71484375 310.776367188 378.0234375 304.826171875 373.7734375 c 0
 298.875976562 369.5234375 294.767578125 366.547851562 292.500976562 364.84765625 c 0
 281.734375 356.915039062 272.951171875 350.115234375 266.151367188 344.448242188 c 0
 251.41796875 333.680664062 236.118164062 327.448242188 220.250976562 325.748046875 c 2
 214.30078125 325.748046875 l 2
 206.93359375 325.748046875 199.850585938 327.448242188 193.05078125 330.84765625 c 0
 182.850585938 335.948242188 177.18359375 346.71484375 176.05078125 363.1484375 c 0
 175.767578125 366.689453125 175.625976562 370.443359375 175.625976562 374.41015625 c 0
 175.625976562 386.310546875 176.900390625 400.123046875 179.451171875 415.848632812 c 0
 181.151367188 424.916015625 183.133789062 433.982421875 185.401367188 443.049804688 c 0
 189.93359375 462.8828125 197.8671875 491.5 209.200195312 528.899414062 c 0xd0
EndSplineSet
Validated: 524289
EndChar

StartChar: six
Encoding: 54 54 29
Width: 570
VWidth: 903
GlyphClass: 2
Flags: HMW
HStem: 34.9221 91.8<271.457 311.974> 376.622 96.9009<368.073 440.607>
LayerCount: 2
Fore
SplineSet
426.721679688 473.522460938 m 0
 519.454101562 473.522460938 563.171875 431.432617188 563.171875 345.98046875 c 0
 563.171875 195.74609375 452.27734375 34.921875 289.87109375 34.921875 c 0
 220.205078125 34.921875 131.3359375 56.90234375 131.3359375 200.924804688 c 0
 131.3359375 206.342773438 138.650390625 577.801757812 416.096679688 661.796875 c 0
 446.98046875 671.147460938 480.271484375 677.239257812 515.971679688 680.072265625 c 1
 524.471679688 680.072265625 l 2
 543.391601562 680.072265625 568.834960938 673.6953125 568.834960938 647.306640625 c 0
 568.834960938 623.734375 539.385742188 601.5625 516.823242188 595.922851562 c 0
 515.830078125 595.674804688 452.340820312 583.434570312 417.373046875 571.272460938 c 0
 376.143554688 556.280273438 318.756835938 519.729492188 269.47265625 431.022460938 c 1
 300.546875 451.3828125 356.973632812 473.522460938 426.721679688 473.522460938 c 0
222.041015625 233.805664062 m 0
 222.041015625 190.631835938 241.865234375 126.721679688 310.271484375 126.721679688 c 2
 312.822265625 126.721679688 l 2
 371.1640625 126.721679688 461.477539062 199.796875 461.477539062 312.44140625 c 0
 461.477539062 368.39453125 424.977539062 376.622070312 381.670898438 376.622070312 c 0
 363.717773438 376.622070312 296.2421875 372.109375 234.62109375 308.622070312 c 1
 229.212890625 285.783203125 222.041015625 255.501953125 222.041015625 233.805664062 c 0
EndSplineSet
Validated: 524289
EndChar

StartChar: seven
Encoding: 55 55 30
Width: 570
VWidth: 901
GlyphClass: 2
Flags: HMW
HStem: 32.2761 17.85G<148.532 154.765> 562.675 96.0517<374.914 422.231 374.914 500.148>
LayerCount: 2
Fore
SplineSet
352.247070312 562.674804688 m 0
 300.114257812 561.541992188 266.114257812 558.995117188 250.248046875 555.028320312 c 0
 246.84765625 554.461914062 243.165039062 554.036132812 239.197265625 553.75390625 c 0
 235.23046875 553.470703125 231.263671875 554.178710938 227.296875 555.87890625 c 0
 221.063476562 558.711914062 216.813476562 562.961914062 214.546875 568.62890625 c 0
 211.25 576.046875 209.6015625 584.21484375 209.6015625 593.131835938 c 0
 209.6015625 596.475585938 209.833007812 599.923828125 210.296875 603.478515625 c 1
 209.1640625 597.811523438 209.1640625 598.094726562 210.296875 604.328125 c 0
 213.129882812 616.227539062 218.512695312 626.14453125 226.446289062 634.078125 c 0
 234.946289062 642.010742188 247.12890625 647.393554688 262.99609375 650.2265625 c 0
 293.029296875 655.893554688 341.479492188 658.7265625 408.345703125 658.7265625 c 0
 436.11328125 658.7265625 473.512695312 657.59375 520.545898438 655.327148438 c 0
 565.313476562 653.626953125 588.545898438 652.77734375 590.24609375 652.77734375 c 0
 597.045898438 652.77734375 603.563476562 651.21875 609.795898438 648.1015625 c 0
 616.029296875 644.985351562 621.12890625 640.02734375 625.095703125 633.2265625 c 0
 627.885742188 628.693359375 629.280273438 623.301757812 629.280273438 617.051757812 c 0
 629.280273438 613.145507812 628.735351562 608.903320312 627.646484375 604.327148438 c 0
 625.37890625 594.126953125 619.99609375 582.793945312 611.49609375 570.327148438 c 0
 599.595703125 553.327148438 580.188476562 528.251953125 553.271484375 495.1015625 c 0
 526.354492188 461.952148438 498.162109375 428.09375 468.6953125 393.52734375 c 0
 438.095703125 358.959960938 399.845703125 312.91796875 353.9453125 255.401367188 c 0
 308.044921875 197.883789062 263.5625 139.091796875 220.495117188 79.025390625 c 0
 209.162109375 62.591796875 196.12890625 50.4091796875 181.396484375 42.4755859375 c 0
 170.063476562 35.67578125 159.580078125 32.2763671875 149.947265625 32.2763671875 c 0
 147.114257812 32.2763671875 144.28125 32.5595703125 141.447265625 33.1259765625 c 0
 127.84765625 36.5263671875 119.630859375 45.0263671875 116.797851562 58.6259765625 c 0
 115.665039062 64.859375 115.947265625 71.517578125 117.647460938 78.6005859375 c 0
 119.34765625 85.68359375 122.748046875 93.4755859375 127.84765625 101.975585938 c 0
 168.081054688 158.642578125 210.864257812 215.025390625 256.197265625 271.125 c 0
 302.6640625 327.225585938 340.771484375 371.850585938 370.521484375 405 c 0
 400.271484375 438.150390625 426.622070312 468.466796875 449.572265625 495.950195312 c 0
 472.521484375 523.43359375 489.379882812 545.674804688 500.146484375 562.674804688 c 1
 477.763671875 563.2421875 454.247070312 563.525390625 429.596679688 563.525390625 c 0
 404.946289062 563.525390625 379.163085938 563.2421875 352.247070312 562.674804688 c 0
EndSplineSet
Validated: 524289
EndChar

StartChar: eight
Encoding: 56 56 31
Width: 570
VWidth: 901
GlyphClass: 2
Flags: HMW
HStem: 27.9463 93.5017<294.453 294.736> 580.446 81.6025<396.453 438.668 408.637 438.668>
VStem: 454.538 95.1983
LayerCount: 2
Fore
SplineSet
553.982421875 260.849609375 m 0
 553.416015625 250.649414062 552.00390625 239.87890625 549.737304688 228.545898438 c 0
 545.770507812 209.846679688 539.112304688 191.4296875 529.76171875 173.295898438 c 0
 520.412109375 155.163085938 508.086914062 137.170898438 492.787109375 119.321289062 c 0
 477.487304688 101.471679688 460.487304688 86.029296875 441.787109375 72.99609375 c 0
 422.520507812 59.962890625 398.4375 49.1962890625 369.537109375 40.6962890625 c 0
 340.63671875 32.1962890625 310.461914062 27.9462890625 279.01171875 27.9462890625 c 0
 247.5625 27.9462890625 220.50390625 31.9130859375 197.836914062 39.8466796875 c 0
 175.737304688 47.779296875 158.87890625 58.12109375 147.26171875 70.87109375 c 0
 135.645507812 83.62109375 127.002929688 98.638671875 121.3359375 115.920898438 c 0
 115.938476562 132.381835938 113.240234375 148.971679688 113.240234375 165.690429688 c 0
 113.240234375 180.15625 114.9609375 199.971679688 120.484375 223.447265625 c 0
 125.017578125 242.713867188 134.650390625 263.5390625 149.383789062 285.921875 c 0
 164.1171875 308.305664062 182.534179688 329.129882812 204.633789062 348.397460938 c 0
 220.500976562 361.997070312 236.93359375 372.763671875 253.93359375 380.697265625 c 1
 235.80078125 393.1640625 222.483398438 408.747070312 213.983398438 427.447265625 c 0
 206.428710938 443.313476562 202.651367188 459.431640625 202.651367188 475.801757812 c 0
 202.651367188 483.987304688 203.595703125 492.235351562 205.484375 500.546875 c 0
 207.184570312 507.9140625 209.592773438 515.564453125 212.709960938 523.497070312 c 0
 215.826171875 531.430664062 220.21875 540.780273438 225.885742188 551.546875 c 0
 231.552734375 562.314453125 238.069335938 572.65625 245.436523438 582.573242188 c 0
 252.802734375 592.490234375 262.294921875 602.407226562 273.912109375 612.32421875 c 0
 285.529296875 622.241210938 298.13671875 630.598632812 311.737304688 637.3984375 c 0
 326.469726562 644.765625 343.752929688 650.715820312 363.5859375 655.249023438 c 0
 383.418945312 659.782226562 404.668945312 662.048828125 427.3359375 662.048828125 c 0
 450.002929688 662.048828125 470.403320312 659.782226562 488.536132812 655.249023438 c 0
 506.668945312 650.715820312 521.40234375 644.765625 532.735351562 637.3984375 c 0
 544.068359375 630.032226562 553.276367188 621.532226562 560.359375 611.8984375 c 0
 567.442382812 602.265625 572.400390625 592.491210938 575.233398438 582.57421875 c 0
 578.06640625 572.657226562 579.909179688 562.173828125 580.758789062 551.124023438 c 0
 581.18359375 545.598632812 581.396484375 540.427734375 581.396484375 535.611328125 c 0
 581.396484375 530.794921875 581.18359375 526.33203125 580.758789062 522.223632812 c 0
 579.909179688 514.006835938 578.4921875 505.931640625 576.508789062 497.999023438 c 0
 574.525390625 490.065429688 571.833984375 482.557617188 568.43359375 475.474609375 c 0
 565.034179688 468.391601562 561.350585938 462.016601562 557.383789062 456.349609375 c 0
 553.416992188 450.682617188 548.458984375 444.875 542.508789062 438.924804688 c 0
 536.55859375 432.974609375 531.17578125 428.016601562 526.358398438 424.049804688 c 0
 521.541992188 420.083007812 515.450195312 415.549804688 508.083007812 410.44921875 c 0
 500.715820312 405.349609375 494.765625 401.666992188 490.232421875 399.399414062 c 0
 485.700195312 397.1328125 480.31640625 393.732421875 474.083984375 389.19921875 c 1
 487.1171875 382.399414062 498.166992188 374.75 507.233398438 366.25 c 0
 519.700195312 354.349609375 529.333984375 342.875 536.133789062 331.82421875 c 0
 542.93359375 320.774414062 547.750976562 308.732421875 550.583984375 295.69921875 c 0
 552.944335938 284.83984375 554.125 274.962890625 554.125 266.0703125 c 0
 554.125 264.291015625 554.077148438 262.55078125 553.982421875 260.849609375 c 0
339.788085938 554.946289062 m 0
 318.254882812 537.946289062 305.22265625 519.24609375 300.689453125 498.846679688 c 0
 299.93359375 495.446289062 299.556640625 492.116210938 299.556640625 488.856445312 c 0
 299.556640625 477.446289062 304.18359375 466.892578125 313.439453125 457.196289062 c 0
 326.47265625 444.163085938 349.989257812 430.563476562 383.989257812 416.396484375 c 1
 407.22265625 425.462890625 428.755859375 437.36328125 448.588867188 452.096679688 c 0
 468.421875 466.829101562 479.754882812 479.579101562 482.587890625 490.346679688 c 0
 483.904296875 495.610351562 484.561523438 500.896484375 484.561523438 506.203125 c 0
 484.561523438 514.606445312 482.912109375 523.0625 479.61328125 531.571289062 c 0
 474.229492188 545.454101562 465.3046875 557.071289062 452.837890625 566.420898438 c 0
 440.37109375 575.771484375 425.920898438 580.446289062 409.48828125 580.446289062 c 2
 408.637695312 580.446289062 l 2
 384.270507812 580.446289062 361.321289062 571.946289062 339.788085938 554.946289062 c 0
248.838867188 134.196289062 m 0
 265.271484375 125.696289062 283.970703125 121.448242188 304.9375 121.448242188 c 0
 319.670898438 121.448242188 335.11328125 123.71484375 351.262695312 128.248046875 c 0
 367.413085938 132.78125 382.571289062 139.297851562 396.73828125 147.797851562 c 0
 410.905273438 156.297851562 423.372070312 167.064453125 434.138671875 180.09765625 c 0
 444.338867188 193.130859375 451.138671875 207.297851562 454.5390625 222.59765625 c 0
 456.23828125 231.09765625 457.655273438 239.03125 458.7890625 246.3984375 c 0
 458.7890625 253.764648438 457.513671875 262.264648438 454.963867188 271.8984375 c 0
 452.4140625 281.53125 447.880859375 290.59765625 441.36328125 299.09765625 c 0
 434.846679688 307.59765625 425.071289062 316.380859375 412.0390625 325.448242188 c 0
 399.005859375 334.514648438 383.138671875 343.014648438 364.438476562 350.948242188 c 1
 324.206054688 340.180664062 289.35546875 322.614257812 259.888671875 298.247070312 c 0
 230.98828125 273.879882812 213.421875 247.813476562 207.188476562 220.045898438 c 0
 205.540039062 213.24609375 204.715820312 206.670898438 204.715820312 200.321289062 c 0
 204.715820312 189.208007812 207.240234375 178.783203125 212.2890625 169.045898438 c 0
 220.7890625 153.74609375 232.971679688 142.12890625 248.838867188 134.196289062 c 0
EndSplineSet
Validated: 524289
EndChar

StartChar: nine
Encoding: 57 57 32
Width: 570
VWidth: 903
GlyphClass: 2
Flags: HMW
HStem: 34.1526 66.725 243.251 96.0525<300.34 370.036> 589.204 92.6458<406.304 475.158 415.937 475.158>
LayerCount: 2
Fore
SplineSet
191.54296875 35 m 0
 188.709960938 35 186.15625 34.7197265625 183.889648438 34.15234375 c 0
 171.989257812 34.15234375 162.356445312 36.703125 154.989257812 41.802734375 c 0
 145.690429688 47.185546875 141.041992188 55.31640625 141.041992188 66.1943359375 c 0
 141.041992188 67.912109375 141.157226562 69.6982421875 141.389648438 71.552734375 c 2
 141.389648438 74.1025390625 l 2
 143.08984375 83.169921875 149.0390625 92.0947265625 159.239257812 100.877929688 c 0
 169.439453125 109.661132812 180.206054688 115.752929688 191.5390625 119.15234375 c 0
 198.33984375 120.852539062 209.248046875 123.119140625 224.264648438 125.953125 c 0
 239.28125 128.786132812 252.598632812 131.619140625 264.215820312 134.452148438 c 0
 275.83203125 137.28515625 288.724609375 140.967773438 302.891601562 145.500976562 c 0
 333.491210938 155.701171875 361.82421875 171.850585938 387.891601562 193.951171875 c 0
 404.891601562 209.250976562 421.32421875 226.818359375 437.19140625 246.651367188 c 0
 443.423828125 254.583984375 448.807617188 262.234375 453.340820312 269.600585938 c 1
 440.307617188 262.80078125 426.423828125 257.41796875 411.69140625 253.451171875 c 0
 384.491210938 246.651367188 351.908203125 243.250976562 313.94140625 243.250976562 c 0
 286.741210938 243.250976562 262.374023438 249.484375 240.840820312 261.951171875 c 0
 220.44140625 273.850585938 204.858398438 289.576171875 194.090820312 309.125976562 c 0
 183.32421875 328.67578125 176.241210938 351.342773438 172.840820312 377.125976562 c 0
 171.641601562 386.225585938 171.041015625 395.377929688 171.041015625 404.583984375 c 0
 171.041015625 421.4609375 173.057617188 438.516601562 177.090820312 455.75 c 0
 184.458007812 488.049804688 196.5 518.225585938 213.216796875 546.275390625 c 0
 229.93359375 574.325195312 249.484375 598.267578125 271.8671875 618.100585938 c 0
 294.25 637.93359375 319.891601562 653.516601562 348.791992188 664.849609375 c 0
 378.258789062 676.182617188 408.008789062 681.849609375 438.041992188 681.849609375 c 0
 512.275390625 681.849609375 560.158203125 654.932617188 581.69140625 601.099609375 c 0
 591.200195312 576.647460938 595.955078125 547.310546875 595.955078125 513.088867188 c 0
 595.955078125 475.93359375 590.350585938 433.020507812 579.141601562 384.349609375 c 0
 567.80859375 335.616210938 552.650390625 292.408203125 533.666992188 254.725585938 c 0
 514.68359375 217.041992188 493.43359375 185.450195312 469.916992188 159.950195312 c 0
 446.400390625 134.450195312 419.341796875 112.6328125 388.7421875 94.5 c 0
 357.575195312 76.3671875 325.700195312 62.625 293.1171875 53.275390625 c 0
 260.534179688 43.9248046875 226.67578125 37.8330078125 191.54296875 35 c 0
305.439453125 525.453125 m 0
 290.706054688 506.185546875 281.071289062 486.354492188 276.538085938 465.954101562 c 0
 272.543945312 448.567382812 270.545898438 432.969726562 270.545898438 419.163085938 c 0
 270.545898438 366.373046875 299.743164062 339.752929688 358.137695312 339.303710938 c 0
 381.9375 339.303710938 406.020507812 344.403320312 430.387695312 354.603515625 c 0
 454.754882812 364.803710938 475.155273438 377.836914062 491.587890625 393.703125 c 0
 492.155273438 395.970703125 492.721679688 398.520507812 493.2890625 401.353515625 c 0
 496.688476562 416.086914062 500.655273438 436.203125 505.188476562 461.703125 c 0
 506.208984375 468.84375 506.71875 475.931640625 506.71875 482.969726562 c 0
 506.71875 499.391601562 503.942382812 515.536132812 498.388671875 531.403320312 c 0
 494.421875 543.303710938 488.896484375 553.50390625 481.813476562 562.00390625 c 0
 474.73046875 570.50390625 465.6640625 577.161132812 454.61328125 581.978515625 c 0
 443.563476562 586.795898438 431.23828125 589.203125 417.638671875 589.203125 c 2
 415.938476562 589.203125 l 2
 396.671875 589.203125 377.122070312 583.395507812 357.2890625 571.778320312 c 0
 337.456054688 560.161132812 320.172851562 544.719726562 305.439453125 525.453125 c 0
EndSplineSet
Validated: 524289
EndChar

StartChar: colon
Encoding: 58 58 33
Width: 570
VWidth: 887
GlyphClass: 2
Flags: HMW
HStem: 60.5251 153.001<290.335 335.671> 288.325 152.151<349.556 384.689 349.556 384.689>
VStem: 249.253 183.602
LayerCount: 2
Fore
SplineSet
430.3046875 380.974609375 m 0
 426.337890625 364.541992188 420.10546875 347.54296875 411.60546875 329.975585938 c 0
 405.372070312 315.80859375 395.739257812 305.041992188 382.706054688 297.674804688 c 0
 371.373046875 291.442382812 361.173828125 288.325195312 352.106445312 288.325195312 c 2
 349.556640625 288.325195312 l 2
 334.256835938 288.891601562 322.356445312 292.291992188 313.856445312 298.525390625 c 0
 304.412109375 305.608398438 299.690429688 315.642578125 299.690429688 328.627929688 c 0
 299.690429688 331.225585938 299.879882812 333.94140625 300.256835938 336.775390625 c 0
 301.390625 346.974609375 303.232421875 357.317382812 305.782226562 367.799804688 c 0
 308.33203125 378.283203125 310.881835938 388.05859375 313.432617188 397.125 c 0
 315.982421875 406.192382812 320.515625 413.984375 327.032226562 420.500976562 c 0
 333.548828125 427.017578125 340.631835938 431.692382812 348.282226562 434.526367188 c 0
 355.932617188 437.359375 362.44921875 439.05859375 367.83203125 439.625976562 c 0
 373.21484375 440.192382812 377.323242188 440.475585938 380.15625 440.475585938 c 0
 389.223632812 440.475585938 396.448242188 439.909179688 401.831054688 438.776367188 c 0
 407.21484375 437.642578125 412.59765625 435.375976562 417.98046875 431.975585938 c 0
 423.36328125 428.576171875 427.471679688 423.475585938 430.3046875 416.67578125 c 0
 433.137695312 409.875976562 433.98828125 401.942382812 432.854492188 392.875976562 c 0
 431.721679688 388.909179688 430.872070312 384.942382812 430.3046875 380.974609375 c 0
377.60546875 143.826171875 m 0
 374.772460938 130.225585938 369.66796875 116.05859375 362.301757812 101.326171875 c 0
 355.500976562 87.1591796875 345.018554688 76.67578125 330.8515625 69.8759765625 c 0
 318.951171875 64.208984375 307.618164062 61.091796875 296.8515625 60.525390625 c 0
 283.818359375 60.525390625 272.060546875 64.775390625 261.577148438 73.275390625 c 0
 252.958007812 80.263671875 248.6484375 89.55078125 248.6484375 101.13671875 c 0
 248.6484375 103.641601562 248.849609375 106.254882812 249.252929688 108.974609375 c 0
 252.0859375 124.841796875 253.786132812 133.909179688 254.353515625 136.17578125 c 0
 254.919921875 138.442382812 256.336914062 143.54296875 258.603515625 151.475585938 c 0
 260.87109375 159.409179688 262.571289062 165.641601562 263.704101562 170.174804688 c 0
 265.970703125 179.2421875 270.36328125 187.034179688 276.879882812 193.55078125 c 0
 283.396484375 200.067382812 290.622070312 204.743164062 298.5546875 207.576171875 c 0
 310.455078125 211.54296875 321.221679688 213.526367188 330.854492188 213.526367188 c 0
 340.48828125 213.526367188 348.705078125 212.250976562 355.504882812 209.701171875 c 0
 362.3046875 207.151367188 368.538085938 202.192382812 374.205078125 194.826171875 c 0
 378.927734375 188.686523438 381.2890625 181.169921875 381.2890625 172.275390625 c 0
 381.2890625 170.498046875 381.194335938 168.6640625 381.005859375 166.776367188 c 0
 380.438476562 159.409179688 379.305664062 151.758789062 377.60546875 143.826171875 c 0
EndSplineSet
Validated: 524289
EndChar

StartChar: semicolon
Encoding: 59 59 34
Width: 570
VWidth: 864
GlyphClass: 2
Flags: HMW
HStem: 229.67 153.001<359.649 397.333>
VStem: 311.766 132.598
LayerCount: 2
Fore
SplineSet
441.814453125 323.168945312 m 0
 437.84765625 306.735351562 431.615234375 289.453125 423.115234375 271.3203125 c 0
 416.881835938 257.153320312 407.249023438 246.38671875 394.215820312 239.01953125 c 0
 382.8828125 232.787109375 372.682617188 229.669921875 363.616210938 229.669921875 c 0
 355.682617188 229.669921875 347.608398438 231.370117188 339.390625 234.76953125 c 0
 331.173828125 238.169921875 324.515625 243.26953125 319.416015625 250.069335938 c 0
 314.141601562 256.782226562 311.504882812 264.509765625 311.504882812 273.251953125 c 0
 311.504882812 274.840820312 311.591796875 276.463867188 311.765625 278.120117188 c 2
 311.765625 278.969726562 l 2
 312.899414062 289.169921875 314.881835938 299.370117188 317.71484375 309.569335938 c 0
 320.547851562 319.76953125 323.098632812 329.40234375 325.365234375 338.469726562 c 0
 327.631835938 347.537109375 332.024414062 355.469726562 338.541015625 362.26953125 c 0
 345.057617188 369.069335938 352 373.602539062 359.3671875 375.870117188 c 0
 371.833984375 379.836914062 383.166992188 382.103515625 393.3671875 382.670898438 c 0
 401.299804688 382.670898438 407.958007812 381.962890625 413.340820312 380.545898438 c 0
 418.723632812 379.12890625 424.107421875 376.861328125 429.490234375 373.745117188 c 0
 434.873046875 370.627929688 438.981445312 365.669921875 441.814453125 358.870117188 c 0
 444.647460938 351.502929688 445.497070312 343.286132812 444.364257812 334.21875 c 0
 443.231445312 330.819335938 442.380859375 327.135742188 441.814453125 323.168945312 c 0
370.415039062 81.76953125 m 0
 370.415039062 80.0693359375 369.850585938 78.369140625 368.717773438 76.6689453125 c 0
 363.05078125 57.96875 328.767578125 -16.5478515625 265.868164062 -146.880859375 c 0
 259.067382812 -161.047851562 250.000976562 -171.815429688 238.66796875 -179.181640625 c 0
 229.318359375 -184.895507812 220.206054688 -187.751953125 211.333007812 -187.751953125 c 0
 210.526367188 -187.751953125 209.720703125 -187.728515625 208.91796875 -187.680664062 c 0
 195.317382812 -187.680664062 184.267578125 -183.430664062 175.767578125 -174.930664062 c 0
 169.921875 -169.0859375 166.999023438 -161.701171875 166.999023438 -152.779296875 c 0
 166.999023438 -149.592773438 167.372070312 -146.209960938 168.118164062 -142.630859375 c 0
 170.384765625 -131.297851562 183.41796875 -97.5810546875 207.217773438 -41.4814453125 c 0
 231.017578125 14.619140625 249.150390625 56.5517578125 261.618164062 84.3193359375 c 0
 266.150390625 93.9521484375 271.108398438 102.02734375 276.4921875 108.543945312 c 0
 281.875 115.060546875 287.682617188 119.453125 293.916015625 121.719726562 c 0
 301.848632812 124.552734375 309.215820312 126.252929688 316.015625 126.819335938 c 0
 318.283203125 126.819335938 320.833007812 126.537109375 323.666015625 125.969726562 c 0
 334.999023438 125.969726562 345.765625 123.13671875 355.965820312 117.469726562 c 0
 362.19921875 114.069335938 366.732421875 108.969726562 369.565429688 102.169921875 c 0
 371.83203125 95.9365234375 372.115234375 89.13671875 370.415039062 81.76953125 c 0
EndSplineSet
Validated: 524289
EndChar

StartChar: less
Encoding: 60 60 35
Width: 570
VWidth: 902
GlyphClass: 2
Flags: HMW
HStem: 32.1751 17.85G<440.74 444.99 444.99 452.64>
LayerCount: 2
Fore
SplineSet
444.9921875 32.1748046875 m 2
 436.4921875 32.1748046875 427.42578125 33.8759765625 417.79296875 37.2763671875 c 0
 404.759765625 41.80859375 390.026367188 52.0087890625 373.59375 67.8759765625 c 0
 357.16015625 83.7431640625 340.16015625 102.584960938 322.59375 124.401367188 c 0
 305.026367188 146.21875 287.743164062 168.036132812 270.743164062 189.852539062 c 0
 253.743164062 211.669921875 235.750976562 234.194335938 216.768554688 257.427734375 c 0
 197.78515625 280.661132812 181.209960938 299.078125 167.04296875 312.677734375 c 0
 160.243164062 319.477539062 156.84375 328.828125 156.84375 340.727539062 c 0
 156.84375 345.828125 157.551757812 351.352539062 158.96875 357.302734375 c 0
 160.385742188 363.252929688 162.510742188 369.344726562 165.34375 375.578125 c 0
 171.010742188 387.477539062 178.943359375 395.977539062 189.143554688 401.078125 c 0
 224.276367188 424.877929688 266.068359375 454.76953125 314.518554688 490.752929688 c 0
 362.96875 526.735351562 407.451171875 559.318359375 447.96875 588.501953125 c 0
 488.485351562 617.684570312 524.04296875 640.776367188 554.643554688 657.776367188 c 0
 567.110351562 665.143554688 578.443359375 668.827148438 588.643554688 668.827148438 c 0
 596.576171875 668.827148438 603.09375 666.84375 608.193359375 662.876953125 c 0
 618.393554688 655.509765625 624.625976562 645.592773438 626.893554688 633.125976562 c 0
 628.026367188 627.458984375 627.884765625 621.225585938 626.467773438 614.42578125 c 0
 625.05078125 607.625976562 621.225585938 600.54296875 614.9921875 593.17578125 c 0
 605.92578125 581.842773438 590.342773438 569.092773438 568.2421875 554.92578125 c 0
 533.67578125 532.826171875 483.525390625 498.68359375 417.79296875 452.500976562 c 0
 352.059570312 406.318359375 307.29296875 375.009765625 283.4921875 358.577148438 c 1
 297.659179688 343.276367188 313.951171875 324.293945312 332.368164062 301.626953125 c 0
 350.78515625 278.959960938 367.21875 257.993164062 381.66796875 238.725585938 c 0
 396.118164062 219.458984375 411.985351562 199.767578125 429.268554688 179.650390625 c 0
 446.551757812 159.533203125 462.559570312 143.3828125 477.29296875 131.200195312 c 0
 492.025390625 119.017578125 501.375976562 107.825195312 505.342773438 97.625 c 0
 508.17578125 90.8251953125 508.458984375 83.4580078125 506.19140625 75.525390625 c 0
 505.05859375 69.8583984375 502.791992188 64.4755859375 499.391601562 59.375 c 0
 488.625 44.0751953125 473.041992188 35.0078125 452.641601562 32.1748046875 c 2
 444.9921875 32.1748046875 l 2
EndSplineSet
Validated: 524289
EndChar

StartChar: equal
Encoding: 61 61 36
Width: 570
VWidth: 908
GlyphClass: 2
Flags: HMW
HStem: 257.95 90.95<221.478 249.528> 427.95 90.1
LayerCount: 2
Fore
SplineSet
519.541992188 518.049804688 m 0
 534.841796875 518.049804688 544.759765625 514.08203125 549.29296875 506.149414062 c 0
 552.314453125 500.860351562 553.826171875 494.690429688 553.826171875 487.639648438 c 0
 553.826171875 484.11328125 553.448242188 480.366210938 552.692382812 476.399414062 c 2
 552.692382812 475.548828125 l 2
 551.559570312 469.31640625 549.859375 463.649414062 547.591796875 458.548828125 c 0
 545.325195312 453.44921875 541.92578125 448.20703125 537.392578125 442.82421875 c 0
 532.859375 437.44140625 526.909179688 433.333007812 519.541992188 430.5 c 0
 514.442382812 428.799804688 509.341796875 427.950195312 504.2421875 427.950195312 c 2
 497.442382812 427.950195312 l 2
 478.7421875 428.516601562 459.192382812 428.799804688 438.791992188 428.799804688 c 2
 351.2421875 426.25 l 2
 314.409179688 425.1171875 287.208984375 424.549804688 269.642578125 424.549804688 c 0
 254.341796875 424.549804688 243.008789062 428.799804688 235.642578125 437.299804688 c 0
 230.321289062 443.439453125 227.661132812 450.760742188 227.661132812 459.264648438 c 0
 227.661132812 462.53515625 228.0546875 465.98046875 228.841796875 469.599609375 c 2
 228.841796875 472.150390625 l 2
 231.674804688 484.049804688 238.049804688 494.674804688 247.966796875 504.025390625 c 0
 257.883789062 513.375 270.208007812 518.049804688 284.94140625 518.049804688 c 2
 288.341796875 518.049804688 l 2
 319.28125 517.030273438 353.280273438 516.520507812 390.33984375 516.520507812 c 0
 415.046875 516.520507812 441.114257812 516.747070312 468.541992188 517.200195312 c 0
 496.875 517.766601562 513.875 518.049804688 519.541992188 518.049804688 c 0
465.143554688 261.349609375 m 2
 459.194335938 261.349609375 l 2
 447.293945312 261.916992188 435.9609375 262.200195312 425.194335938 262.200195312 c 0
 403.09375 262.200195312 369.09375 261.4921875 323.194335938 260.075195312 c 0
 277.293945312 258.658203125 246.126953125 257.950195312 229.694335938 257.950195312 c 0
 213.260742188 257.950195312 201.927734375 262.483398438 195.694335938 271.549804688 c 0
 191.409179688 277.783203125 189.266601562 284.955078125 189.266601562 293.0625 c 0
 189.266601562 296.748046875 189.708984375 300.626953125 190.594726562 304.700195312 c 2
 190.594726562 306.400390625 l 2
 193.427734375 318.299804688 200.0859375 328.358398438 210.569335938 336.575195312 c 0
 221.051757812 344.791992188 233.944335938 348.900390625 249.244140625 348.900390625 c 0
 249.810546875 348.900390625 254.34375 348.6171875 262.84375 348.049804688 c 0
 273.994140625 347.861328125 286.372070312 347.766601562 299.98046875 347.766601562 c 0
 327.17578125 347.766601562 359.280273438 348.143554688 396.29296875 348.899414062 c 2
 480.443359375 351.44921875 l 2
 495.743164062 351.44921875 505.80078125 347.482421875 510.618164062 339.548828125 c 0
 513.893554688 334.155273438 515.53125 327.842773438 515.53125 320.614257812 c 0
 515.53125 317.212890625 515.168945312 313.607421875 514.443359375 309.798828125 c 2
 514.443359375 308.94921875 l 2
 513.309570312 302.715820312 511.467773438 297.19140625 508.91796875 292.374023438 c 0
 506.368164062 287.557617188 503.110351562 282.599609375 499.143554688 277.499023438 c 0
 494.610351562 271.83203125 488.66015625 267.298828125 481.29296875 263.899414062 c 0
 476.193359375 262.19921875 470.809570312 261.349609375 465.143554688 261.349609375 c 2
EndSplineSet
Validated: 524289
EndChar

StartChar: greater
Encoding: 62 62 37
Width: 570
VWidth: 903
GlyphClass: 2
Flags: HMW
HStem: 38.1749 17.85G<133.562 142.629>
LayerCount: 2
Fore
SplineSet
137.24609375 38.1748046875 m 0
 129.87890625 38.1748046875 123.643554688 40.15625 118.54296875 44.123046875 c 0
 113.443359375 48.08984375 109.334960938 52.623046875 106.217773438 57.7236328125 c 0
 103.1015625 62.8232421875 100.9765625 68.2060546875 99.8427734375 73.873046875 c 0
 98.7099609375 79.5400390625 98.8525390625 85.7734375 100.26953125 92.5732421875 c 0
 101.685546875 99.373046875 105.227539062 106.456054688 110.89453125 113.823242188 c 0
 119.961914062 125.15625 135.829101562 137.90625 158.49609375 152.073242188 c 0
 193.0625 174.172851562 243.212890625 208.315429688 308.9453125 254.498046875 c 0
 374.678710938 300.681640625 419.162109375 331.989257812 442.39453125 348.422851562 c 1
 427.662109375 363.72265625 411.370117188 382.705078125 393.51953125 405.372070312 c 0
 375.669921875 428.0390625 359.377929688 449.005859375 344.64453125 468.2734375 c 0
 329.912109375 487.540039062 313.903320312 507.232421875 296.62109375 527.348632812 c 0
 279.337890625 547.465820312 263.470703125 563.616210938 249.020507812 575.798828125 c 0
 234.5703125 587.982421875 225.362304688 599.173828125 221.395507812 609.374023438 c 0
 218.5625 616.173828125 218.279296875 623.541015625 220.546875 631.473632812 c 0
 221.6796875 637.140625 223.946289062 642.524414062 227.346679688 647.624023438 c 0
 238.11328125 662.923828125 253.696289062 671.991210938 274.096679688 674.82421875 c 2
 281.74609375 674.82421875 l 2
 290.24609375 674.82421875 299.313476562 673.124023438 308.946289062 669.723632812 c 0
 321.979492188 665.19140625 336.854492188 655.1328125 353.571289062 639.549804688 c 0
 370.288085938 623.966796875 387.288085938 605.125 404.571289062 583.025390625 c 0
 421.854492188 560.924804688 438.99609375 538.966796875 455.99609375 517.150390625 c 0
 472.99609375 495.333007812 490.98828125 472.807617188 509.971679688 449.575195312 c 0
 528.955078125 426.341796875 545.529296875 407.924804688 559.696289062 394.325195312 c 0
 566.49609375 387.525390625 569.896484375 378.174804688 569.896484375 366.275390625 c 0
 569.896484375 361.174804688 569.188476562 355.650390625 567.771484375 349.700195312 c 0
 566.354492188 343.75 564.229492188 337.658203125 561.396484375 331.424804688 c 0
 555.729492188 319.525390625 547.796875 311.025390625 537.596679688 305.924804688 c 0
 502.463867188 282.69140625 460.671875 252.94140625 412.221679688 216.674804688 c 0
 363.771484375 180.408203125 319.288085938 147.682617188 278.771484375 118.5 c 0
 238.254882812 89.31640625 202.696289062 66.224609375 172.096679688 49.224609375 c 0
 159.629882812 41.8583984375 148.012695312 38.1748046875 137.24609375 38.1748046875 c 0
EndSplineSet
Validated: 524289
EndChar

StartChar: question
Encoding: 63 63 38
Width: 570
VWidth: 903
GlyphClass: 2
Flags: HMW
HStem: 31.0008 151.302<254.167 319.049 263.517 319.049> 485.748 17.85G<266.349 267.766 267.766 274.566> 584.352 92.6458<417.083 422.465>
VStem: 279.667 98.6
LayerCount: 2
Fore
SplineSet
321.315429688 223.950195312 m 0
 316.783203125 223.950195312 311.966796875 224.517578125 306.866210938 225.650390625 c 0
 287.276367188 231.439453125 277.48046875 243.524414062 277.48046875 261.90625 c 0
 277.48046875 266.919921875 278.209960938 272.401367188 279.666992188 278.3515625 c 0
 281.366210938 286.284179688 284.483398438 294.784179688 289.016601562 303.8515625 c 0
 296.94921875 320.284179688 306.158203125 335.584960938 316.640625 349.751953125 c 0
 327.124023438 363.918945312 337.890625 376.1015625 348.940429688 386.301757812 c 0
 359.991210938 396.501953125 371.182617188 405.993164062 382.515625 414.776367188 c 0
 393.848632812 423.559570312 404.616210938 431.776367188 414.815429688 439.426757812 c 0
 425.015625 447.076171875 434.083007812 454.584960938 442.015625 461.951171875 c 0
 459.015625 477.818359375 469.499023438 494.251953125 473.465820312 511.251953125 c 0
 475.750976562 520.80859375 476.893554688 529.337890625 476.893554688 536.838867188 c 0
 476.893554688 549.794921875 473.484375 559.68359375 466.665039062 566.501953125 c 0
 455.33203125 578.40234375 436.065429688 584.352539062 408.865234375 584.352539062 c 0
 402.631835938 584.352539062 395.973632812 582.793945312 388.890625 579.677734375 c 0
 381.807617188 576.560546875 375.291015625 573.018554688 369.340820312 569.051757812 c 0
 363.390625 565.084960938 356.732421875 559.41796875 349.366210938 552.05078125 c 0
 341.999023438 544.68359375 336.048828125 538.591796875 331.515625 533.775390625 c 0
 326.982421875 528.958007812 321.315429688 522.44140625 314.515625 514.223632812 c 0
 307.715820312 506.006835938 301.057617188 499.490234375 294.541015625 494.672851562 c 0
 288.0234375 489.856445312 281.366210938 486.880859375 274.565429688 485.748046875 c 2
 267.765625 485.748046875 l 2
 264.932617188 485.748046875 261.815429688 486.315429688 258.416015625 487.448242188 c 0
 255.015625 488.581054688 250.19921875 490.564453125 243.965820312 493.397460938 c 0
 233.765625 500.197265625 228.666015625 509.830078125 228.666015625 522.297851562 c 0
 228.666015625 525.130859375 228.94921875 528.530273438 229.515625 532.497070312 c 0
 231.783203125 542.697265625 237.166015625 554.030273438 245.666015625 566.497070312 c 0
 254.732421875 578.96484375 264.932617188 591.005859375 276.265625 602.623046875 c 0
 287.598632812 614.240234375 301.056640625 625.998046875 316.639648438 637.8984375 c 0
 332.22265625 649.797851562 349.6484375 659.290039062 368.915039062 666.373046875 c 0
 388.181640625 673.456054688 407.44921875 676.998046875 426.715820312 676.998046875 c 0
 485.6484375 676.998046875 527.440429688 661.83984375 552.090820312 631.5234375 c 0
 567.9765625 611.985351562 575.918945312 586.388671875 575.918945312 554.73046875 c 0
 575.918945312 537.264648438 573.500976562 517.954101562 568.666015625 496.797851562 c 0
 564.69921875 480.365234375 558.749023438 465.20703125 550.815429688 451.32421875 c 0
 542.8828125 437.44140625 533.674804688 425.682617188 523.19140625 416.049804688 c 0
 512.708984375 406.416992188 501.94140625 397.4921875 490.891601562 389.275390625 c 0
 479.841796875 381.057617188 468.649414062 373.125 457.31640625 365.474609375 c 0
 445.983398438 357.825195312 435.358398438 349.891601562 425.44140625 341.674804688 c 0
 415.524414062 333.458007812 406.31640625 323.682617188 397.81640625 312.349609375 c 0
 389.31640625 301.016601562 382.799804688 288.266601562 378.266601562 274.099609375 c 0
 372.033203125 257.099609375 362.966796875 243.783203125 351.06640625 234.150390625 c 0
 342 227.349609375 332.083007812 223.950195312 321.315429688 223.950195312 c 0
263.516601562 31.0009765625 m 2
 244.81640625 31.0009765625 230.932617188 37.80078125 221.866210938 51.400390625 c 0
 214.559570312 62.16796875 210.907226562 74.1083984375 210.907226562 87.2236328125 c 0
 210.907226562 93.4365234375 211.7265625 99.912109375 213.366210938 106.651367188 c 0
 218.465820312 127.618164062 230.366210938 145.185546875 249.065429688 159.352539062 c 0
 268.8984375 174.65234375 289.015625 182.302734375 309.416015625 182.302734375 c 0
 328.682617188 182.302734375 343.416015625 175.501953125 353.616210938 161.90234375 c 0
 360.543945312 152.279296875 364.008789062 141.087890625 364.008789062 128.328125 c 0
 364.008789062 122.302734375 363.236328125 115.926757812 361.690429688 109.201171875 c 0
 356.874023438 88.234375 346.249023438 70.66796875 329.815429688 56.5009765625 c 0
 313.3828125 42.333984375 294.399414062 33.833984375 272.866210938 31.0009765625 c 2
 263.516601562 31.0009765625 l 2
EndSplineSet
Validated: 524289
EndChar

StartChar: at
Encoding: 64 64 39
Width: 570
VWidth: 892
GlyphClass: 2
Flags: HMW
HStem: -77.7222 93.5017<244.201 292.368 258.934 292.368> 132.225 89.2508<319.288 319.855> 357.05 85.425 553.827 96.8991<417.885 453.3>
VStem: 110.609 92.6517 507.563 83.7208
LayerCount: 2
Fore
SplineSet
379.6328125 168.775390625 m 1
 358.666015625 144.408203125 334.021484375 132.225585938 305.688476562 132.225585938 c 0
 271.688476562 132.225585938 247.74609375 143.983398438 233.86328125 167.5 c 0
 226.043945312 180.745117188 222.134765625 197.450195312 222.134765625 217.615234375 c 0
 222.134765625 233.25390625 224.486328125 250.974609375 229.189453125 270.775390625 c 0
 234.2890625 293.442382812 241.372070312 314.267578125 250.439453125 333.25 c 0
 259.505859375 352.233398438 269.706054688 368.525390625 281.0390625 382.125 c 0
 292.372070312 395.725585938 304.838867188 407.341796875 318.439453125 416.975585938 c 0
 342.239257812 433.975585938 367.739257812 442.475585938 394.939453125 442.475585938 c 0
 410.805664062 442.475585938 425.823242188 439.075195312 439.990234375 432.275390625 c 0
 452.45703125 426.608398438 461.806640625 418.958007812 468.040039062 409.325195312 c 0
 472.573242188 401.392578125 473.990234375 393.7421875 472.290039062 386.375 c 0
 471.72265625 382.408203125 469.740234375 378.158203125 466.33984375 373.625 c 0
 462.940429688 369.091796875 458.97265625 364.841796875 454.440429688 360.875 c 0
 449.907226562 356.908203125 445.08984375 354.075195312 439.990234375 352.375 c 0
 432.623046875 350.108398438 426.956054688 348.975585938 422.989257812 348.975585938 c 0
 416.189453125 348.975585938 408.822265625 350.108398438 400.889648438 352.375 c 0
 398.622070312 352.942382812 394.939453125 354.075195312 389.838867188 355.775390625 c 0
 384.171875 356.908203125 378.647460938 357.333007812 373.264648438 357.05078125 c 0
 367.880859375 356.767578125 362.213867188 354.784179688 356.264648438 351.1015625 c 0
 350.314453125 347.41796875 344.505859375 342.743164062 338.838867188 337.076171875 c 0
 333.171875 331.409179688 327.930664062 323.758789062 323.11328125 314.125976562 c 0
 318.296875 304.493164062 314.754882812 293.443359375 312.487304688 280.9765625 c 0
 310.787109375 274.17578125 309.512695312 267.659179688 308.662109375 261.42578125 c 0
 307.8125 255.193359375 307.670898438 248.67578125 308.237304688 241.875976562 c 0
 308.8046875 228.276367188 314.1875 221.4765625 324.387695312 221.4765625 c 0
 330.620117188 221.4765625 335.720703125 222.609375 339.6875 224.875976562 c 0
 345.354492188 227.142578125 350.171875 231.110351562 354.138671875 236.77734375 c 0
 363.205078125 249.244140625 371.705078125 270.77734375 379.638671875 301.376953125 c 0
 383.038085938 314.41015625 394.37109375 324.892578125 413.638671875 332.826171875 c 0
 424.405273438 336.79296875 434.038085938 339.059570312 442.538085938 339.626953125 c 0
 448.771484375 339.626953125 453.87109375 338.494140625 457.837890625 336.2265625 c 0
 465.63671875 332.557617188 469.53515625 326.473632812 469.53515625 317.9765625 c 0
 469.53515625 315.977539062 469.319335938 313.84375 468.887695312 311.577148438 c 0
 468.887695312 310.444335938 468.3203125 309.310546875 467.1875 308.177734375 c 0
 460.387695312 288.344726562 455.5703125 271.627929688 452.737304688 258.02734375 c 0
 449.337890625 242.727539062 447.637695312 229.694335938 447.637695312 218.927734375 c 0
 447.637695312 214.9609375 448.204101562 212.127929688 449.337890625 210.427734375 c 0
 450.470703125 207.594726562 452.170898438 206.177734375 454.4375 206.177734375 c 0
 455.5703125 207.310546875 456.987304688 209.010742188 458.6875 211.27734375 c 0
 462.654296875 218.078125 466.904296875 226.861328125 471.4375 237.627929688 c 0
 478.237304688 258.02734375 483.620117188 276.727539062 487.587890625 293.727539062 c 0
 494.387695312 322.060546875 499.345703125 348.268554688 502.462890625 372.3515625 c 0
 505.579101562 396.434570312 507.279296875 416.834960938 507.5625 433.551757812 c 0
 507.59375 435.407226562 507.609375 437.244140625 507.609375 439.061523438 c 0
 507.609375 453.615234375 506.6015625 466.936523438 504.586914062 479.02734375 c 0
 502.319335938 492.626953125 499.627929688 503.393554688 496.510742188 511.327148438 c 0
 493.393554688 519.259765625 489.143554688 526.059570312 483.760742188 531.7265625 c 0
 478.377929688 537.393554688 473.560546875 541.501953125 469.310546875 544.051757812 c 0
 465.060546875 546.6015625 459.9609375 548.7265625 454.010742188 550.426757812 c 0
 448.060546875 552.126953125 443.52734375 553.119140625 440.411132812 553.40234375 c 0
 437.293945312 553.684570312 432.90234375 553.827148438 427.235351562 553.827148438 c 0
 408.53515625 553.827148438 389.126953125 547.309570312 369.009765625 534.27734375 c 0
 348.893554688 521.244140625 329.485351562 502.543945312 310.78515625 478.176757812 c 0
 292.084960938 453.809570312 274.518554688 423.3515625 258.084960938 386.801757812 c 0
 241.65234375 350.251953125 228.619140625 310.444335938 218.986328125 267.376953125 c 0
 209.918945312 229.41015625 204.676757812 195.41015625 203.259765625 165.376953125 c 0
 202.88671875 157.47265625 202.700195312 149.98046875 202.700195312 142.900390625 c 0
 202.700195312 123.079101562 204.162109375 106.48828125 207.084960938 93.1279296875 c 0
 211.051757812 74.9951171875 217.28515625 59.8369140625 225.78515625 47.6533203125 c 0
 234.28515625 35.470703125 243.3515625 27.1123046875 252.985351562 22.5791015625 c 0
 262.618164062 18.046875 273.66796875 15.779296875 286.134765625 15.779296875 c 0
 298.6015625 15.779296875 310.360351562 17.1962890625 321.41015625 20.029296875 c 0
 332.459960938 22.8623046875 341.809570312 25.9794921875 349.459960938 29.3798828125 c 0
 357.110351562 32.779296875 364.759765625 37.5966796875 372.41015625 43.8291015625 c 0
 380.059570312 50.0625 386.29296875 55.8701171875 391.110351562 61.25390625 c 0
 395.926757812 66.63671875 401.735351562 73.294921875 408.53515625 81.2275390625 c 0
 411.934570312 85.7607421875 414.626953125 89.302734375 416.610351562 91.8525390625 c 0
 418.592773438 94.40234375 421.28515625 97.51953125 424.684570312 101.203125 c 0
 428.084960938 104.885742188 431.059570312 107.578125 433.610351562 109.27734375 c 0
 436.16015625 110.977539062 439.134765625 112.677734375 442.53515625 114.377929688 c 0
 445.934570312 116.078125 449.618164062 116.927734375 453.584960938 116.927734375 c 0
 457.551757812 116.927734375 461.235351562 116.078125 464.634765625 114.377929688 c 0
 469.735351562 112.111328125 473.702148438 109.27734375 476.53515625 105.877929688 c 0
 479.368164062 102.477539062 481.209960938 98.3701171875 482.059570312 93.552734375 c 0
 482.91015625 88.736328125 482.768554688 83.77734375 481.634765625 78.677734375 c 0
 479.368164062 69.044921875 474.268554688 57.427734375 466.334960938 43.828125 c 0
 461.235351562 35.328125 456.41796875 27.9609375 451.884765625 21.7275390625 c 0
 447.3515625 15.4951171875 441.40234375 7.8447265625 434.03515625 -1.22265625 c 0
 426.66796875 -10.2890625 419.30078125 -18.22265625 411.934570312 -25.0224609375 c 0
 404.567382812 -31.822265625 395.216796875 -38.763671875 383.883789062 -45.84765625 c 0
 372.55078125 -52.9306640625 360.934570312 -58.59765625 349.034179688 -62.84765625 c 0
 337.133789062 -67.09765625 323.817382812 -70.638671875 309.083984375 -73.47265625 c 0
 294.3515625 -76.3056640625 279.333984375 -77.72265625 264.034179688 -77.72265625 c 2
 258.934570312 -77.72265625 l 2
 229.466796875 -77.72265625 203.825195312 -69.7890625 182.008789062 -53.921875 c 0
 160.19140625 -38.0556640625 143.19140625 -16.5224609375 131.008789062 10.677734375 c 0
 118.825195312 37.8779296875 112.025390625 70.8857421875 110.608398438 109.703125 c 0
 110.435546875 114.4375 110.349609375 119.223632812 110.349609375 124.063476562 c 0
 110.349609375 158.904296875 114.827148438 196.475585938 123.783203125 236.77734375 c 0
 135.68359375 287.2109375 150.275390625 334.385742188 167.55859375 378.302734375 c 0
 184.841796875 422.219726562 204.108398438 460.469726562 225.358398438 493.052734375 c 0
 246.608398438 525.635742188 269.275390625 553.96875 293.358398438 578.051757812 c 0
 317.44140625 602.134765625 342.233398438 620.267578125 367.733398438 632.451171875 c 0
 393.233398438 644.633789062 418.733398438 650.7265625 444.233398438 650.7265625 c 0
 462.366210938 650.7265625 478.658203125 649.16796875 493.108398438 646.05078125 c 0
 507.55859375 642.934570312 521.158203125 637.55078125 533.908203125 629.901367188 c 0
 546.658203125 622.250976562 557 612.193359375 564.93359375 599.7265625 c 0
 572.866210938 587.258789062 579.241210938 571.67578125 584.05859375 552.9765625 c 0
 588.875 534.276367188 591.283203125 512.458984375 591.283203125 487.526367188 c 0
 591.283203125 435.392578125 581.93359375 370.2265625 563.233398438 292.026367188 c 0
 553.033203125 248.958984375 538.583007812 211.276367188 519.883789062 178.9765625 c 0
 509.116210938 160.842773438 496.508789062 146.250976562 482.05859375 135.201171875 c 0
 467.608398438 124.151367188 452.166015625 118.625976562 435.733398438 118.625976562 c 0
 411.366210938 118.625976562 394.649414062 127.409179688 385.583007812 144.9765625 c 0
 382.182617188 151.208984375 380.19921875 159.142578125 379.6328125 168.775390625 c 1
EndSplineSet
Validated: 524289
EndChar

StartChar: A
Encoding: 65 65 40
Width: 570
VWidth: 903
GlyphClass: 2
Flags: HMW
HStem: 48.8981 17.85G<106.43 112.947> 267.35 78.1983<438.209 438.209>
VStem: 438.21 93.0767 442.464 98.5983
LayerCount: 2
Fore
SplineSet
166.209960938 95.6494140625 m 0xe0
 155.442382812 75.25 143.547851562 61.6484375 130.514648438 54.84765625 c 0
 123.147460938 50.880859375 116.206054688 48.8984375 109.688476562 48.8984375 c 0
 103.171875 48.8984375 97.3642578125 50.3154296875 92.263671875 53.1484375 c 0
 83.763671875 57.681640625 78.380859375 64.7646484375 76.1142578125 74.3974609375 c 0
 74.4140625 81.7646484375 74.5556640625 89.8388671875 76.5390625 98.6220703125 c 0
 78.521484375 107.405273438 81.7802734375 116.61328125 86.3125 126.24609375 c 0
 93.6796875 143.813476562 117.762695312 184.896484375 158.5625 249.49609375 c 1
 153.83984375 255.635742188 151.478515625 262.956054688 151.478515625 271.45703125 c 0
 151.478515625 273.15625 151.573242188 274.903320312 151.76171875 276.697265625 c 0
 151.76171875 277.264648438 152.044921875 277.831054688 152.612304688 278.3984375 c 0
 154.87890625 288.59765625 161.396484375 297.665039062 172.163085938 305.59765625 c 0
 181.229492188 312.96484375 191.712890625 318.631835938 203.61328125 322.598632812 c 1
 307.3125 477.298828125 384.095703125 581.282226562 433.962890625 634.548828125 c 0
 445.86328125 646.44921875 456.345703125 655.232421875 465.413085938 660.899414062 c 0
 474.479492188 667.131835938 484.11328125 670.249023438 494.3125 670.249023438 c 0
 497.146484375 670.249023438 499.413085938 670.532226562 501.11328125 671.098632812 c 0
 511.879882812 671.098632812 520.663085938 668.265625 527.462890625 662.598632812 c 0
 536.643554688 656.478515625 541.233398438 647.145507812 541.233398438 634.599609375 c 0
 541.233398438 633.205078125 541.176757812 631.772460938 541.0625 630.298828125 c 0xd0
 537.095703125 562.298828125 533.979492188 466.249023438 531.711914062 342.149414062 c 0
 531.064453125 302.641601562 530.741210938 269.102539062 530.741210938 241.53125 c 0
 530.741210938 220.856445312 530.922851562 203.537109375 531.287109375 189.575195312 c 0
 532.13671875 156.9921875 533.6953125 137.016601562 535.961914062 129.649414062 c 0
 537.732421875 123.274414062 538.618164062 117.12109375 538.618164062 111.188476562 c 0
 538.618164062 107.62890625 538.299804688 104.149414062 537.662109375 100.75 c 0
 537.094726562 99.0498046875 536.528320312 97.06640625 535.9609375 94.7998046875 c 0
 532.561523438 84.599609375 527.319335938 75.9580078125 520.236328125 68.875 c 0
 513.153320312 61.7919921875 505.361328125 56.5498046875 496.861328125 53.1494140625 c 0
 487.228515625 50.31640625 481.278320312 48.8994140625 479.01171875 48.8994140625 c 0
 472.2109375 48.8994140625 465.694335938 50.8828125 459.4609375 54.849609375 c 0
 448.694335938 61.6494140625 442.177734375 74.966796875 439.91015625 94.7998046875 c 0
 438.139648438 106.133789062 437.25390625 132.852539062 437.25390625 174.956054688 c 0
 437.25390625 200.216796875 437.573242188 231.014648438 438.2109375 267.349609375 c 1
 371.34375 264.516601562 310.426757812 258.849609375 255.459960938 250.349609375 c 1
 227.126953125 206.149414062 197.376953125 154.583007812 166.209960938 95.6494140625 c 0xe0
309.864257812 336.198242188 m 1
 356.897460938 341.297851562 399.681640625 344.415039062 438.21484375 345.547851562 c 1
 442.46484375 536.797851562 l 1
 410.731445312 495.998046875 366.53125 429.130859375 309.864257812 336.198242188 c 1
EndSplineSet
Validated: 524289
EndChar

StartChar: B
Encoding: 66 66 41
Width: 570
VWidth: 901
GlyphClass: 2
Flags: HMW
HStem: 31.9002 17.85G<140.863 147.096> 293.702 83.2983 565.704 88.3991<376.881 381.13>
LayerCount: 2
Fore
SplineSet
92.9794921875 87.150390625 m 0
 98.0791015625 103.583007812 105.163085938 131.353515625 114.23046875 170.453125 c 0
 131.23046875 244.686523438 148.796875 326.853515625 166.930664062 416.953125 c 0
 174.296875 453.786132812 179.397460938 478.578125 182.23046875 491.328125 c 0
 185.063476562 504.078125 189.313476562 521.078125 194.98046875 542.328125 c 0
 200.647460938 563.578125 204.614257812 578.170898438 206.880859375 586.103515625 c 0
 211.4140625 603.670898438 219.489257812 617.270507812 231.106445312 626.903320312 c 0
 242.72265625 636.536132812 255.047851562 641.353515625 268.081054688 641.353515625 c 2
 270.630859375 641.353515625 l 1
 285.931640625 645.88671875 304.34765625 649.286132812 325.880859375 651.553710938 c 0
 334.948242188 652.686523438 344.297851562 653.39453125 353.931640625 653.677734375 c 0
 363.564453125 653.9609375 371.213867188 654.102539062 376.880859375 654.102539062 c 2
 393.880859375 654.102539062 l 1
 404.081054688 654.102539062 l 2
 444.314453125 654.102539062 478.880859375 647.01953125 507.78125 632.852539062 c 0
 536.114257812 618.685546875 555.380859375 597.435546875 565.581054688 569.102539062 c 0
 572.057617188 552.912109375 575.294921875 535.241210938 575.294921875 516.08984375 c 0
 575.294921875 501.7265625 573.473632812 486.53125 569.831054688 470.502929688 c 0
 562.463867188 438.203125 548.296875 410.15234375 527.330078125 386.352539062 c 0
 512.030273438 368.219726562 494.463867188 353.76953125 474.629882812 343.002929688 c 1
 485.397460938 337.3359375 495.314453125 330.818359375 504.380859375 323.452148438 c 0
 519.114257812 310.985351562 531.014648438 296.818359375 540.081054688 280.951171875 c 0
 546.674804688 269.411132812 549.971679688 258.022460938 549.971679688 246.783203125 c 0
 549.971679688 242.567382812 549.508789062 238.374023438 548.581054688 234.201171875 c 0
 548.581054688 233.633789062 548.297851562 233.350585938 547.731445312 233.350585938 c 0
 542.630859375 211.250976562 532.1484375 189.434570312 516.28125 167.901367188 c 0
 500.4140625 146.368164062 480.296875 126.67578125 455.930664062 108.826171875 c 0
 431.563476562 90.9755859375 401.24609375 75.818359375 364.979492188 63.3505859375 c 0
 328.146484375 50.8837890625 289.329101562 42.951171875 248.529296875 39.55078125 c 1
 244.291015625 42.2939453125 239.778320312 43.6650390625 234.991210938 43.6650390625 c 0
 228.8984375 43.6650390625 222.361328125 41.443359375 215.379882812 37.0009765625 c 1
 187.612304688 34.734375 170.329101562 33.3173828125 163.529296875 32.75 c 0
 156.729492188 32.18359375 150.212890625 31.900390625 143.979492188 31.900390625 c 0
 137.74609375 31.900390625 132.079101562 32.466796875 126.979492188 33.6005859375 c 2
 125.279296875 33.6005859375 l 2
 112.24609375 33.6005859375 102.329101562 38.4169921875 95.529296875 48.0498046875 c 0
 91.9873046875 53.3623046875 90.216796875 59.6708984375 90.216796875 66.9755859375 c 0
 90.216796875 71.3583984375 90.8544921875 76.099609375 92.1298828125 81.2001953125 c 0
 92.1298828125 83.466796875 92.412109375 85.4501953125 92.9794921875 87.150390625 c 0
257.030273438 393.153320312 m 0
 255.897460938 387.486328125 254.76171875 382.100585938 253.62890625 377 c 1
 276.861328125 376.43359375 297.829101562 376.0078125 316.528320312 375.725585938 c 0
 318.397460938 375.697265625 320.2421875 375.682617188 322.063476562 375.682617188 c 0
 338.4609375 375.682617188 352.908203125 376.830078125 365.403320312 379.125 c 0
 379.287109375 381.674804688 391.186523438 384.93359375 401.103515625 388.900390625 c 0
 411.020507812 392.8671875 420.087890625 397.684570312 428.3046875 403.350585938 c 0
 436.521484375 409.017578125 443.038085938 414.684570312 447.85546875 420.3515625 c 0
 452.671875 426.018554688 457.205078125 432.393554688 461.455078125 439.4765625 c 0
 465.705078125 446.559570312 468.963867188 452.934570312 471.23046875 458.6015625 c 0
 473.497070312 464.268554688 475.197265625 470.21875 476.330078125 476.452148438 c 0
 477.821289062 483.013671875 478.567382812 489.33984375 478.567382812 495.430664062 c 0
 478.567382812 500.912109375 477.962890625 506.203125 476.754882812 511.302734375 c 0
 474.205078125 522.069335938 469.530273438 530.711914062 462.73046875 537.228515625 c 0
 455.930664062 543.745117188 447.997070312 549.270507812 438.930664062 553.803710938 c 0
 422.993164062 561.772460938 405.063476562 565.756835938 385.142578125 565.756835938 c 0
 383.814453125 565.756835938 382.4765625 565.739257812 381.129882812 565.703125 c 0
 353.930664062 565.703125 326.73046875 563.153320312 299.530273438 558.053710938 c 1
 296.697265625 547.853515625 292.73046875 532.553710938 287.629882812 512.153320312 c 0
 275.73046875 470.220703125 265.530273438 430.553710938 257.030273438 393.153320312 c 0
429.153320312 192.125 m 0
 439.069335938 203.174804688 444.879882812 212.670898438 446.579101562 220.603515625 c 0
 447.712890625 225.13671875 446.4375 230.51953125 442.754882812 236.752929688 c 0
 439.071289062 242.985351562 432.271484375 249.643554688 422.354492188 256.7265625 c 0
 412.4375 263.809570312 397.420898438 270.751953125 377.303710938 277.551757812 c 0
 357.186523438 284.3515625 333.811523438 289.735351562 307.178710938 293.702148438 c 1
 236.62890625 293.702148438 l 1
 220.76171875 215.501953125 209.14453125 157.418945312 201.778320312 119.452148438 c 1
 207.444335938 119.452148438 215.944335938 119.59375 227.278320312 119.876953125 c 0
 238.611328125 120.16015625 247.9609375 120.584960938 255.328125 121.15234375 c 0
 280.828125 122.28515625 305.477539062 126.392578125 329.278320312 133.475585938 c 0
 353.078125 140.559570312 373.194335938 149.341796875 389.627929688 159.825195312 c 0
 406.060546875 170.30859375 419.236328125 181.075195312 429.153320312 192.125 c 0
EndSplineSet
Validated: 524289
EndChar

StartChar: C
Encoding: 67 67 42
Width: 570
VWidth: 903
GlyphClass: 2
Flags: HMW
HStem: 26.9019 96.9009<246.312 299.012 258.495 299.012> 570.054 89.2466<495.362 496.212>
LayerCount: 2
Fore
SplineSet
645.24609375 641.44921875 m 0
 645.24609375 619.349609375 642.129882812 595.8359375 635.897460938 570.90234375 c 0
 631.930664062 553.90234375 629.379882812 543.703125 628.247070312 540.302734375 c 0
 624.84765625 526.135742188 616.772460938 511.828125 604.022460938 497.377929688 c 0
 591.272460938 482.927734375 579.23046875 475.135742188 567.897460938 474.002929688 c 0
 565.629882812 474.002929688 563.080078125 473.719726562 560.247070312 473.15234375 c 0
 550.614257812 473.15234375 542.114257812 476.552734375 534.747070312 483.352539062 c 0
 526.029296875 490.327148438 521.669921875 499.145507812 521.669921875 509.80859375 c 0
 521.669921875 513.0078125 522.0625 516.372070312 522.84765625 519.90234375 c 0
 523.98046875 523.870117188 526.813476562 534.069335938 531.346679688 550.502929688 c 1
 525.11328125 555.036132812 521.146484375 558.010742188 519.446289062 559.427734375 c 0
 517.74609375 560.844726562 515.196289062 562.686523438 511.796875 564.954101562 c 0
 505.563476562 568.353515625 499.330078125 570.053710938 493.09765625 570.053710938 c 0
 477.23046875 570.053710938 458.530273438 564.954101562 436.997070312 554.75390625 c 0
 415.463867188 544.553710938 393.647460938 529.678710938 371.546875 510.12890625 c 0
 349.447265625 490.579101562 328.055664062 468.1953125 307.372070312 442.978515625 c 0
 286.689453125 417.76171875 268.272460938 389.14453125 252.122070312 357.127929688 c 0
 235.97265625 325.111328125 224.213867188 293.236328125 216.84765625 261.502929688 c 0
 214.147460938 249.502929688 212.796875 237.701171875 212.796875 226.098632812 c 0
 212.796875 215.78515625 213.864257812 205.627929688 215.997070312 195.627929688 c 0
 220.530273438 174.377929688 229.455078125 157.094726562 242.772460938 143.77734375 c 0
 256.088867188 130.4609375 271.814453125 123.802734375 289.947265625 123.802734375 c 0
 308.080078125 123.802734375 325.930664062 125.64453125 343.497070312 129.328125 c 0
 361.064453125 133.010742188 377.213867188 137.685546875 391.947265625 143.352539062 c 0
 406.680664062 149.01953125 419.572265625 154.828125 430.622070312 160.77734375 c 0
 441.671875 166.727539062 452.014648438 172.819335938 461.647460938 179.052734375 c 0
 470.147460938 184.719726562 477.796875 189.252929688 484.59765625 192.65234375 c 0
 491.397460938 196.052734375 498.622070312 197.611328125 506.272460938 197.328125 c 0
 513.921875 197.044921875 520.296875 194.352539062 525.397460938 189.252929688 c 0
 532.67578125 181.974609375 536.314453125 173.645507812 536.314453125 164.264648438 c 0
 536.314453125 161.228515625 535.93359375 158.083007812 535.171875 154.828125 c 0
 532.0546875 141.510742188 522.279296875 126.918945312 505.846679688 111.051757812 c 0
 447.497070312 54.9462890625 368.594726562 26.8935546875 269.137695312 26.8935546875 c 0
 268.142578125 26.8935546875 267.145507812 26.896484375 266.146484375 26.90234375 c 2
 258.49609375 26.90234375 l 2
 234.129882812 26.90234375 211.74609375 30.869140625 191.346679688 38.8017578125 c 0
 171.513671875 46.7353515625 155.930664062 57.501953125 144.59765625 71.1015625 c 0
 133.264648438 84.7021484375 124.197265625 100.28515625 117.397460938 117.8515625 c 0
 110.59765625 135.418945312 106.9140625 154.119140625 106.34765625 173.952148438 c 0
 106.284179688 176.15625 106.252929688 178.361328125 106.252929688 180.56640625 c 0
 106.252929688 198.194335938 108.267578125 215.823242188 112.296875 233.451171875 c 0
 121.9296875 274.250976562 135.104492188 313.776367188 151.821289062 352.026367188 c 0
 168.538085938 390.276367188 187.23828125 424.701171875 207.921875 455.30078125 c 0
 228.604492188 485.901367188 251.412109375 514.234375 276.345703125 540.30078125 c 0
 301.845703125 565.80078125 327.912109375 587.193359375 354.545898438 604.4765625 c 0
 381.178710938 621.758789062 407.528320312 635.216796875 433.595703125 644.850585938 c 0
 459.662109375 654.483398438 484.029296875 659.30078125 506.696289062 659.30078125 c 0
 524.829101562 659.30078125 541.546875 657.883789062 556.846679688 655.05078125 c 1
 561.379882812 661.283203125 566.762695312 666.666015625 572.995117188 671.19921875 c 0
 582.0625 677.999023438 591.129882812 681.682617188 600.196289062 682.249023438 c 0
 603.596679688 682.81640625 605.721679688 683.099609375 606.571289062 683.099609375 c 2
 607.846679688 683.099609375 l 2
 616.346679688 683.099609375 623.99609375 680.266601562 630.796875 674.599609375 c 0
 640.4296875 666.666015625 645.24609375 655.616210938 645.24609375 641.44921875 c 0
EndSplineSet
Validated: 524289
EndChar

StartChar: D
Encoding: 68 68 43
Width: 570
VWidth: 901
GlyphClass: 2
Flags: HMW
HStem: 24.871 93.5008<297.037 345.772 310.07 345.772> 641.121 17G<253.122 268.989>
LayerCount: 2
Fore
SplineSet
256.948242188 124.321289062 m 0
 279.8984375 120.354492188 307.240234375 118.372070312 338.973632812 118.372070312 c 0
 352.573242188 118.372070312 366.740234375 123.188476562 381.473632812 132.822265625 c 0
 396.206054688 142.455078125 409.6640625 155.063476562 421.84765625 170.646484375 c 0
 434.030273438 186.229492188 445.080078125 203.654296875 454.997070312 222.920898438 c 0
 464.9140625 242.188476562 471.856445312 260.887695312 475.823242188 279.021484375 c 0
 481.73828125 304.510742188 484.6953125 328.513671875 484.6953125 351.029296875 c 0
 484.6953125 419.110351562 457.655273438 473.590820312 403.573242188 514.470703125 c 0
 378.073242188 533.73828125 338.973632812 553.571289062 286.2734375 573.970703125 c 1
 268.706054688 504.837890625 252.556640625 432.587890625 237.823242188 357.220703125 c 0
 232.723632812 332.854492188 225.498046875 297.295898438 216.1484375 250.545898438 c 0
 206.797851562 203.795898438 199.573242188 167.954101562 194.473632812 143.021484375 c 1
 213.172851562 134.521484375 233.998046875 128.288085938 256.948242188 124.321289062 c 0
84.822265625 103.920898438 m 0
 90.4892578125 123.188476562 98.140625 153.220703125 107.7734375 194.021484375 c 0
 124.7734375 268.821289062 143.755859375 357.788085938 164.723632812 460.920898438 c 0
 170.956054688 491.521484375 175.206054688 511.779296875 177.473632812 521.696289062 c 0
 179.740234375 531.61328125 183.70703125 546.771484375 189.374023438 567.170898438 c 0
 193.713867188 582.794921875 196.55859375 593.432617188 197.907226562 599.084960938 c 0
 197.99609375 599.666015625 198.268554688 601.2109375 198.724609375 603.720703125 c 0
 203.2578125 621.287109375 211.19140625 634.604492188 222.524414062 643.670898438 c 0
 233.857421875 653.303710938 246.32421875 658.12109375 259.923828125 658.12109375 c 0
 278.056640625 658.12109375 301.006835938 655.288085938 328.774414062 649.62109375 c 0
 346.340820312 646.220703125 364.19140625 641.545898438 382.32421875 635.595703125 c 0
 400.45703125 629.646484375 419.440429688 621.288085938 439.2734375 610.521484375 c 0
 459.106445312 599.75390625 477.5234375 587.428710938 494.5234375 573.545898438 c 0
 511.5234375 559.663085938 526.823242188 541.955078125 540.422851562 520.421875 c 0
 552.890625 499.455078125 562.5234375 476.36328125 569.323242188 451.146484375 c 0
 575.599609375 427.869140625 578.73828125 400.73046875 578.73828125 369.729492188 c 0
 578.73828125 367.145507812 578.716796875 364.534179688 578.672851562 361.896484375 c 0
 578.106445312 327.61328125 573.2890625 290.637695312 564.22265625 250.970703125 c 0
 559.689453125 231.137695312 552.463867188 210.73828125 542.547851562 189.771484375 c 0
 532.630859375 168.803710938 520.163085938 148.6875 505.146484375 129.419921875 c 0
 490.129882812 110.153320312 473.5546875 92.728515625 455.421875 77.1455078125 c 0
 437.288085938 61.5625 416.321289062 48.9541015625 392.521484375 39.3212890625 c 0
 369.4375 29.658203125 346.099609375 24.826171875 322.5078125 24.826171875 c 0
 321.196289062 24.826171875 319.884765625 24.8408203125 318.571289062 24.87109375 c 2
 310.071289062 24.87109375 l 2
 284.004882812 24.87109375 258.221679688 26.146484375 232.721679688 28.6962890625 c 0
 207.221679688 31.24609375 186.821289062 34.220703125 171.521484375 37.62109375 c 0
 156.788085938 41.021484375 144.60546875 44.1376953125 134.97265625 46.970703125 c 0
 125.338867188 49.8037109375 119.389648438 51.220703125 117.122070312 51.220703125 c 0
 104.088867188 51.220703125 94.1728515625 56.0380859375 87.3720703125 65.6708984375 c 0
 83.5947265625 71.337890625 81.705078125 78.0126953125 81.705078125 85.6943359375 c 0
 81.705078125 89.53515625 82.177734375 93.626953125 83.12109375 97.970703125 c 0
 83.6884765625 100.23828125 84.255859375 102.220703125 84.822265625 103.920898438 c 0
198.333007812 600.924804688 m 1
 198.514648438 601.743164062 198.64453125 602.391601562 198.724609375 602.87109375 c 1
 198.57421875 602.1171875 198.443359375 601.46875 198.333007812 600.924804688 c 1
EndSplineSet
Validated: 524289
EndChar

StartChar: E
Encoding: 69 69 44
Width: 570
VWidth: 901
GlyphClass: 2
Flags: HMW
HStem: 34.3 97.75 46.2 97.75<441.049 491.764 446.999 491.764> 307.15 92.6491 322.45 90.1<511.032 543.897> 552.798 91.7983<439.629 465.697 423.197 484.113>
VStem: 203.898 0.85<595.3 595.3>
LayerCount: 2
Fore
SplineSet
268.497070312 649.700195312 m 2x8c
 281.530273438 649.700195312 291.448242188 645.1640625 298.248046875 636.096679688 c 1
 345.28125 641.763671875 404.213867188 644.596679688 475.046875 644.596679688 c 0
 493.180664062 644.596679688 510.462890625 644.313476562 526.896484375 643.747070312 c 0
 559.763671875 642.61328125 584.98046875 640.9140625 602.546875 638.646484375 c 0
 616.713867188 636.946289062 626.206054688 632.5546875 631.0234375 625.471679688 c 0
 634.298828125 620.655273438 635.936523438 614.725585938 635.936523438 607.681640625 c 0
 635.936523438 604.366210938 635.573242188 600.8046875 634.84765625 596.997070312 c 0
 633.71484375 590.763671875 631.873046875 584.955078125 629.323242188 579.572265625 c 0
 626.7734375 574.189453125 623.514648438 569.231445312 619.547851562 564.698242188 c 0
 615.014648438 559.03125 609.065429688 554.498046875 601.698242188 551.098632812 c 0
 596.59765625 549.3984375 591.21484375 548.548828125 585.547851562 548.548828125 c 2
 579.59765625 548.548828125 l 2
 543.8984375 551.381835938 505.930664062 552.798828125 465.698242188 552.798828125 c 2
 423.198242188 552.798828125 l 2
 372.764648438 551.665039062 328.565429688 548.83203125 290.59765625 544.298828125 c 1
 276.998046875 495.56640625 264.815429688 447.399414062 254.047851562 399.798828125 c 1
 294.84765625 400.366210938 350.380859375 402.6328125 420.6484375 406.599609375 c 0
 489.21484375 410.567382812 527.748046875 412.549804688 536.248046875 412.549804688 c 0
 551.547851562 412.549804688 561.606445312 408.583007812 566.422851562 400.650390625 c 0
 569.456054688 395.655273438 570.97265625 389.873046875 570.97265625 383.3046875 c 0
 570.97265625 379.442382812 570.448242188 375.306640625 569.3984375 370.900390625 c 2
 569.3984375 370.049804688 l 2
 566.565429688 356.450195312 561.182617188 345.966796875 553.25 338.599609375 c 0
 543.049804688 327.833007812 530.583007812 322.450195312 515.849609375 322.450195312 c 0x9c
 506.216796875 322.450195312 464.849609375 320.182617188 391.75 315.650390625 c 0
 316.950195312 310.549804688 264.25 307.716796875 233.649414062 307.150390625 c 1
 230.81640625 293.549804688 227.841796875 279.950195312 224.724609375 266.349609375 c 0
 221.607421875 252.75 218.6328125 238.583007812 215.799804688 223.849609375 c 0
 207.299804688 185.8828125 202.200195312 159.533203125 200.5 144.799804688 c 0
 199.932617188 139.700195312 199.366210938 135.450195312 198.798828125 132.049804688 c 1xac
 208.999023438 130.916992188 224.58203125 130.208984375 245.548828125 129.92578125 c 0
 249.740234375 129.869140625 254.145507812 129.840820312 258.766601562 129.840820312 c 0
 277.264648438 129.840820312 299.208984375 130.293945312 324.598632812 131.201171875 c 0
 398.83203125 134.034179688 446.1484375 137.716796875 466.548828125 142.25 c 0
 475.048828125 143.3828125 482.416015625 143.950195312 488.6484375 143.950195312 c 0
 494.881835938 143.950195312 500.124023438 142.533203125 504.374023438 139.700195312 c 0
 508.624023438 136.8671875 512.0234375 133.891601562 514.57421875 130.775390625 c 0
 517.124023438 127.658203125 518.681640625 123.833007812 519.249023438 119.299804688 c 0
 519.815429688 114.766601562 520.098632812 110.799804688 520.098632812 107.400390625 c 0
 520.098632812 104 519.815429688 100.317382812 519.249023438 96.349609375 c 0
 516.416015625 83.3173828125 509.333007812 71.4169921875 498 60.650390625 c 0
 487.799804688 51.0166015625 475.899414062 45.9169921875 462.299804688 45.349609375 c 1
 460.033203125 52.716796875 455.783203125 53 449.549804688 46.2001953125 c 1
 447 46.2001953125 l 2x4c
 435.099609375 46.2001953125 412.149414062 45.0673828125 378.149414062 42.7998046875 c 0
 343.016601562 40.533203125 307.033203125 38.5498046875 270.200195312 36.849609375 c 0
 233.3671875 35.150390625 205.600585938 34.2998046875 186.900390625 34.2998046875 c 0
 168.767578125 34.2998046875 154.317382812 34.8671875 143.55078125 36 c 0
 129.383789062 37.1328125 116.916992188 44.5 106.149414062 58.099609375 c 0
 97.255859375 68.8662109375 92.80859375 81.759765625 92.80859375 96.779296875 c 0
 92.80859375 99.9423828125 93.005859375 103.19921875 93.3994140625 106.549804688 c 0
 94.533203125 120.150390625 99.0654296875 143.950195312 106.999023438 177.950195312 c 0
 114.366210938 209.1171875 121.874023438 240.424804688 129.5234375 271.875 c 0
 137.173828125 303.325195312 143.548828125 330.099609375 148.6484375 352.200195312 c 0
 153.749023438 374.299804688 159.982421875 404.6171875 167.348632812 443.150390625 c 0
 174.1484375 476.016601562 178.82421875 497.974609375 181.374023438 509.025390625 c 0
 183.923828125 520.075195312 188.032226562 535.799804688 193.69921875 556.200195312 c 0
 198.793945312 574.541015625 202.056640625 586.927734375 203.486328125 593.359375 c 1
 202.881835938 590.313476562 203.302734375 590.959960938 204.749023438 595.299804688 c 0
 209.282226562 612.8671875 217.21484375 626.325195312 228.547851562 635.674804688 c 0
 239.880859375 645.025390625 252.064453125 649.700195312 265.09765625 649.700195312 c 2
 268.497070312 649.700195312 l 2x8c
203.486328125 593.359375 m 1
 203.592773438 593.892578125 203.73046875 594.540039062 203.8984375 595.299804688 c 1
 203.784179688 594.728515625 203.647460938 594.081054688 203.486328125 593.359375 c 1
EndSplineSet
Validated: 524289
EndChar

StartChar: F
Encoding: 70 70 45
Width: 570
VWidth: 901
GlyphClass: 2
Flags: HMW
HStem: 34.1232 17.85G<113.446 119.963 119.963 122.513> 318.448 90.5267 559.425 93.5<468.745 502.745> 641.875 17G<267.012 271.262 271.262 278.062>
LayerCount: 2
Fore
SplineSet
271.262695312 658.875 m 2xd0
 284.862304688 658.875 294.779296875 654.341796875 301.012695312 645.274414062 c 1
 370.145507812 650.375 436.728515625 652.924804688 500.76171875 652.924804688 c 0
 542.694335938 652.924804688 576.977539062 651.5078125 603.610351562 648.674804688 c 0
 617.77734375 647.541992188 627.26953125 643.291992188 632.086914062 635.924804688 c 0
 635.646484375 630.479492188 637.426757812 623.641601562 637.426757812 615.41015625 c 0
 637.426757812 612.504882812 637.205078125 609.426757812 636.76171875 606.173828125 c 0
 635.061523438 598.806640625 634.778320312 598.806640625 635.911132812 606.173828125 c 1
 633.078125 593.140625 626.845703125 581.807617188 617.212890625 572.174804688 c 0
 607.579101562 562.541992188 595.112304688 557.724609375 579.8125 557.724609375 c 2
 578.112304688 557.724609375 l 2
 549.779296875 558.857421875 519.1796875 559.424804688 486.3125 559.424804688 c 0xe0
 425.112304688 559.424804688 360.512695312 557.158203125 292.512695312 552.625 c 1
 290.245117188 544.125 286.5625 531.091796875 281.462890625 513.524414062 c 0
 272.395507812 480.091796875 264.745117188 448.924804688 258.512695312 420.024414062 c 0
 257.37890625 414.924804688 256.24609375 410.107421875 255.11328125 405.575195312 c 1
 277.212890625 407.841796875 301.013671875 408.974609375 326.513671875 408.974609375 c 0
 333.313476562 408.974609375 340.11328125 408.69140625 346.913085938 408.125 c 0
 384.313476562 407.557617188 418.030273438 406.140625 448.063476562 403.874023438 c 0
 478.663085938 401.607421875 501.471679688 398.915039062 516.48828125 395.797851562 c 0
 531.504882812 392.681640625 541.280273438 387.864257812 545.813476562 381.34765625 c 0
 549.110351562 376.607421875 550.758789062 370.594726562 550.758789062 363.306640625 c 0
 550.758789062 360.57421875 550.526367188 357.663085938 550.063476562 354.572265625 c 1
 550.063476562 355.139648438 549.780273438 355.139648438 549.212890625 354.572265625 c 0
 546.379882812 342.671875 541.563476562 332.189453125 534.763671875 323.122070312 c 0
 530.23046875 317.455078125 523.997070312 313.205078125 516.064453125 310.372070312 c 0
 510.963867188 308.671875 505.581054688 307.822265625 499.9140625 307.822265625 c 2
 493.963867188 307.822265625 l 2
 478.6640625 310.655273438 455.713867188 313.205078125 425.114257812 315.47265625 c 0
 395.895507812 317.487304688 365.668945312 318.495117188 334.435546875 318.495117188 c 0
 330.53515625 318.495117188 326.619140625 318.479492188 322.688476562 318.448242188 c 0
 287.271484375 318.165039062 257.946289062 316.889648438 234.712890625 314.623046875 c 1
 219.98046875 240.956054688 204.680664062 163.323242188 188.813476562 81.7236328125 c 0
 183.712890625 66.4228515625 173.795898438 54.5234375 159.063476562 46.0234375 c 0
 147.163085938 38.08984375 134.98046875 34.123046875 122.513671875 34.123046875 c 2
 119.962890625 34.123046875 l 2
 106.930664062 34.123046875 97.013671875 38.9404296875 90.212890625 48.5732421875 c 0
 86.671875 53.8857421875 84.900390625 60.1943359375 84.900390625 67.4990234375 c 0
 84.900390625 71.8818359375 85.5380859375 76.623046875 86.8134765625 81.7236328125 c 0
 87.3798828125 83.4228515625 87.6630859375 85.40625 87.6630859375 87.6728515625 c 0
 92.763671875 105.240234375 100.413085938 134.70703125 110.61328125 176.07421875 c 0
 128.74609375 254.274414062 146.87890625 340.69140625 165.012695312 435.32421875 c 0
 172.37890625 472.157226562 177.62109375 496.94921875 180.73828125 509.69921875 c 0
 183.85546875 522.44921875 188.388671875 539.44921875 194.337890625 560.69921875 c 0
 200.288085938 581.94921875 204.11328125 596.541015625 205.813476562 604.473632812 c 0
 210.346679688 622.041015625 218.279296875 635.357421875 229.612304688 644.424804688 c 0
 240.9453125 654.057617188 253.412109375 658.875 267.012695312 658.875 c 2
 271.262695312 658.875 l 2xd0
EndSplineSet
Validated: 524289
EndChar

StartChar: G
Encoding: 71 71 46
Width: 570
VWidth: 901
GlyphClass: 2
Flags: HMW
HStem: 25.625 96.9<246.249 294.981> 578.125 89.25<496.715 497.563>
LayerCount: 2
Fore
SplineSet
104.580078125 172.674804688 m 2
 104.580078125 179.474609375 l 2
 104.580078125 197.325195312 106.279296875 214.325195312 110.529296875 232.174804688 c 0
 119.879882812 273.825195312 133.479492188 313.775390625 150.479492188 352.875 c 0
 167.479492188 391.974609375 186.1796875 427.674804688 207.4296875 459.125 c 0
 228.6796875 490.575195312 251.629882812 518.625 276.279296875 544.974609375 c 0
 302.629882812 571.325195312 328.979492188 593.424804688 355.330078125 611.275390625 c 0
 381.6796875 629.125 407.1796875 642.724609375 433.529296875 652.075195312 c 0
 459.879882812 662.275390625 485.379882812 667.375 509.1796875 667.375 c 0
 532.979492188 667.375 558.479492188 661.424804688 584.830078125 650.375 c 0
 611.1796875 638.474609375 627.330078125 628.275390625 634.129882812 618.924804688 c 0
 639.229492188 611.275390625 641.779296875 603.625 641.779296875 595.125 c 0
 641.779296875 590.875 640.9296875 586.625 640.080078125 582.375 c 0
 638.379882812 575.575195312 635.830078125 567.924804688 631.580078125 560.275390625 c 0
 626.479492188 550.075195312 617.979492188 542.424804688 606.080078125 538.174804688 c 0
 600.129882812 535.625 595.029296875 534.775390625 589.080078125 534.775390625 c 0
 583.129882812 534.775390625 578.879882812 535.625 575.479492188 537.325195312 c 0
 572.080078125 539.025390625 564.4296875 543.275390625 554.229492188 550.924804688 c 0
 544.029296875 558.575195312 533.830078125 565.375 522.779296875 570.474609375 c 0
 511.729492188 575.575195312 502.379882812 578.125 493.029296875 578.125 c 0
 476.879882812 578.125 459.029296875 573.025390625 437.779296875 562.825195312 c 0
 416.529296875 552.625 394.4296875 537.325195312 371.479492188 516.924804688 c 0
 348.529296875 496.525390625 327.279296875 473.575195312 306.879882812 447.224609375 c 0
 286.479492188 420.875 267.779296875 391.974609375 251.629882812 358.825195312 c 0
 235.479492188 325.674804688 222.729492188 293.375 215.080078125 260.224609375 c 0
 212.529296875 248.325195312 210.830078125 236.424804688 210.830078125 224.525390625 c 0
 210.830078125 214.325195312 211.6796875 204.974609375 214.229492188 194.775390625 c 0
 218.479492188 173.525390625 227.830078125 156.525390625 241.4296875 142.924804688 c 0
 255.029296875 129.325195312 271.1796875 122.525390625 289.029296875 122.525390625 c 0
 300.9296875 122.525390625 314.529296875 126.775390625 328.979492188 134.424804688 c 0
 343.4296875 142.075195312 358.729492188 151.424804688 372.330078125 164.174804688 c 0
 385.9296875 176.924804688 399.529296875 190.525390625 413.129882812 206.674804688 c 0
 434.379882812 231.325195312 452.229492188 255.974609375 466.6796875 281.474609375 c 1
 436.080078125 279.775390625 404.629882812 277.224609375 372.330078125 272.974609375 c 0
 340.029296875 268.724609375 317.080078125 262.775390625 303.479492188 256.825195312 c 0
 296.6796875 253.424804688 290.729492188 251.724609375 283.9296875 251.724609375 c 0
 277.129882812 251.724609375 271.1796875 253.424804688 265.229492188 257.674804688 c 0
 256.729492188 263.625 252.479492188 272.125 252.479492188 281.474609375 c 2
 252.479492188 286.575195312 l 2
 252.479492188 289.125 252.479492188 292.525390625 253.330078125 295.075195312 c 0
 255.879882812 306.974609375 262.6796875 318.025390625 273.729492188 327.375 c 0
 281.379882812 334.174804688 291.580078125 340.125 304.330078125 345.224609375 c 0
 323.879882812 353.724609375 361.279296875 359.674804688 416.529296875 363.924804688 c 0
 456.479492188 366.474609375 488.779296875 368.174804688 515.129882812 369.025390625 c 0
 524.479492188 369.025390625 533.830078125 369.025390625 541.479492188 368.174804688 c 0
 555.9296875 367.325195312 566.129882812 363.924804688 572.080078125 357.974609375 c 0
 577.1796875 352.875 579.729492188 346.075195312 579.729492188 336.724609375 c 0
 579.729492188 332.474609375 578.879882812 328.224609375 578.029296875 323.125 c 0
 573.779296875 306.125 565.279296875 294.224609375 550.830078125 286.575195312 c 1
 547.4296875 276.375 l 2
 546.580078125 273.825195312 544.879882812 268.724609375 543.1796875 261.924804688 c 0
 534.6796875 237.275390625 516.830078125 206.674804688 489.629882812 169.275390625 c 0
 476.879882812 151.424804688 461.580078125 134.424804688 444.580078125 116.575195312 c 0
 426.729492188 99.5751953125 408.029296875 84.275390625 388.479492188 70.6748046875 c 0
 368.9296875 57.0751953125 348.529296875 46.875 325.580078125 38.375 c 0
 302.629882812 29.875 280.529296875 25.625 259.279296875 25.625 c 0
 232.9296875 25.625 209.979492188 29.875 190.4296875 37.525390625 c 0
 170.879882812 45.1748046875 155.580078125 56.224609375 143.6796875 69.8251953125 c 0
 131.779296875 83.4248046875 122.4296875 98.724609375 115.629882812 116.575195312 c 0
 108.830078125 134.424804688 105.4296875 153.125 104.580078125 172.674804688 c 2
EndSplineSet
Validated: 524289
EndChar

StartChar: H
Encoding: 72 72 47
Width: 570
VWidth: 901
GlyphClass: 2
Flags: HMW
HStem: 34.1254 17.85G<119.608 126.125 126.125 128.675> 317.175 73.1042 641.88 17G<280.825 284.225 284.225 290.458>
LayerCount: 2
Fore
SplineSet
92.1259765625 80.875 m 0
 92.6923828125 83.142578125 93.5439453125 85.412109375 94.677734375 87.6787109375 c 0
 99.2099609375 102.978515625 108.27734375 140.662109375 121.876953125 200.728515625 c 0
 129.810546875 235.295898438 140.15234375 277.37109375 152.90234375 326.954101562 c 2
 175.852539062 416.204101562 l 2
 178.40234375 426.12109375 180.810546875 436.037109375 183.077148438 445.954101562 c 0
 185.344726562 455.87109375 188.88671875 472.446289062 193.703125 495.6796875 c 0
 198.520507812 518.912109375 201.919921875 534.354492188 203.903320312 542.004882812 c 0
 205.88671875 549.654296875 207.869140625 557.446289062 209.852539062 565.379882812 c 0
 211.834960938 573.3125 213.110351562 578.270507812 213.677734375 580.25390625 c 0
 214.244140625 582.236328125 214.811523438 584.50390625 215.377929688 587.053710938 c 0
 215.9453125 589.603515625 216.653320312 592.153320312 217.502929688 594.704101562 c 0
 218.353515625 597.25390625 219.061523438 599.520507812 219.627929688 601.50390625 c 2
 220.478515625 604.478515625 l 2
 225.01171875 622.045898438 232.944335938 635.362304688 244.27734375 644.4296875 c 0
 255.610351562 654.0625 267.793945312 658.879882812 280.826171875 658.879882812 c 2
 284.2265625 658.879882812 l 2
 296.693359375 658.879882812 306.610351562 654.912109375 313.977539062 646.979492188 c 0
 319.520507812 641.06640625 322.291992188 633.104492188 322.291992188 623.094726562 c 0
 322.291992188 617.755859375 321.50390625 611.833984375 319.927734375 605.329101562 c 0
 318.793945312 599.096679688 315.251953125 586.629882812 309.302734375 567.9296875 c 0
 303.352539062 549.229492188 298.677734375 532.37109375 295.27734375 517.354492188 c 0
 291.876953125 502.337890625 287.344726562 481.229492188 281.677734375 454.029296875 c 0
 276.010742188 426.829101562 271.477539062 405.579101562 268.077148438 390.279296875 c 1
 314.543945312 390.846679688 371.2109375 395.946289062 438.078125 405.579101562 c 0
 457.911132812 408.412109375 473.494140625 410.395507812 484.827148438 411.528320312 c 0
 485.39453125 413.795898438 486.102539062 417.62109375 486.952148438 423.00390625 c 0
 487.802734375 428.38671875 490.352539062 440.995117188 494.602539062 460.828125 c 0
 498.852539062 480.661132812 502.251953125 496.102539062 504.802734375 507.153320312 c 0
 507.352539062 518.203125 511.744140625 535.627929688 517.977539062 559.427734375 c 0
 524.209960938 583.227539062 528.177734375 597.677734375 529.876953125 602.778320312 c 0
 534.41015625 620.911132812 542.626953125 634.793945312 554.52734375 644.426757812 c 0
 566.427734375 654.060546875 578.610351562 658.876953125 591.077148438 658.876953125 c 2
 594.477539062 658.876953125 l 2
 607.510742188 658.876953125 617.427734375 654.91015625 624.227539062 646.9765625 c 0
 629.515625 640.932617188 632.16015625 632.874023438 632.16015625 622.799804688 c 0
 632.16015625 617.762695312 631.499023438 612.221679688 630.176757812 606.176757812 c 0
 627.909179688 595.41015625 622.526367188 574.16015625 614.026367188 542.426757812 c 0
 603.826171875 502.759765625 595.184570312 467.202148438 588.1015625 435.751953125 c 0
 581.018554688 404.301757812 575.493164062 379.369140625 571.526367188 360.952148438 c 0
 567.559570312 342.53515625 564.159179688 325.393554688 561.326171875 309.526367188 c 0
 553.959960938 278.359375 543.759765625 238.55078125 530.7265625 190.1015625 c 0
 517.693359375 141.651367188 509.193359375 107.79296875 505.2265625 88.5263671875 c 2
 503.526367188 81.7265625 l 2
 498.993164062 66.42578125 489.643554688 54.5263671875 475.4765625 46.0263671875 c 0
 463.576171875 38.0927734375 451.393554688 34.1259765625 438.926757812 34.1259765625 c 2
 436.376953125 34.1259765625 l 2
 423.34375 34.1259765625 413.426757812 38.943359375 406.626953125 48.576171875 c 0
 402.59375 54.443359375 400.576171875 61.2587890625 400.576171875 69.0234375 c 0
 400.576171875 73.2587890625 401.176757812 77.7763671875 402.376953125 82.576171875 c 0
 402.943359375 84.2763671875 403.2265625 86.2587890625 403.2265625 88.5263671875 c 0
 424.759765625 159.359375 445.7265625 238.692382812 466.126953125 326.525390625 c 2
 469.526367188 341.825195312 l 1
 451.393554688 340.125 416.826171875 335.733398438 365.826171875 328.650390625 c 0
 314.826171875 321.567382812 275.7265625 317.7421875 248.526367188 317.17578125 c 1
 247.393554688 313.208007812 246.826171875 310.658203125 246.826171875 309.525390625 c 0
 238.326171875 281.192382812 229.684570312 248.325195312 220.901367188 210.92578125 c 0
 212.118164062 173.525390625 203.193359375 130.7421875 194.126953125 82.5751953125 c 0
 188.459960938 66.7080078125 178.826171875 54.525390625 165.2265625 46.025390625 c 0
 153.326171875 38.0927734375 141.143554688 34.125 128.676757812 34.125 c 2
 126.126953125 34.125 l 2
 113.09375 34.125 103.176757812 38.9423828125 96.376953125 48.5751953125 c 0
 92.5986328125 54.2421875 90.708984375 60.9169921875 90.708984375 68.5986328125 c 0
 90.708984375 72.439453125 91.181640625 76.53125 92.1259765625 80.875 c 0
EndSplineSet
Validated: 524289
EndChar

StartChar: I
Encoding: 73 73 48
Width: 570
VWidth: 902
GlyphClass: 2
Flags: HMW
HStem: 42.8479 87.55<465.569 475.344 465.569 465.569> 47.0987 83.2991<377.736 483.423> 563.047 92.6491<287.073 443.189 293.873 443.189>
LayerCount: 2
Fore
SplineSet
196.969726562 42 m 1x60
 161.836914062 40.8662109375 137.758789062 40.2978515625 124.725585938 40.2978515625 c 0
 108.858398438 40.2978515625 97.525390625 43.9814453125 90.7255859375 51.34765625 c 0
 85.404296875 56.6689453125 82.744140625 63.171875 82.744140625 70.8564453125 c 0
 82.744140625 73.8125 83.1376953125 76.9423828125 83.9248046875 80.248046875 c 2
 83.9248046875 82.7978515625 l 2
 86.19140625 94.130859375 92.4248046875 103.90625 102.625 112.123046875 c 0
 112.82421875 120.33984375 125.857421875 125.014648438 141.724609375 126.147460938 c 1
 142.857421875 130.680664062 143.140625 130.680664062 142.57421875 126.147460938 c 1
 164.106445312 127.28125 202.07421875 128.4140625 256.473632812 129.546875 c 1
 274.041015625 188.48046875 290.190429688 249.962890625 304.923828125 313.99609375 c 0
 312.856445312 347.4296875 320.223632812 381.146484375 327.0234375 415.146484375 c 0
 331.556640625 439.513671875 336.939453125 465.86328125 343.172851562 494.196289062 c 0
 344.305664062 500.4296875 345.581054688 506.37890625 346.998046875 512.045898438 c 0
 348.415039062 517.712890625 350.823242188 526.35546875 354.22265625 537.971679688 c 0
 357.623046875 549.588867188 360.172851562 557.947265625 361.873046875 563.046875 c 1
 293.873046875 563.046875 l 2
 280.2734375 563.046875 266.106445312 562.763671875 251.373046875 562.197265625 c 2
 249.672851562 562.197265625 l 2
 234.939453125 562.197265625 224.172851562 566.1640625 217.373046875 574.096679688 c 0
 212.2734375 580.046875 209.72265625 587.430664062 209.72265625 596.249023438 c 0
 209.72265625 599.188476562 210.005859375 602.288085938 210.573242188 605.545898438 c 0
 210.573242188 606.11328125 210.856445312 606.962890625 211.422851562 608.096679688 c 0
 214.255859375 619.99609375 220.7734375 630.62109375 230.97265625 639.971679688 c 0
 241.172851562 649.321289062 254.490234375 653.99609375 270.922851562 653.99609375 c 0
 316.823242188 655.12890625 360.456054688 655.696289062 401.823242188 655.696289062 c 0
 484.555664062 655.696289062 551.706054688 653.146484375 603.2734375 648.045898438 c 0
 615.172851562 646.913085938 624.240234375 643.23046875 630.47265625 636.997070312 c 0
 636.318359375 631.151367188 639.241210938 623.459960938 639.241210938 613.922851562 c 0
 639.241210938 610.516601562 638.868164062 606.875 638.123046875 602.998046875 c 0
 635.290039062 590.53125 629.056640625 578.9140625 619.423828125 568.147460938 c 0
 614.32421875 561.9140625 607.806640625 557.096679688 599.874023438 553.697265625 c 0
 594.7734375 551.997070312 589.95703125 550.864257812 585.423828125 550.296875 c 0
 582.590820312 550.296875 579.7578125 550.580078125 576.924804688 551.147460938 c 0
 563.32421875 553.4140625 527.341796875 556.53125 468.974609375 560.498046875 c 1
 467.274414062 554.264648438 464.44140625 542.931640625 460.474609375 526.499023438 c 0
 456.5078125 510.631835938 453.390625 498.44921875 451.124023438 489.94921875 c 0
 448.856445312 481.44921875 446.58984375 472.666015625 444.323242188 463.598632812 c 0
 436.389648438 429.598632812 430.297851562 401.83203125 426.047851562 380.298828125 c 0
 421.797851562 358.765625 416.981445312 336.666015625 411.59765625 313.999023438 c 0
 406.21484375 291.33203125 397.998046875 259.314453125 386.948242188 217.948242188 c 0
 375.8984375 176.581054688 368.389648438 147.680664062 364.422851562 131.248046875 c 1
 387.08984375 131.248046875 405.22265625 130.96484375 418.823242188 130.397460938 c 2
 483.422851562 130.397460938 l 1
 484.555664062 134.930664062 484.838867188 134.930664062 484.272460938 130.397460938 c 1xa0
 485.405273438 134.930664062 485.688476562 134.930664062 485.12109375 130.397460938 c 1
 486.25390625 134.930664062 486.537109375 134.930664062 485.970703125 130.397460938 c 1x60
 487.103515625 134.930664062 487.38671875 134.930664062 486.819335938 130.397460938 c 1
 502.120117188 130.397460938 512.177734375 126.573242188 516.995117188 118.922851562 c 0
 520.270507812 113.720703125 521.908203125 107.536132812 521.908203125 100.369140625 c 0
 521.908203125 96.9970703125 521.544921875 93.40625 520.819335938 89.59765625 c 0
 519.686523438 83.9306640625 517.986328125 78.5478515625 515.719726562 73.4482421875 c 0
 513.453125 68.34765625 510.3359375 63.248046875 506.369140625 58.1474609375 c 0
 501.268554688 51.9150390625 495.036132812 47.6650390625 487.668945312 45.3974609375 c 0
 483.135742188 43.6982421875 479.02734375 42.84765625 475.344726562 42.84765625 c 2
 465.569335938 42.84765625 l 2xa0
 451.969726562 45.115234375 428.453125 46.5322265625 395.01953125 47.0986328125 c 0
 360.453125 47.0986328125 328.719726562 46.5322265625 299.819335938 45.3984375 c 1
 286.124023438 47.759765625 272.18359375 48.9404296875 257.99609375 48.9404296875 c 0
 238.135742188 48.9404296875 217.793945312 46.626953125 196.969726562 42 c 1x60
EndSplineSet
Validated: 524289
EndChar

StartChar: J
Encoding: 74 74 49
Width: 570
VWidth: 900
GlyphClass: 2
Flags: HMW
HStem: 20.8768 107.099<278.215 283.034> 560.626 93.4992<383.049 408.55>
LayerCount: 2
Fore
SplineSet
432.349609375 235.075195312 m 0
 400.616210938 136.475585938 367.181640625 73.009765625 332.048828125 44.6767578125 c 0
 313.348632812 28.8095703125 293.515625 20.876953125 272.548828125 20.876953125 c 0
 251.581054688 20.876953125 232.03125 24.5595703125 213.8984375 31.9267578125 c 0
 195.765625 39.2939453125 180.748046875 48.6435546875 168.848632812 59.9765625 c 0
 158.081054688 71.876953125 148.58984375 84.7685546875 140.373046875 98.6513671875 c 0
 132.155273438 112.53515625 125.780273438 126.276367188 121.248046875 139.876953125 c 0
 116.71484375 153.4765625 113.59765625 165.801757812 111.897460938 176.8515625 c 0
 110.623046875 185.138671875 109.985351562 192.390625 109.985351562 198.60546875 c 0
 109.985351562 200.677734375 110.055664062 202.634765625 110.197265625 204.4765625 c 0
 110.197265625 210.709960938 111.47265625 217.651367188 114.022460938 225.301757812 c 0
 116.572265625 232.952148438 119.547851562 240.176757812 122.947265625 246.9765625 c 0
 126.915039062 255.4765625 132.72265625 262.702148438 140.373046875 268.651367188 c 0
 148.022460938 274.6015625 156.947265625 278.709960938 167.147460938 280.9765625 c 0
 170.547851562 281.543945312 173.947265625 281.543945312 177.34765625 280.9765625 c 0
 188.114257812 280.9765625 196.047851562 277.577148438 201.147460938 270.776367188 c 0
 205.680664062 264.732421875 207.947265625 257.5546875 207.947265625 249.243164062 c 0
 207.947265625 245.086914062 207.380859375 240.6484375 206.248046875 235.92578125 c 0
 205.158203125 230.913085938 204.61328125 225.439453125 204.61328125 219.504882812 c 0
 204.61328125 210.008789062 206.0078125 199.333007812 208.797851562 187.475585938 c 0
 211.064453125 176.708984375 214.889648438 166.93359375 220.272460938 158.151367188 c 0
 225.655273438 149.368164062 234.013671875 142.142578125 245.346679688 136.475585938 c 0
 256.6796875 130.80859375 270.280273438 127.975585938 286.146484375 127.975585938 c 0
 286.713867188 127.975585938 287.563476562 128.258789062 288.697265625 128.826171875 c 0
 292.6640625 131.659179688 297.48046875 138.17578125 303.147460938 148.375976562 c 0
 316.180664062 172.17578125 328.930664062 209.008789062 341.397460938 258.875976562 c 2
 341.822265625 260.576171875 l 2
 342.10546875 261.708984375 343.380859375 267.517578125 345.647460938 278 c 0
 347.915039062 288.483398438 353.864257812 316.674804688 363.498046875 362.575195312 c 0
 377.665039062 431.142578125 392.681640625 497.159179688 408.548828125 560.625976562 c 1
 379.08203125 561.475585938 351.385742188 561.901367188 325.4609375 561.901367188 c 0
 299.536132812 561.901367188 275.381835938 561.475585938 252.998046875 560.625976562 c 2
 251.298828125 560.625976562 l 2
 236.565429688 560.625976562 225.798828125 564.592773438 218.998046875 572.526367188 c 0
 214.198242188 578.125976562 211.798828125 584.99609375 211.798828125 593.137695312 c 0
 211.798828125 596.529296875 212.21484375 600.141601562 213.048828125 603.975585938 c 2
 213.048828125 606.525390625 l 2
 215.881835938 618.424804688 222.540039062 629.049804688 233.022460938 638.400390625 c 0
 243.505859375 647.75 256.680664062 652.424804688 272.547851562 652.424804688 c 0
 319.014648438 653.55859375 362.647460938 654.125 403.447265625 654.125 c 0
 486.180664062 654.125 553.331054688 651.575195312 604.897460938 646.475585938 c 0
 616.797851562 645.341796875 625.581054688 641.659179688 631.248046875 635.42578125 c 0
 637.41796875 629.255859375 640.502929688 621.029296875 640.502929688 610.74609375 c 0
 640.502929688 607.807617188 640.250976562 604.701171875 639.747070312 601.426757812 c 0
 636.9140625 588.959960938 630.680664062 577.342773438 621.047851562 566.576171875 c 0
 615.947265625 560.342773438 609.430664062 555.526367188 601.498046875 552.125976562 c 0
 596.397460938 550.42578125 591.581054688 549.29296875 587.047851562 548.725585938 c 0
 584.21484375 548.725585938 581.09765625 549.008789062 577.697265625 549.576171875 c 0
 561.831054688 552.409179688 536.897460938 554.958984375 502.897460938 557.225585938 c 1
 500.064453125 543.05859375 490.431640625 493.475585938 473.998046875 408.475585938 c 0
 469.465820312 385.243164062 465.357421875 365.693359375 461.673828125 349.826171875 c 0
 457.991210938 333.958984375 455.866210938 324.041992188 455.298828125 320.075195312 c 0
 446.798828125 284.375 439.149414062 256.041992188 432.349609375 235.075195312 c 0
EndSplineSet
Validated: 524289
EndChar

StartChar: K
Encoding: 75 75 50
Width: 570
VWidth: 902
GlyphClass: 2
Flags: HMW
HStem: 34.1932 17.85G<117.344 123.861 123.861 126.41> 641.941 17.85G
LayerCount: 2
Fore
SplineSet
126.411132812 34.193359375 m 2
 123.862304688 34.193359375 l 2
 110.829101562 34.193359375 100.62890625 37.8759765625 93.2626953125 45.2431640625 c 0
 88.9765625 49.91796875 86.833984375 55.6650390625 86.833984375 62.482421875 c 0
 86.833984375 65.58203125 87.27734375 68.9013671875 88.162109375 72.443359375 c 0
 88.7294921875 74.7099609375 89.5791015625 76.9775390625 90.7119140625 79.244140625 c 0
 96.37890625 97.376953125 103.74609375 127.41015625 112.813476562 169.342773438 c 0
 131.512695312 250.375976562 150.49609375 339.909179688 169.762695312 437.942382812 c 0
 177.129882812 473.642578125 182.23046875 498.291992188 185.063476562 511.892578125 c 0
 187.896484375 524.92578125 192.712890625 543.342773438 199.512695312 567.142578125 c 0
 206.313476562 591.509765625 210.563476562 606.809570312 212.262695312 613.041992188 c 0
 216.23046875 627.775390625 223.596679688 639.392578125 234.364257812 647.892578125 c 0
 244.94140625 655.295898438 256.258789062 658.998046875 268.31640625 658.998046875 c 0
 269.178710938 658.998046875 270.043945312 658.979492188 270.913085938 658.94140625 c 2
 273.462890625 658.94140625 l 2
 285.9296875 658.94140625 296.129882812 655.82421875 304.063476562 649.591796875 c 0
 310.134765625 644.329101562 313.169921875 637.043945312 313.169921875 627.734375 c 0
 313.169921875 624.010742188 312.684570312 619.962890625 311.712890625 615.591796875 c 0
 308.879882812 601.991210938 302.080078125 575.07421875 291.313476562 534.841796875 c 0
 280.545898438 495.174804688 272.329101562 462.591796875 266.662109375 437.091796875 c 1
 289.895507812 454.091796875 323.328125 478.458007812 366.961914062 510.19140625 c 0
 462.161132812 585.55859375 518.544921875 629.475585938 536.111328125 641.942382812 c 0
 546.877929688 649.309570312 556.51171875 654.409179688 565.01171875 657.2421875 c 0
 570.678710938 658.942382812 575.495117188 659.791992188 579.461914062 659.791992188 c 0
 583.4296875 659.791992188 586.545898438 659.509765625 588.813476562 658.942382812 c 0
 595.045898438 657.2421875 600.4296875 654.125 604.961914062 649.592773438 c 0
 611.1953125 642.791992188 613.461914062 635.142578125 611.762695312 626.642578125 c 0
 608.362304688 611.342773438 598.729492188 594.909179688 582.862304688 577.342773438 c 0
 572.095703125 566.575195312 536.395507812 535.692382812 475.762695312 484.692382812 c 0
 413.995117188 437.092773438 359.877929688 395.725585938 313.411132812 360.592773438 c 1
 328.711914062 340.192382812 353.64453125 309.875 388.211914062 269.642578125 c 0
 423.344726562 231.67578125 453.661132812 197.392578125 479.161132812 166.791992188 c 0
 492.194335938 148.092773438 501.544921875 133.359375 507.211914062 122.592773438 c 0
 513.444335938 109.559570312 516.561523438 100.4921875 516.561523438 95.392578125 c 0
 516.561523438 88.025390625 515.994140625 80.9423828125 514.861328125 74.142578125 c 0
 513.728515625 69.609375 511.745117188 65.076171875 508.912109375 60.54296875 c 0
 503.245117188 52.6103515625 495.595703125 46.376953125 485.961914062 41.84375 c 0
 473.599609375 36.6923828125 465.450195312 34.1162109375 461.516601562 34.1162109375 c 0
 461.123046875 34.1162109375 460.771484375 34.142578125 460.461914062 34.1943359375 c 2
 459.612304688 34.1943359375 l 2
 445.4453125 34.1943359375 433.828125 41.27734375 424.76171875 55.4443359375 c 0
 421.361328125 62.244140625 405.778320312 81.7939453125 378.01171875 114.09375 c 0
 350.244140625 145.827148438 320.494140625 180.676757812 288.76171875 218.643554688 c 0
 264.961914062 243.577148438 245.978515625 264.827148438 231.811523438 282.393554688 c 1
 191.01171875 73.2939453125 l 2
 186.478515625 60.8271484375 177.127929688 50.91015625 162.961914062 43.54296875 c 0
 151.061523438 37.310546875 138.877929688 34.193359375 126.411132812 34.193359375 c 2
EndSplineSet
Validated: 524289
EndChar

StartChar: L
Encoding: 76 76 51
Width: 570
VWidth: 901
GlyphClass: 2
Flags: HMW
HStem: 44.175 89.25 634.925 17G<289.565 292.115 292.115 298.632>
LayerCount: 2
Fore
SplineSet
87.2685546875 73.9248046875 m 0
 87.2685546875 78.1748046875 88.1181640625 82.4248046875 88.96875 86.6748046875 c 0
 89.818359375 88.375 89.818359375 90.9248046875 90.66796875 94.3251953125 c 0
 91.5185546875 97.724609375 101.71875 128.325195312 121.268554688 186.974609375 c 0
 140.818359375 245.625 158.66796875 301.724609375 173.118164062 355.275390625 c 0
 177.368164062 371.424804688 182.46875 391.825195312 188.41796875 415.625 c 0
 193.489257812 436.752929688 206.962890625 496.53515625 228.00390625 594.969726562 c 0
 228.100585938 595.647460938 228.221679688 596.497070312 228.368164062 597.525390625 c 0
 232.618164062 615.375 240.268554688 628.974609375 252.16796875 638.325195312 c 0
 264.068359375 647.674804688 276.818359375 651.924804688 289.568359375 651.924804688 c 2
 292.118164062 651.924804688 l 2
 304.868164062 651.924804688 315.068359375 647.674804688 322.71875 640.025390625 c 0
 328.66796875 634.075195312 332.068359375 626.424804688 332.068359375 616.224609375 c 0
 332.068359375 611.125 331.21875 606.025390625 329.518554688 600.075195312 c 0
 326.118164062 583.924804688 321.018554688 562.674804688 313.368164062 535.474609375 c 0
 304.018554688 498.924804688 294.66796875 464.075195312 286.16796875 431.775390625 c 0
 276.818359375 396.924804688 266.618164062 361.224609375 257.268554688 324.674804688 c 0
 251.318359375 301.724609375 241.118164062 269.424804688 228.368164062 228.625 c 0
 215.618164062 187.825195312 207.118164062 156.375 201.16796875 133.424804688 c 1
 203.71875 140.224609375 203.71875 140.224609375 202.868164062 133.424804688 c 1
 247.91796875 133.424804688 301.46875 135.974609375 363.518554688 141.924804688 c 0
 423.868164062 147.875 464.66796875 152.974609375 485.068359375 158.075195312 c 0
 488.46875 158.924804688 491.868164062 159.775390625 496.118164062 159.775390625 c 0
 500.368164062 159.775390625 503.768554688 158.924804688 507.16796875 158.075195312 c 0
 513.118164062 155.525390625 518.21875 150.424804688 521.618164062 143.625 c 0
 524.16796875 137.674804688 525.018554688 131.724609375 525.018554688 125.775390625 c 0
 525.868164062 118.974609375 525.018554688 113.025390625 524.16796875 107.924804688 c 0
 521.618164062 95.1748046875 515.66796875 85.8251953125 507.16796875 77.3251953125 c 0
 498.66796875 68.8251953125 487.618164062 62.875 471.46875 60.3251953125 c 0
 433.21875 52.6748046875 373.71875 47.5751953125 293.818359375 44.1748046875 c 0
 213.91796875 40.775390625 156.96875 39.0751953125 122.118164062 39.0751953125 c 0
 109.368164062 39.0751953125 99.16796875 44.1748046875 93.21875 53.525390625 c 0
 89.818359375 59.474609375 87.2685546875 66.275390625 87.2685546875 73.9248046875 c 0
EndSplineSet
Validated: 524289
EndChar

StartChar: M
Encoding: 77 77 52
Width: 570
VWidth: 902
GlyphClass: 2
Flags: HMW
HStem: 43.598 17.85G<99.4097 102.243 102.243 103.943>
LayerCount: 2
Fore
SplineSet
164.296875 105.649414062 m 2
 162.592773438 97.1484375 l 2
 159.192382812 81.84765625 152.109375 69.09765625 141.342773438 58.8984375 c 0
 129.442382812 48.6982421875 116.975585938 43.59765625 103.942382812 43.59765625 c 2
 102.2421875 43.59765625 l 2
 96.5751953125 43.59765625 91.4755859375 44.7314453125 86.9423828125 46.998046875 c 0
 80.7099609375 50.3984375 76.7421875 56.630859375 75.04296875 65.6982421875 c 0
 74.791015625 67.9638671875 74.6650390625 70.3984375 74.6650390625 73 c 0
 74.6650390625 82.1083984375 76.2080078125 93.2744140625 79.29296875 106.498046875 c 0
 80.9931640625 113.865234375 84.3935546875 126.047851562 89.4931640625 143.047851562 c 0
 94.59375 159.481445312 101.676757812 181.297851562 110.743164062 208.498046875 c 0
 120.375976562 237.3984375 131.143554688 271.680664062 143.04296875 311.34765625 c 0
 154.943359375 351.014648438 164.860351562 382.748046875 172.79296875 406.547851562 c 0
 198.29296875 488.1484375 217.276367188 544.815429688 229.743164062 576.547851562 c 0
 237.676757812 596.380859375 244.759765625 610.263671875 250.9921875 618.197265625 c 0
 260.059570312 630.09765625 271.676757812 638.59765625 285.84375 643.697265625 c 0
 297.743164062 648.23046875 309.360351562 650.497070312 320.693359375 650.497070312 c 2
 325.79296875 650.497070312 l 2
 338.826171875 650.497070312 349.026367188 648.513671875 356.393554688 644.546875 c 0
 367.16015625 639.447265625 373.110351562 630.947265625 374.243164062 619.046875 c 0
 374.44921875 614.514648438 374.552734375 609.447265625 374.552734375 603.84765625 c 0
 374.552734375 578.642578125 372.465820312 542.625976562 368.29296875 495.797851562 c 0
 363.193359375 438.565429688 356.393554688 373.3984375 347.893554688 300.297851562 c 0
 346.193359375 283.865234375 344.493164062 268.565429688 342.79296875 254.3984375 c 1
 355.826171875 295.198242188 368.29296875 333.731445312 380.193359375 369.998046875 c 0
 396.060546875 417.03125 413.91015625 463.78125 433.743164062 510.248046875 c 0
 453.576171875 557.28125 469.7265625 593.547851562 482.193359375 619.047851562 c 0
 486.7265625 627.547851562 494.375976562 634.630859375 505.143554688 640.297851562 c 0
 514.776367188 645.3984375 524.409179688 648.514648438 534.04296875 649.6484375 c 0
 540.275390625 650.21484375 545.375976562 650.639648438 549.342773438 650.922851562 c 0
 553.309570312 651.206054688 556.426757812 651.064453125 558.693359375 650.497070312 c 2
 562.09375 650.497070312 l 1
 574.41796875 650.497070312 l 2
 577.53515625 650.497070312 581.643554688 649.647460938 586.743164062 647.947265625 c 0
 592.41015625 646.814453125 596.943359375 645.114257812 600.34375 642.84765625 c 0
 603.743164062 640.580078125 606.576171875 637.180664062 608.84375 632.647460938 c 0
 611.110351562 627.546875 612.243164062 621.59765625 612.243164062 614.796875 c 0
 610.54296875 597.796875 597.510742188 515.34765625 573.143554688 367.447265625 c 0
 549.34375 220.114257812 537.443359375 136.814453125 537.443359375 117.546875 c 0
 537.443359375 106.213867188 536.026367188 95.7314453125 533.193359375 86.09765625 c 0
 531.493164062 78.1650390625 528.375976562 71.365234375 523.84375 65.6982421875 c 0
 517.610351562 57.7646484375 509.110351562 52.09765625 498.34375 48.6982421875 c 0
 492.110351562 46.998046875 485.876953125 46.005859375 479.64453125 45.72265625 c 0
 473.411132812 45.4404296875 467.177734375 46.998046875 460.9453125 50.3984375 c 0
 450.177734375 56.0654296875 443.9453125 67.681640625 442.245117188 85.2490234375 c 0
 442.076171875 87.2724609375 441.9921875 89.642578125 441.9921875 92.3583984375 c 0
 441.9921875 135.278320312 463.04296875 264.658203125 505.145507812 480.499023438 c 1
 488.145507812 436.866210938 473.696289062 395.499023438 461.795898438 356.3984375 c 0
 441.395507812 291.798828125 420.428710938 230.598632812 398.895507812 172.798828125 c 0
 376.795898438 114.999023438 361.212890625 79.58203125 352.145507812 66.548828125 c 0
 340.8125 52.94921875 320.413085938 46.1484375 290.946289062 46.1484375 c 2
 286.696289062 46.1484375 l 2
 275.36328125 46.1484375 266.012695312 47.8486328125 258.645507812 51.2490234375 c 0
 249.579101562 55.2158203125 244.478515625 60.8828125 243.345703125 68.25 c 0
 243.301757812 70.3427734375 243.280273438 72.642578125 243.280273438 75.1474609375 c 0
 243.280273438 105.205078125 246.418945312 164.956054688 252.696289062 254.399414062 c 0
 257.228515625 320.69921875 262.045898438 385.016601562 267.145507812 447.349609375 c 1
 263.74609375 436.016601562 257.512695312 415.616210938 248.446289062 386.149414062 c 2
 235.696289062 341.099609375 l 1
 212.74609375 266.299804688 l 2
 205.946289062 243.06640625 198.579101562 218.983398438 190.645507812 194.05078125 c 0
 184.413085938 174.783203125 178.1796875 154.666992188 171.946289062 133.69921875 c 0
 167.979492188 121.232421875 165.4296875 111.8828125 164.296875 105.649414062 c 2
EndSplineSet
Validated: 524289
EndChar

StartChar: N
Encoding: 78 78 53
Width: 570
VWidth: 901
GlyphClass: 2
Flags: HMW
HStem: 41.6261 17.85G<110.674 124.841> 634.076 17G<273.592 281.526 590.359 603.392>
VStem: 88.8565 85.0017
LayerCount: 2
Fore
SplineSet
264.806640625 464.924804688 m 1
 259.70703125 439.424804688 255.173828125 418.17578125 251.20703125 401.17578125 c 0
 247.240234375 383.04296875 241.290039062 357.54296875 233.357421875 324.67578125 c 0
 225.423828125 292.375976562 215.506835938 253.276367188 203.607421875 207.375976562 c 0
 191.70703125 160.342773438 184.056640625 130.875976562 180.657226562 118.975585938 c 0
 177.82421875 107.076171875 176.124023438 99.42578125 175.556640625 96.0263671875 c 0
 174.990234375 93.193359375 174.422851562 90.642578125 173.856445312 88.3759765625 c 0
 170.456054688 73.076171875 163.65625 61.458984375 153.456054688 53.5263671875 c 0
 142.689453125 45.5927734375 131.072265625 41.6259765625 118.60546875 41.6259765625 c 0
 102.73828125 41.6259765625 92.8212890625 46.7255859375 88.8544921875 56.92578125 c 0
 88.0302734375 60.6357421875 87.6181640625 64.8310546875 87.6181640625 69.5146484375 c 0
 87.6181640625 77.7099609375 88.8798828125 87.3974609375 91.404296875 98.576171875 c 0
 93.671875 109.909179688 104.438476562 153.826171875 123.705078125 230.326171875 c 0
 153.171875 348.193359375 173.2890625 429.225585938 184.056640625 473.42578125 c 0
 194.255859375 517.625976562 202.755859375 557.859375 209.556640625 594.125976562 c 0
 210.123046875 596.392578125 210.690429688 598.943359375 211.256835938 601.776367188 c 0
 212.95703125 610.276367188 216.357421875 617.642578125 221.45703125 623.875976562 c 0
 227.124023438 631.809570312 234.20703125 637.758789062 242.70703125 641.725585938 c 0
 254.607421875 647.958984375 267.07421875 651.076171875 280.107421875 651.076171875 c 0
 282.940429688 651.076171875 285.7734375 650.79296875 288.606445312 650.225585938 c 0
 300.505859375 650.225585938 310.139648438 648.243164062 317.505859375 644.276367188 c 0
 328.2734375 639.17578125 334.223632812 630.67578125 335.356445312 618.776367188 c 0
 338.755859375 582.508789062 356.323242188 515.359375 388.056640625 417.326171875 c 0
 414.689453125 334.592773438 438.489257812 265.743164062 459.456054688 210.776367188 c 1
 471.922851562 259.508789062 486.65625 323.258789062 503.65625 402.026367188 c 0
 525.755859375 502.326171875 538.7890625 568.625976562 542.755859375 600.92578125 c 0
 543.323242188 604.326171875 543.889648438 607.443359375 544.45703125 610.276367188 c 0
 546.723632812 620.475585938 552.107421875 629.258789062 560.607421875 636.625976562 c 0
 571.374023438 646.258789062 583.556640625 651.076171875 597.157226562 651.076171875 c 0
 609.624023438 651.076171875 619.256835938 648.809570312 626.056640625 644.276367188 c 0
 629.45703125 642.008789062 632.006835938 638.609375 633.70703125 634.076171875 c 0
 634.274414062 629.54296875 634.556640625 625.576171875 634.556640625 622.17578125 c 0
 634.556640625 618.208984375 633.990234375 612.258789062 632.857421875 604.326171875 c 0
 632.290039062 594.693359375 622.657226562 549.360351562 603.95703125 468.327148438 c 0
 601.124023438 456.426757812 598.57421875 444.52734375 596.306640625 432.626953125 c 0
 579.874023438 361.793945312 562.024414062 288.693359375 542.756835938 213.327148438 c 0
 530.290039062 164.59375 520.08984375 128.327148438 512.157226562 104.52734375 c 0
 504.790039062 81.8603515625 498.83984375 67.41015625 494.306640625 61.1767578125 c 0
 483.540039062 47.5771484375 464.556640625 40.494140625 437.357421875 39.9267578125 c 2
 433.95703125 39.9267578125 l 2
 423.756835938 39.9267578125 415.256835938 41.91015625 408.45703125 45.876953125 c 0
 399.95703125 50.41015625 394.857421875 56.0771484375 393.157226562 62.876953125 c 0
 390.32421875 74.2099609375 382.390625 99.142578125 369.357421875 137.67578125 c 0
 355.7578125 177.909179688 341.590820312 216.442382812 326.857421875 253.275390625 c 0
 312.69140625 295.208007812 298.524414062 341.674804688 284.357421875 392.674804688 c 0
 276.423828125 418.7421875 269.907226562 442.825195312 264.806640625 464.924804688 c 1
EndSplineSet
Validated: 524289
EndChar

StartChar: O
Encoding: 79 79 54
Width: 570
VWidth: 902
GlyphClass: 2
Flags: HMW
HStem: 31.65 91.8<260.334 296.603> 572.251 90.0991<432.886 439.119>
VStem: 129.435 95.1991<189.326 260.017>
LayerCount: 2
Fore
SplineSet
223.784179688 210.256835938 m 0
 223.784179688 189.612304688 223.784179688 123.450195312 281.584960938 123.450195312 c 0
 329.375 123.450195312 396.779296875 143.142578125 437.985351562 215.25 c 0
 439.293945312 217.6484375 504.234375 395.711914062 504.234375 480.27734375 c 0
 504.234375 493.341796875 501.094726562 572.250976562 425.234375 572.250976562 c 0
 276.73046875 572.250976562 223.784179688 280.180664062 223.784179688 210.256835938 c 0
456.685546875 662.349609375 m 0
 492.827148438 662.349609375 601.184570312 650.262695312 601.184570312 505.3125 c 0
 601.184570312 491.00390625 600.049804688 475.916992188 597.783203125 460.049804688 c 0
 597.372070312 457.36328125 571.021484375 289.001953125 528.083984375 197.401367188 c 0
 461.353515625 61.0302734375 375.139648438 31.650390625 260.333984375 31.650390625 c 0
 154.412109375 33.2548828125 121.375 116.009765625 121.375 191.9140625 c 0
 121.375 213.430664062 124.061523438 235.943359375 129.434570312 259.450195312 c 0
 129.434570312 262.345703125 160.387695312 424.048828125 223.784179688 533.149414062 c 0
 241.247070312 561.685546875 313.029296875 662.349609375 456.685546875 662.349609375 c 0
EndSplineSet
Validated: 524289
EndChar

